<?xml version="1.0" encoding="utf-8"?>
<!-- Generator: Adobe Illustrator 24.0.1, SVG Export Plug-In . SVG Version: 6.00 Build 0)  -->
<svg version="1.1" id="Слой_1" xmlns="http://www.w3.org/2000/svg" xmlns:xlink="http://www.w3.org/1999/xlink" x="0px" y="0px"
	 viewBox="0 0 100 100" style="enable-background:new 0 0 100 100;" xml:space="preserve">
<style type="text/css">
	.st0{fill:#FFFFFF;}
	.st1{fill:#4D4D4D;}
</style>
<g>
	<g>
		<rect x="1809.6" y="47.2" class="st0" width="15.1" height="4.2"/>
		<path class="st0" d="M1803.6,70.4c0,0,0.7,12.6,13.8,12.6c0,0,11-0.2,12.5-9.1h-6.7c0,0-1.2,3.5-6.2,3.5s-5.9-4.5-5.9-6.9s0,0,0,0
			L1803.6,70.4"/>
		<path class="st0" d="M1830.5,70.4c0,0,1.4-16.1-13.4-16.1s0,0,0,0v5.6c0,0,6-0.5,6,5.7s0,0,0,0L1830.5,70.4"/>
		<path class="st0" d="M1830.5,70.4h-26.9c0,0-1.3-15.9,13.4-16.1v5.6c0,0-6.1,0.3-6.1,5.7h12L1830.5,70.4z"/>
	</g>
	<g>
		<path class="st0" d="M1795.7,62.4c0,0,5-1.1,5-8.2s-6.6-8.8-10.7-8.8s-10.5-0.1-10.5-0.1v6.5h8.2c0,0,5.1,0,5.1,3.7
			s-1.7,5.1-4.4,5.1c-2.7,0-8.9,0-8.9,0v-8.8v10.6H1795.7"/>
		<path class="st0" d="M1779.4,76.4V66.1V76.4c0,0,5,0.1,9.6,0.1s5.1-2.3,5.1-6c0-3.8-4.9-4.3-4.9-4.3h-9.8v-3.4v-0.4h16.2
			c7.9,2.8,6.8,9.8,6.8,9.8C1802.5,83,1790,83,1790,83h-10.5L1779.4,76.4"/>
		<rect x="1771.2" y="45.2" class="st0" width="8.3" height="37.7"/>
	</g>
</g>
<g>
	<g>
		<rect x="60.5" y="35.3" class="st1" width="15.1" height="4.2"/>
		<path class="st1" d="M54.5,58.4c0,0,0.7,12.6,13.8,12.6c0,0,11-0.2,12.5-9.1h-6.7c0,0-1.2,3.5-6.2,3.5s-6-4.5-6-6.9s0,0,0,0
			L54.5,58.4"/>
		<path class="st1" d="M81.4,58.4c0,0,1.4-16.1-13.4-16.1s0,0,0,0v5.6c0,0,6-0.5,6,5.7s0,0,0,0L81.4,58.4"/>
		<path class="st1" d="M81.4,58.4H54.5c0,0-1.3-15.9,13.5-16.1v5.6c0,0-6.1,0.3-6.1,5.7h12L81.4,58.4z"/>
	</g>
	<g>
		<path class="st1" d="M46.6,50.4c0,0,5-1.1,5-8.2s-6.5-8.8-10.7-8.8s-10.5-0.1-10.5-0.1v6.5h8.2c0,0,5.1,0,5.1,3.7
			s-1.7,5.1-4.4,5.1s-8.9,0-8.9,0v-8.8v10.7L46.6,50.4"/>
		<path class="st1" d="M30.4,64.4V54.2V64.4c0,0,5,0.1,9.6,0.1s5.1-2.3,5.1-6s-4.9-4.3-4.9-4.3h-9.8v-3.4v-0.4h16.2
			c7.9,2.8,6.8,9.8,6.8,9.8C53.4,71,40.9,71,40.9,71H30.4V64.4"/>
		<rect x="22.1" y="33.2" class="st1" width="8.3" height="37.7"/>
	</g>
</g>
</svg>
