<?xml version="1.0" encoding="utf-8"?>
<!-- Generator: Adobe Illustrator 24.0.1, SVG Export Plug-In . SVG Version: 6.00 Build 0)  -->
<svg version="1.1" id="Слой_1" xmlns="http://www.w3.org/2000/svg" xmlns:xlink="http://www.w3.org/1999/xlink" x="0px" y="0px"
	 viewBox="0 0 100 100" style="enable-background:new 0 0 100 100;" xml:space="preserve">
<style type="text/css">
	.st0{fill-rule:evenodd;clip-rule:evenodd;fill:#808080;}
	.st1{fill:#FFFFFF;}
</style>
<path class="st0" d="M79,84.5H20c-5.8,0-10.5-4.7-10.5-10.5V23c0-5.8,4.7-10.5,10.5-10.5H79c5.8,0,10.5,4.7,10.5,10.5V74
	C89.5,79.8,84.8,84.5,79,84.5z"/>
<g>
	<path class="st1" d="M48.4,39.6h-5.8v17.4h-3.4V39.6h-5.8v-2.9h15V39.6z"/>
	<path class="st1" d="M66,57.1h-3.7l-1.8-5.2h-8l-1.8,5.2H47l7.6-20.3h3.8L66,57.1z M59.6,49.2l-2.8-8.1c-0.1-0.3-0.2-0.7-0.3-1.3
		h-0.1c-0.1,0.5-0.2,1-0.3,1.3l-2.8,8.1H59.6z"/>
</g>
</svg>
