<?xml version="1.0" encoding="utf-8"?>
<!-- Generator: Adobe Illustrator 24.0.1, SVG Export Plug-In . SVG Version: 6.00 Build 0)  -->
<svg version="1.1" id="Слой_1" xmlns="http://www.w3.org/2000/svg" xmlns:xlink="http://www.w3.org/1999/xlink" x="0px" y="0px"
	 viewBox="0 0 385 411" style="enable-background:new 0 0 385 411;" xml:space="preserve">
<style type="text/css">
	.st0{fill:#F2F2F2;}
	.st1{opacity:0.4;fill:#666666;}
	.st2{fill:#4D4D4D;}
</style>
<path class="st0" d="M359.7,410.5H26.3c-14.3,0-25.8-11.6-25.8-25.8V26.3c0-14.3,11.6-25.8,25.8-25.8h333.4
	c14.3,0,25.8,11.6,25.8,25.8v358.4C385.5,399,373.9,410.5,359.7,410.5z"/>
<g>
	<path class="st1" d="M46.5,25.9v-2h0c-0.4,0.7-0.9,1.3-1.6,1.7c-0.7,0.4-1.5,0.6-2.4,0.6c-0.7,0-1.4-0.1-1.9-0.4
		c-0.6-0.3-1.1-0.6-1.5-1.1c-0.4-0.5-0.7-1.1-1-1.8c-0.2-0.7-0.3-1.5-0.3-2.4c0-0.9,0.1-1.7,0.4-2.5c0.2-0.8,0.6-1.4,1.1-1.9
		c0.5-0.5,1-1,1.6-1.3c0.6-0.3,1.4-0.4,2.1-0.4c1.6,0,2.8,0.6,3.5,1.9h0V9.2h1.4v16.7H46.5z M46.5,19.1c0-0.5-0.1-1-0.3-1.4
		c-0.2-0.4-0.4-0.8-0.7-1.1c-0.3-0.3-0.7-0.6-1.1-0.7c-0.4-0.2-0.9-0.3-1.4-0.3c-0.6,0-1.1,0.1-1.6,0.3c-0.5,0.2-0.9,0.5-1.2,1
		c-0.3,0.4-0.6,0.9-0.8,1.5c-0.2,0.6-0.3,1.3-0.3,2c0,0.7,0.1,1.4,0.3,1.9c0.2,0.6,0.4,1,0.7,1.4c0.3,0.4,0.7,0.7,1.1,0.9
		c0.4,0.2,0.9,0.3,1.5,0.3c0.6,0,1.1-0.1,1.6-0.3c0.5-0.2,0.9-0.5,1.2-0.8c0.3-0.4,0.6-0.8,0.7-1.3c0.2-0.5,0.3-1,0.3-1.6V19.1z"/>
	<path class="st1" d="M52.2,20.6c0,0.7,0.1,1.3,0.3,1.9c0.2,0.6,0.4,1,0.8,1.4c0.3,0.4,0.7,0.7,1.2,0.9c0.5,0.2,1,0.3,1.6,0.3
		c1.3,0,2.5-0.4,3.6-1.3V25c-1.1,0.8-2.4,1.2-4,1.2c-0.8,0-1.5-0.1-2.1-0.4c-0.6-0.3-1.2-0.6-1.6-1.2s-0.8-1.1-1-1.9
		c-0.2-0.7-0.4-1.6-0.4-2.5c0-0.8,0.1-1.6,0.4-2.3c0.3-0.7,0.6-1.3,1.1-1.9c0.5-0.5,1-0.9,1.6-1.2c0.6-0.3,1.3-0.4,2.1-0.4
		c0.7,0,1.4,0.1,1.9,0.4c0.6,0.3,1,0.6,1.4,1.1c0.4,0.5,0.7,1,0.9,1.7c0.2,0.7,0.3,1.4,0.3,2.3v0.7H52.2z M59,19.3
		c0-1.2-0.3-2.1-0.8-2.7c-0.5-0.6-1.3-1-2.3-1c-0.5,0-0.9,0.1-1.3,0.3c-0.4,0.2-0.8,0.4-1.1,0.7c-0.3,0.3-0.6,0.7-0.8,1.2
		c-0.2,0.5-0.3,1-0.4,1.5H59z"/>
	<path class="st1" d="M68.6,10.6c-0.3-0.2-0.7-0.3-1.2-0.3c-1.3,0-2,0.9-2,2.6v1.8h2.8v1.2h-2.8v10h-1.4v-10h-2v-1.2h2v-1.9
		c0-0.6,0.1-1.1,0.2-1.5c0.1-0.5,0.4-0.9,0.6-1.2c0.3-0.3,0.6-0.6,1.1-0.8C66.3,9.1,66.8,9,67.3,9c0.5,0,1,0.1,1.3,0.2V10.6z"/>
	<path class="st1" d="M75.6,23.9c0.2,0.2,0.4,0.3,0.7,0.5c0.3,0.1,0.5,0.2,0.8,0.3c0.3,0.1,0.5,0.2,0.8,0.2c0.3,0,0.5,0.1,0.8,0.1
		c1.7,0,2.5-0.6,2.5-1.9c0-0.3-0.1-0.5-0.2-0.7c-0.1-0.2-0.3-0.4-0.5-0.6c-0.2-0.2-0.5-0.3-0.8-0.5c-0.3-0.1-0.7-0.3-1.1-0.5
		c-0.5-0.2-1-0.4-1.4-0.7c-0.4-0.2-0.7-0.5-0.9-0.7c-0.2-0.3-0.4-0.5-0.5-0.9c-0.1-0.3-0.2-0.7-0.2-1.1c0-0.5,0.1-0.9,0.3-1.3
		c0.2-0.4,0.5-0.7,0.9-1c0.4-0.3,0.8-0.5,1.3-0.6c0.5-0.1,1-0.2,1.5-0.2c1,0,1.8,0.2,2.6,0.6v1.5c-0.9-0.5-1.8-0.8-2.8-0.8
		c-0.4,0-0.7,0-1,0.1c-0.3,0.1-0.5,0.2-0.8,0.4c-0.2,0.2-0.4,0.4-0.5,0.6c-0.1,0.2-0.2,0.5-0.2,0.7c0,0.3,0,0.5,0.1,0.7
		c0.1,0.2,0.2,0.4,0.4,0.6c0.2,0.2,0.4,0.3,0.7,0.5s0.7,0.3,1.1,0.5c0.5,0.2,1,0.4,1.4,0.7c0.4,0.2,0.7,0.5,1,0.7s0.5,0.5,0.6,0.8
		c0.1,0.3,0.2,0.7,0.2,1.1c0,0.5-0.1,1-0.3,1.4s-0.5,0.7-0.9,1c-0.4,0.3-0.8,0.5-1.3,0.6c-0.5,0.1-1.1,0.2-1.6,0.2
		c-1.2,0-2.1-0.2-2.9-0.7V23.9z"/>
	<path class="st1" d="M90.1,26.2c-0.8,0-1.6-0.1-2.3-0.4s-1.2-0.7-1.7-1.2c-0.5-0.5-0.8-1.1-1.1-1.8c-0.3-0.7-0.4-1.5-0.4-2.4
		c0-0.9,0.1-1.8,0.4-2.5c0.3-0.7,0.6-1.4,1.1-1.9c0.5-0.5,1.1-0.9,1.8-1.2c0.7-0.3,1.5-0.4,2.3-0.4c0.8,0,1.6,0.1,2.2,0.4
		c0.7,0.3,1.2,0.7,1.7,1.2c0.5,0.5,0.8,1.1,1.1,1.8c0.2,0.7,0.4,1.6,0.4,2.5c0,0.9-0.1,1.7-0.4,2.4c-0.3,0.7-0.6,1.3-1.1,1.9
		c-0.5,0.5-1.1,0.9-1.7,1.2C91.8,26.1,91,26.2,90.1,26.2z M90.3,15.6c-0.6,0-1.2,0.1-1.7,0.3c-0.5,0.2-0.9,0.5-1.3,0.9
		c-0.4,0.4-0.6,0.9-0.8,1.5c-0.2,0.6-0.3,1.3-0.3,2c0,0.7,0.1,1.3,0.3,1.9c0.2,0.6,0.5,1,0.8,1.5c0.4,0.4,0.8,0.7,1.3,0.9
		s1.1,0.3,1.7,0.3c0.6,0,1.2-0.1,1.7-0.3c0.5-0.2,0.9-0.5,1.2-0.9c0.3-0.4,0.6-0.9,0.8-1.5c0.2-0.6,0.3-1.2,0.3-2
		c0-1.5-0.3-2.7-1-3.5C92.5,16,91.5,15.6,90.3,15.6z"/>
	<path class="st1" d="M104.2,16.1c-0.3-0.2-0.8-0.4-1.3-0.4c-0.4,0-0.7,0.1-1,0.2c-0.3,0.1-0.5,0.3-0.8,0.6
		c-0.2,0.2-0.4,0.5-0.6,0.8c-0.2,0.3-0.3,0.7-0.4,1c-0.1,0.3-0.2,0.7-0.2,1c0,0.4-0.1,0.7-0.1,1v5.5h-1.4V14.7h1.4v2.4h0
		c0.1-0.4,0.3-0.8,0.5-1.1c0.2-0.3,0.4-0.6,0.7-0.8c0.3-0.2,0.6-0.4,0.9-0.5c0.3-0.1,0.6-0.2,1-0.2c0.2,0,0.4,0,0.6,0
		s0.3,0.1,0.5,0.1V16.1z"/>
	<path class="st1" d="M111.8,25.8c-0.5,0.2-1,0.4-1.6,0.4c-1.8,0-2.8-1-2.8-3.1v-7.1h-2v-1.2h2v-2.8l1.4-0.5v3.3h2.9v1.2h-2.9v6.9
		c0,0.8,0.1,1.3,0.4,1.7c0.3,0.3,0.7,0.5,1.3,0.5c0.4,0,0.9-0.1,1.3-0.4V25.8z"/>
	<path class="st1" d="M112.3,29v-1.1h9.5V29H112.3z"/>
	<path class="st1" d="M131.3,25.9v-6.5c0-2.5-0.9-3.8-2.8-3.8c-0.5,0-1,0.1-1.4,0.3c-0.4,0.2-0.8,0.5-1.1,0.8
		c-0.3,0.3-0.5,0.8-0.7,1.2c-0.2,0.5-0.3,1-0.3,1.5v6.5h-1.4V14.7h1.4v2h0c0.8-1.5,2.1-2.2,3.8-2.2c1.2,0,2.2,0.4,2.8,1.2
		c0.7,0.8,1,2,1,3.5v6.9H131.3z"/>
	<path class="st1" d="M143.6,25.9V24h0c-0.8,1.5-2,2.2-3.6,2.2c-2.7,0-4.1-1.6-4.1-4.9v-6.6h1.4V21c0,1.4,0.2,2.3,0.7,3
		c0.5,0.6,1.2,1,2.2,1c0.5,0,0.9-0.1,1.3-0.3c0.4-0.2,0.8-0.5,1-0.8s0.5-0.8,0.7-1.2c0.2-0.5,0.2-1,0.2-1.6v-6.4h1.4v11.3H143.6z"/>
	<path class="st1" d="M163,25.9v-6.6c0-0.7-0.1-1.2-0.2-1.7c-0.1-0.5-0.3-0.8-0.5-1.1c-0.2-0.3-0.5-0.5-0.8-0.6
		c-0.3-0.1-0.7-0.2-1.2-0.2c-0.4,0-0.8,0.1-1.2,0.3c-0.4,0.2-0.7,0.5-1,0.8c-0.3,0.3-0.5,0.7-0.7,1.2c-0.2,0.5-0.2,1-0.2,1.5v6.5
		h-1.4v-6.8c0-2.4-0.9-3.5-2.7-3.5c-0.4,0-0.8,0.1-1.2,0.3c-0.4,0.2-0.7,0.4-1,0.8c-0.3,0.3-0.5,0.7-0.6,1.2c-0.2,0.5-0.2,1-0.2,1.6
		v6.5h-1.4V14.7h1.4v1.8h0c0.8-1.4,2-2.1,3.5-2.1c0.4,0,0.8,0.1,1.1,0.2c0.4,0.1,0.7,0.3,1,0.5c0.3,0.2,0.5,0.5,0.7,0.8
		c0.2,0.3,0.4,0.6,0.5,1c0.4-0.8,0.9-1.4,1.6-1.8c0.6-0.4,1.4-0.6,2.2-0.6c2.5,0,3.7,1.5,3.7,4.6v7H163z"/>
	<path class="st1" d="M167.3,23.9c0.2,0.2,0.4,0.3,0.7,0.5c0.3,0.1,0.5,0.2,0.8,0.3c0.3,0.1,0.5,0.2,0.8,0.2c0.3,0,0.5,0.1,0.8,0.1
		c1.7,0,2.5-0.6,2.5-1.9c0-0.3-0.1-0.5-0.2-0.7c-0.1-0.2-0.3-0.4-0.5-0.6c-0.2-0.2-0.5-0.3-0.8-0.5c-0.3-0.1-0.7-0.3-1.1-0.5
		c-0.5-0.2-1-0.4-1.4-0.7c-0.4-0.2-0.7-0.5-0.9-0.7c-0.2-0.3-0.4-0.5-0.5-0.9c-0.1-0.3-0.2-0.7-0.2-1.1c0-0.5,0.1-0.9,0.3-1.3
		c0.2-0.4,0.5-0.7,0.9-1c0.4-0.3,0.8-0.5,1.3-0.6c0.5-0.1,1-0.2,1.5-0.2c1,0,1.8,0.2,2.6,0.6v1.5c-0.9-0.5-1.8-0.8-2.8-0.8
		c-0.4,0-0.7,0-1,0.1c-0.3,0.1-0.5,0.2-0.8,0.4c-0.2,0.2-0.4,0.4-0.5,0.6c-0.1,0.2-0.2,0.5-0.2,0.7c0,0.3,0,0.5,0.1,0.7
		s0.2,0.4,0.4,0.6c0.2,0.2,0.4,0.3,0.7,0.5s0.7,0.3,1.1,0.5c0.5,0.2,1,0.4,1.4,0.7c0.4,0.2,0.7,0.5,1,0.7c0.3,0.3,0.5,0.5,0.6,0.8
		c0.1,0.3,0.2,0.7,0.2,1.1c0,0.5-0.1,1-0.3,1.4c-0.2,0.4-0.5,0.7-0.9,1c-0.4,0.3-0.8,0.5-1.3,0.6c-0.5,0.1-1.1,0.2-1.6,0.2
		c-1.2,0-2.1-0.2-2.9-0.7V23.9z"/>
	<path class="st1" d="M180.3,29.5c-2.3-2.6-3.4-5.8-3.4-9.6c0-3.9,1.1-7.2,3.4-9.8h1.4c-2.3,2.7-3.5,6-3.5,9.8
		c0,3.7,1.2,6.9,3.4,9.6H180.3z"/>
	<path class="st1" d="M191.5,25.9v-6.5c0-2.5-0.9-3.8-2.8-3.8c-0.5,0-1,0.1-1.4,0.3c-0.4,0.2-0.8,0.5-1.1,0.8
		c-0.3,0.3-0.5,0.8-0.7,1.2c-0.2,0.5-0.3,1-0.3,1.5v6.5h-1.4V14.7h1.4v2h0c0.8-1.5,2.1-2.2,3.8-2.2c1.2,0,2.2,0.4,2.8,1.2
		c0.7,0.8,1,2,1,3.5v6.9H191.5z"/>
	<path class="st1" d="M203.8,25.9V24h0c-0.8,1.5-2,2.2-3.6,2.2c-2.7,0-4.1-1.6-4.1-4.9v-6.6h1.4V21c0,1.4,0.2,2.3,0.7,3
		c0.5,0.6,1.2,1,2.2,1c0.5,0,0.9-0.1,1.3-0.3c0.4-0.2,0.8-0.5,1-0.8s0.5-0.8,0.7-1.2c0.2-0.5,0.2-1,0.2-1.6v-6.4h1.4v11.3H203.8z"/>
	<path class="st1" d="M223.2,25.9v-6.6c0-0.7-0.1-1.2-0.2-1.7c-0.1-0.5-0.3-0.8-0.5-1.1c-0.2-0.3-0.5-0.5-0.8-0.6
		c-0.3-0.1-0.7-0.2-1.2-0.2c-0.4,0-0.8,0.1-1.2,0.3c-0.4,0.2-0.7,0.5-1,0.8s-0.5,0.7-0.7,1.2c-0.2,0.5-0.2,1-0.2,1.5v6.5h-1.4v-6.8
		c0-2.4-0.9-3.5-2.7-3.5c-0.4,0-0.8,0.1-1.2,0.3c-0.4,0.2-0.7,0.4-1,0.8c-0.3,0.3-0.5,0.7-0.6,1.2c-0.2,0.5-0.2,1-0.2,1.6v6.5h-1.4
		V14.7h1.4v1.8h0c0.8-1.4,2-2.1,3.5-2.1c0.4,0,0.8,0.1,1.1,0.2c0.4,0.1,0.7,0.3,1,0.5c0.3,0.2,0.5,0.5,0.7,0.8
		c0.2,0.3,0.4,0.6,0.5,1c0.4-0.8,0.9-1.4,1.6-1.8c0.6-0.4,1.4-0.6,2.2-0.6c2.5,0,3.7,1.5,3.7,4.6v7H223.2z"/>
	<path class="st1" d="M227.4,23.9c0.2,0.2,0.4,0.3,0.7,0.5c0.3,0.1,0.5,0.2,0.8,0.3c0.3,0.1,0.5,0.2,0.8,0.2c0.3,0,0.5,0.1,0.8,0.1
		c1.7,0,2.5-0.6,2.5-1.9c0-0.3-0.1-0.5-0.2-0.7c-0.1-0.2-0.3-0.4-0.5-0.6s-0.5-0.3-0.8-0.5c-0.3-0.1-0.7-0.3-1.1-0.5
		c-0.5-0.2-1-0.4-1.4-0.7c-0.4-0.2-0.7-0.5-0.9-0.7c-0.2-0.3-0.4-0.5-0.5-0.9c-0.1-0.3-0.2-0.7-0.2-1.1c0-0.5,0.1-0.9,0.3-1.3
		c0.2-0.4,0.5-0.7,0.9-1c0.4-0.3,0.8-0.5,1.3-0.6c0.5-0.1,1-0.2,1.5-0.2c1,0,1.8,0.2,2.6,0.6v1.5c-0.9-0.5-1.8-0.8-2.8-0.8
		c-0.4,0-0.7,0-1,0.1c-0.3,0.1-0.5,0.2-0.8,0.4c-0.2,0.2-0.4,0.4-0.5,0.6c-0.1,0.2-0.2,0.5-0.2,0.7c0,0.3,0,0.5,0.1,0.7
		s0.2,0.4,0.4,0.6c0.2,0.2,0.4,0.3,0.7,0.5s0.7,0.3,1.1,0.5c0.5,0.2,1,0.4,1.4,0.7c0.4,0.2,0.7,0.5,1,0.7c0.3,0.3,0.5,0.5,0.6,0.8
		c0.1,0.3,0.2,0.7,0.2,1.1c0,0.5-0.1,1-0.3,1.4c-0.2,0.4-0.5,0.7-0.9,1c-0.4,0.3-0.8,0.5-1.3,0.6c-0.5,0.1-1.1,0.2-1.6,0.2
		c-1.1,0-2.1-0.2-2.9-0.7V23.9z"/>
	<path class="st1" d="M235.8,29.5c2.3-2.7,3.4-6,3.4-9.6c0-3.8-1.2-7-3.5-9.8h1.4c2.3,2.6,3.4,5.9,3.4,9.8c0,3.8-1.1,7-3.4,9.6
		H235.8z"/>
	<path class="st1" d="M244.6,16.6c-0.1,0-0.3,0-0.4-0.1c-0.1-0.1-0.2-0.1-0.3-0.2c-0.1-0.1-0.2-0.2-0.2-0.3
		c-0.1-0.1-0.1-0.3-0.1-0.4c0-0.3,0.1-0.5,0.3-0.7c0.2-0.2,0.5-0.3,0.8-0.3c0.1,0,0.3,0,0.4,0.1c0.1,0.1,0.2,0.1,0.3,0.2
		c0.1,0.1,0.2,0.2,0.2,0.3c0.1,0.1,0.1,0.3,0.1,0.4c0,0.2,0,0.3-0.1,0.4c-0.1,0.1-0.1,0.2-0.2,0.3c-0.1,0.1-0.2,0.2-0.3,0.2
		C244.9,16.5,244.8,16.6,244.6,16.6z M244.6,26.2c-0.3,0-0.5-0.1-0.8-0.3c-0.2-0.2-0.3-0.5-0.3-0.7c0-0.3,0.1-0.6,0.3-0.8
		c0.2-0.2,0.5-0.3,0.8-0.3c0.1,0,0.3,0,0.4,0.1c0.1,0.1,0.2,0.1,0.3,0.2c0.1,0.1,0.2,0.2,0.2,0.3c0.1,0.1,0.1,0.3,0.1,0.4
		c0,0.1,0,0.3-0.1,0.4c-0.1,0.1-0.1,0.2-0.2,0.3c-0.1,0.1-0.2,0.2-0.3,0.2C244.9,26.1,244.8,26.2,244.6,26.2z"/>
	<path class="st1" d="M68.8,44.4c-0.3-0.2-0.7-0.3-1.2-0.3c-1.3,0-2,0.9-2,2.6v1.8h2.8v1.2h-2.8v10h-1.4v-10h-2v-1.2h2v-1.9
		c0-0.6,0.1-1.1,0.2-1.5c0.1-0.5,0.4-0.9,0.6-1.2c0.3-0.3,0.6-0.6,1.1-0.8c0.4-0.2,0.9-0.3,1.5-0.3c0.5,0,1,0.1,1.3,0.2V44.4z"/>
	<path class="st1" d="M74.8,60c-0.8,0-1.6-0.1-2.3-0.4s-1.2-0.7-1.7-1.2c-0.5-0.5-0.8-1.1-1.1-1.8c-0.3-0.7-0.4-1.5-0.4-2.4
		c0-0.9,0.1-1.8,0.4-2.5c0.3-0.7,0.6-1.4,1.1-1.9c0.5-0.5,1.1-0.9,1.8-1.2c0.7-0.3,1.5-0.4,2.3-0.4c0.8,0,1.6,0.1,2.2,0.4
		c0.7,0.3,1.2,0.7,1.7,1.2c0.5,0.5,0.8,1.1,1.1,1.8c0.2,0.7,0.4,1.6,0.4,2.5c0,0.9-0.1,1.7-0.4,2.4c-0.3,0.7-0.6,1.3-1.1,1.9
		c-0.5,0.5-1.1,0.9-1.7,1.2C76.5,59.9,75.7,60,74.8,60z M74.9,49.4c-0.6,0-1.2,0.1-1.7,0.3s-0.9,0.5-1.3,0.9
		c-0.4,0.4-0.6,0.9-0.8,1.5c-0.2,0.6-0.3,1.3-0.3,2c0,0.7,0.1,1.3,0.3,1.9c0.2,0.6,0.5,1,0.8,1.5c0.4,0.4,0.8,0.7,1.3,0.9
		c0.5,0.2,1.1,0.3,1.7,0.3c0.6,0,1.2-0.1,1.7-0.3c0.5-0.2,0.9-0.5,1.2-0.9c0.3-0.4,0.6-0.9,0.8-1.5c0.2-0.6,0.3-1.2,0.3-2
		c0-1.5-0.3-2.7-1-3.5C77.2,49.9,76.2,49.4,74.9,49.4z"/>
	<path class="st1" d="M88.9,49.9c-0.3-0.2-0.8-0.4-1.3-0.4c-0.4,0-0.7,0.1-1,0.2c-0.3,0.1-0.5,0.3-0.8,0.6c-0.2,0.2-0.4,0.5-0.6,0.8
		c-0.2,0.3-0.3,0.7-0.4,1c-0.1,0.3-0.2,0.7-0.2,1c0,0.4-0.1,0.7-0.1,1v5.5h-1.4V48.5h1.4v2.4h0c0.1-0.4,0.3-0.8,0.5-1.1
		c0.2-0.3,0.4-0.6,0.7-0.8c0.3-0.2,0.6-0.4,0.9-0.5c0.3-0.1,0.6-0.2,1-0.2c0.2,0,0.4,0,0.6,0s0.3,0.1,0.5,0.1V49.9z"/>
	<path class="st1" d="M97.9,45.6c-0.3,0-0.5-0.1-0.7-0.3c-0.2-0.2-0.3-0.4-0.3-0.7c0-0.3,0.1-0.5,0.3-0.7c0.2-0.2,0.4-0.3,0.7-0.3
		c0.1,0,0.3,0,0.4,0.1c0.1,0,0.2,0.1,0.3,0.2c0.1,0.1,0.2,0.2,0.2,0.3c0.1,0.1,0.1,0.3,0.1,0.4c0,0.1,0,0.3-0.1,0.4
		c-0.1,0.1-0.1,0.2-0.2,0.3c-0.1,0.1-0.2,0.2-0.3,0.2C98.2,45.6,98,45.6,97.9,45.6z M97.2,59.8V48.5h1.4v11.3H97.2z"/>
	<path class="st1" d="M109.2,45.6c-0.3,0-0.5-0.1-0.7-0.3c-0.2-0.2-0.3-0.4-0.3-0.7c0-0.3,0.1-0.5,0.3-0.7c0.2-0.2,0.4-0.3,0.7-0.3
		c0.1,0,0.3,0,0.4,0.1c0.1,0,0.2,0.1,0.3,0.2c0.1,0.1,0.2,0.2,0.2,0.3c0.1,0.1,0.1,0.3,0.1,0.4c0,0.1,0,0.3-0.1,0.4
		c-0.1,0.1-0.1,0.2-0.2,0.3c-0.1,0.1-0.2,0.2-0.3,0.2C109.5,45.6,109.4,45.6,109.2,45.6z M108.5,59.8V48.5h1.4v11.3H108.5z"/>
	<path class="st1" d="M121.3,59.8v-6.5c0-2.5-0.9-3.8-2.8-3.8c-0.5,0-1,0.1-1.4,0.3c-0.4,0.2-0.8,0.5-1.1,0.8
		c-0.3,0.3-0.5,0.8-0.7,1.2c-0.2,0.5-0.3,1-0.3,1.5v6.5h-1.4V48.5h1.4v2h0c0.8-1.5,2.1-2.2,3.8-2.2c1.2,0,2.2,0.4,2.8,1.2
		c0.7,0.8,1,2,1,3.5v6.9H121.3z"/>
	<path class="st1" d="M138.1,49.9c-0.3-0.2-0.8-0.4-1.3-0.4c-0.4,0-0.7,0.1-1,0.2c-0.3,0.1-0.5,0.3-0.8,0.6
		c-0.2,0.2-0.4,0.5-0.6,0.8c-0.2,0.3-0.3,0.7-0.4,1c-0.1,0.3-0.2,0.7-0.2,1c0,0.4-0.1,0.7-0.1,1v5.5h-1.4V48.5h1.4v2.4h0
		c0.1-0.4,0.3-0.8,0.5-1.1c0.2-0.3,0.4-0.6,0.7-0.8c0.3-0.2,0.6-0.4,0.9-0.5c0.3-0.1,0.6-0.2,1-0.2c0.2,0,0.4,0,0.6,0
		c0.2,0,0.3,0.1,0.5,0.1V49.9z"/>
	<path class="st1" d="M146.7,59.8v-2h0c-0.4,0.7-0.9,1.3-1.5,1.7c-0.6,0.4-1.4,0.6-2.2,0.6c-0.5,0-1-0.1-1.5-0.2s-0.8-0.4-1.1-0.7
		c-0.3-0.3-0.5-0.6-0.7-1c-0.2-0.4-0.3-0.8-0.3-1.3c0-1,0.3-1.8,1-2.4c0.6-0.6,1.6-1,2.9-1.2l3.5-0.5c0-2.2-0.8-3.2-2.5-3.2
		c-1.3,0-2.6,0.5-3.7,1.4v-1.5c0.2-0.2,0.5-0.3,0.8-0.5c0.3-0.1,0.6-0.3,1-0.4c0.3-0.1,0.7-0.2,1-0.2c0.4-0.1,0.7-0.1,1-0.1
		c1.3,0,2.2,0.4,2.9,1.1c0.6,0.7,1,1.8,1,3.1v7.3H146.7z M143.8,54.3c-0.5,0.1-0.9,0.2-1.3,0.3c-0.4,0.1-0.7,0.3-0.9,0.4
		c-0.2,0.2-0.4,0.4-0.5,0.7c-0.1,0.3-0.2,0.6-0.2,1c0,0.3,0.1,0.6,0.2,0.8c0.1,0.3,0.3,0.5,0.5,0.7c0.2,0.2,0.5,0.3,0.7,0.4
		s0.6,0.2,1,0.2c0.5,0,1-0.1,1.4-0.3c0.4-0.2,0.8-0.5,1.1-0.8c0.3-0.3,0.5-0.7,0.7-1.2c0.2-0.5,0.3-1,0.3-1.5v-1.1L143.8,54.3z"/>
	<path class="st1" d="M159.2,59.8v-6.5c0-2.5-0.9-3.8-2.8-3.8c-0.5,0-1,0.1-1.4,0.3c-0.4,0.2-0.8,0.5-1.1,0.8
		c-0.3,0.3-0.5,0.8-0.7,1.2c-0.2,0.5-0.3,1-0.3,1.5v6.5h-1.4V48.5h1.4v2h0c0.8-1.5,2.1-2.2,3.8-2.2c1.2,0,2.2,0.4,2.8,1.2
		c0.7,0.8,1,2,1,3.5v6.9H159.2z"/>
	<path class="st1" d="M173.5,58.9c0,2.1-0.5,3.6-1.4,4.7c-1,1-2.4,1.5-4.4,1.5c-1.2,0-2.4-0.3-3.5-0.8v-1.4c1.2,0.7,2.4,1,3.5,1
		c3,0,4.5-1.6,4.5-4.7v-1.4h0c-0.9,1.5-2.2,2.2-4,2.2c-0.7,0-1.3-0.1-1.9-0.4c-0.6-0.3-1.1-0.6-1.5-1.1c-0.4-0.5-0.7-1.1-1-1.8
		c-0.2-0.7-0.3-1.5-0.3-2.4c0-0.9,0.1-1.8,0.4-2.5c0.2-0.8,0.6-1.4,1-2c0.5-0.5,1-1,1.6-1.3c0.6-0.3,1.4-0.4,2.2-0.4
		c1.6,0,2.8,0.6,3.5,1.9h0v-1.7h1.4V58.9z M172.1,52.9c0-0.5-0.1-0.9-0.3-1.3c-0.2-0.4-0.4-0.8-0.7-1.1c-0.3-0.3-0.7-0.6-1.1-0.8
		c-0.4-0.2-0.9-0.3-1.4-0.3c-0.6,0-1.1,0.1-1.6,0.3c-0.5,0.2-0.9,0.6-1.2,1c-0.3,0.4-0.6,0.9-0.8,1.5c-0.2,0.6-0.3,1.3-0.3,2
		c0,0.7,0.1,1.3,0.3,1.9c0.2,0.6,0.4,1,0.7,1.4c0.3,0.4,0.7,0.7,1.1,0.9c0.4,0.2,0.9,0.3,1.5,0.3c0.6,0,1.1-0.1,1.5-0.3
		c0.5-0.2,0.9-0.5,1.2-0.8c0.3-0.4,0.6-0.8,0.8-1.3c0.2-0.5,0.3-1,0.3-1.6V52.9z"/>
	<path class="st1" d="M177.9,54.4c0,0.7,0.1,1.3,0.3,1.9c0.2,0.6,0.4,1,0.8,1.4c0.3,0.4,0.7,0.7,1.2,0.9c0.5,0.2,1,0.3,1.6,0.3
		c1.3,0,2.5-0.4,3.6-1.3v1.4c-1.1,0.8-2.4,1.2-4,1.2c-0.8,0-1.5-0.1-2.1-0.4c-0.6-0.3-1.2-0.6-1.6-1.2s-0.8-1.1-1-1.9
		c-0.2-0.7-0.4-1.6-0.4-2.5c0-0.8,0.1-1.6,0.4-2.3c0.3-0.7,0.6-1.3,1.1-1.9c0.5-0.5,1-0.9,1.6-1.2c0.6-0.3,1.3-0.4,2.1-0.4
		c0.7,0,1.4,0.1,1.9,0.4c0.6,0.3,1,0.6,1.4,1.1c0.4,0.5,0.7,1,0.9,1.7c0.2,0.7,0.3,1.4,0.3,2.3v0.7H177.9z M184.6,53.1
		c0-1.2-0.3-2.1-0.8-2.7c-0.5-0.6-1.3-1-2.3-1c-0.5,0-0.9,0.1-1.3,0.3c-0.4,0.2-0.8,0.4-1.1,0.7c-0.3,0.3-0.6,0.7-0.8,1.2
		c-0.2,0.5-0.3,1-0.4,1.5H184.6z"/>
	<path class="st1" d="M192.1,63.4c-2.3-2.6-3.4-5.8-3.4-9.6c0-3.9,1.1-7.2,3.4-9.8h1.4c-2.3,2.7-3.5,6-3.5,9.8
		c0,3.7,1.2,6.9,3.4,9.6H192.1z"/>
	<path class="st1" d="M195.5,59.8V43.1h1.4v16.7H195.5z"/>
	<path class="st1" d="M201.3,54.4c0,0.7,0.1,1.3,0.3,1.9c0.2,0.6,0.4,1,0.8,1.4c0.3,0.4,0.7,0.7,1.2,0.9c0.5,0.2,1,0.3,1.6,0.3
		c1.3,0,2.5-0.4,3.6-1.3v1.4c-1.1,0.8-2.4,1.2-4,1.2c-0.8,0-1.5-0.1-2.1-0.4c-0.6-0.3-1.2-0.6-1.6-1.2s-0.8-1.1-1-1.9
		c-0.2-0.7-0.4-1.6-0.4-2.5c0-0.8,0.1-1.6,0.4-2.3c0.3-0.7,0.6-1.3,1.1-1.9c0.5-0.5,1-0.9,1.6-1.2c0.6-0.3,1.3-0.4,2.1-0.4
		c0.7,0,1.4,0.1,1.9,0.4c0.6,0.3,1,0.6,1.4,1.1c0.4,0.5,0.7,1,0.9,1.7c0.2,0.7,0.3,1.4,0.3,2.3v0.7H201.3z M208.1,53.1
		c0-1.2-0.3-2.1-0.8-2.7c-0.5-0.6-1.3-1-2.3-1c-0.5,0-0.9,0.1-1.3,0.3c-0.4,0.2-0.8,0.4-1.1,0.7c-0.3,0.3-0.6,0.7-0.8,1.2
		c-0.2,0.5-0.3,1-0.4,1.5H208.1z"/>
	<path class="st1" d="M220,59.8v-6.5c0-2.5-0.9-3.8-2.8-3.8c-0.5,0-1,0.1-1.4,0.3c-0.4,0.2-0.8,0.5-1.1,0.8s-0.5,0.8-0.7,1.2
		c-0.2,0.5-0.3,1-0.3,1.5v6.5h-1.4V48.5h1.4v2h0c0.8-1.5,2.1-2.2,3.8-2.2c1.2,0,2.2,0.4,2.8,1.2c0.7,0.8,1,2,1,3.5v6.9H220z"/>
	<path class="st1" d="M228.1,63.4c-2.3-2.6-3.4-5.8-3.4-9.6c0-3.9,1.1-7.2,3.4-9.8h1.4c-2.3,2.7-3.5,6-3.5,9.8
		c0,3.7,1.1,6.9,3.4,9.6H228.1z"/>
	<path class="st1" d="M239.2,59.8v-6.5c0-2.5-0.9-3.8-2.8-3.8c-0.5,0-1,0.1-1.4,0.3c-0.4,0.2-0.8,0.5-1.1,0.8
		c-0.3,0.3-0.5,0.8-0.7,1.2c-0.2,0.5-0.3,1-0.3,1.5v6.5h-1.4V48.5h1.4v2h0c0.8-1.5,2.1-2.2,3.8-2.2c1.2,0,2.2,0.4,2.8,1.2
		c0.7,0.8,1,2,1,3.5v6.9H239.2z"/>
	<path class="st1" d="M251.5,59.8v-1.9h0c-0.8,1.5-2,2.2-3.6,2.2c-2.7,0-4.1-1.6-4.1-4.9v-6.6h1.4v6.4c0,1.4,0.2,2.3,0.7,3
		c0.5,0.6,1.2,1,2.2,1c0.5,0,0.9-0.1,1.3-0.3c0.4-0.2,0.8-0.5,1-0.8c0.3-0.3,0.5-0.8,0.7-1.2c0.2-0.5,0.2-1,0.2-1.6v-6.4h1.4v11.3
		H251.5z"/>
	<path class="st1" d="M271,59.8v-6.6c0-0.7-0.1-1.2-0.2-1.7c-0.1-0.5-0.3-0.8-0.5-1.1c-0.2-0.3-0.5-0.5-0.8-0.6
		c-0.3-0.1-0.7-0.2-1.2-0.2c-0.4,0-0.8,0.1-1.2,0.3c-0.4,0.2-0.7,0.5-1,0.8c-0.3,0.3-0.5,0.7-0.7,1.2c-0.2,0.5-0.2,1-0.2,1.5v6.5
		h-1.4V53c0-2.4-0.9-3.5-2.7-3.5c-0.4,0-0.8,0.1-1.2,0.3c-0.4,0.2-0.7,0.4-1,0.8c-0.3,0.3-0.5,0.7-0.6,1.2c-0.2,0.5-0.2,1-0.2,1.6
		v6.5h-1.4V48.5h1.4v1.8h0c0.8-1.4,2-2.1,3.5-2.1c0.4,0,0.8,0.1,1.1,0.2c0.4,0.1,0.7,0.3,1,0.5s0.5,0.5,0.7,0.8
		c0.2,0.3,0.4,0.6,0.5,1c0.4-0.8,0.9-1.4,1.6-1.8c0.6-0.4,1.4-0.6,2.2-0.6c2.5,0,3.7,1.5,3.7,4.6v7H271z"/>
	<path class="st1" d="M275.2,57.7c0.2,0.2,0.4,0.3,0.7,0.5c0.3,0.1,0.5,0.2,0.8,0.3c0.3,0.1,0.5,0.2,0.8,0.2c0.3,0,0.5,0.1,0.8,0.1
		c1.7,0,2.5-0.6,2.5-1.9c0-0.3-0.1-0.5-0.2-0.7c-0.1-0.2-0.3-0.4-0.5-0.6c-0.2-0.2-0.5-0.3-0.8-0.5c-0.3-0.1-0.7-0.3-1.1-0.5
		c-0.5-0.2-1-0.4-1.4-0.7c-0.4-0.2-0.7-0.5-0.9-0.7c-0.2-0.3-0.4-0.5-0.5-0.9c-0.1-0.3-0.2-0.7-0.2-1.1c0-0.5,0.1-0.9,0.3-1.3
		c0.2-0.4,0.5-0.7,0.9-1c0.4-0.3,0.8-0.5,1.3-0.6c0.5-0.1,1-0.2,1.5-0.2c1,0,1.8,0.2,2.6,0.6v1.5c-0.9-0.5-1.8-0.8-2.8-0.8
		c-0.4,0-0.7,0-1,0.1c-0.3,0.1-0.5,0.2-0.8,0.4c-0.2,0.2-0.4,0.4-0.5,0.6c-0.1,0.2-0.2,0.5-0.2,0.7c0,0.3,0,0.5,0.1,0.7
		c0.1,0.2,0.2,0.4,0.4,0.6c0.2,0.2,0.4,0.3,0.7,0.5c0.3,0.2,0.7,0.3,1.1,0.5c0.5,0.2,1,0.4,1.4,0.7c0.4,0.2,0.7,0.5,1,0.7
		c0.3,0.3,0.5,0.5,0.6,0.8c0.1,0.3,0.2,0.7,0.2,1.1c0,0.5-0.1,1-0.3,1.4c-0.2,0.4-0.5,0.7-0.9,1c-0.4,0.3-0.8,0.5-1.3,0.6
		c-0.5,0.1-1.1,0.2-1.6,0.2c-1.1,0-2.1-0.2-2.9-0.7V57.7z"/>
	<path class="st1" d="M283.5,63.4c2.3-2.7,3.4-6,3.4-9.6c0-3.8-1.2-7-3.5-9.8h1.4c2.3,2.6,3.4,5.9,3.4,9.8c0,3.8-1.1,7-3.4,9.6
		H283.5z"/>
	<path class="st1" d="M290.2,63.4c2.3-2.7,3.4-6,3.4-9.6c0-3.8-1.2-7-3.5-9.8h1.4c2.3,2.6,3.4,5.9,3.4,9.8c0,3.8-1.1,7-3.4,9.6
		H290.2z"/>
	<path class="st1" d="M299,50.4c-0.1,0-0.3,0-0.4-0.1c-0.1-0.1-0.2-0.1-0.3-0.2c-0.1-0.1-0.2-0.2-0.2-0.3c-0.1-0.1-0.1-0.3-0.1-0.4
		c0-0.3,0.1-0.5,0.3-0.7c0.2-0.2,0.5-0.3,0.8-0.3c0.1,0,0.3,0,0.4,0.1c0.1,0.1,0.2,0.1,0.3,0.2c0.1,0.1,0.2,0.2,0.2,0.3
		c0.1,0.1,0.1,0.3,0.1,0.4s0,0.3-0.1,0.4c-0.1,0.1-0.1,0.2-0.2,0.3c-0.1,0.1-0.2,0.2-0.3,0.2C299.3,50.4,299.2,50.4,299,50.4z
		 M299,60c-0.3,0-0.5-0.1-0.8-0.3c-0.2-0.2-0.3-0.5-0.3-0.7c0-0.3,0.1-0.6,0.3-0.8c0.2-0.2,0.5-0.3,0.8-0.3c0.1,0,0.3,0,0.4,0.1
		c0.1,0.1,0.2,0.1,0.3,0.2c0.1,0.1,0.2,0.2,0.2,0.3c0.1,0.1,0.1,0.3,0.1,0.4c0,0.1,0,0.3-0.1,0.4c-0.1,0.1-0.1,0.2-0.2,0.3
		c-0.1,0.1-0.2,0.2-0.3,0.2C299.3,60,299.2,60,299,60z"/>
	<path class="st1" d="M96.1,93.6v-6.5c0-2.5-0.9-3.8-2.8-3.8c-0.5,0-1,0.1-1.4,0.3c-0.4,0.2-0.8,0.5-1.1,0.8
		c-0.3,0.3-0.5,0.8-0.7,1.2c-0.2,0.5-0.3,1-0.3,1.5v6.5h-1.4V82.3h1.4v2h0c0.8-1.5,2.1-2.2,3.8-2.2c1.2,0,2.2,0.4,2.8,1.2
		c0.7,0.8,1,2,1,3.5v6.9H96.1z"/>
	<path class="st1" d="M108.4,93.6v-1.9h0c-0.8,1.5-2,2.2-3.6,2.2c-2.7,0-4.1-1.6-4.1-4.9v-6.6h1.4v6.4c0,1.4,0.2,2.3,0.7,3
		c0.5,0.6,1.2,1,2.2,1c0.5,0,0.9-0.1,1.3-0.3c0.4-0.2,0.8-0.5,1-0.8c0.3-0.3,0.5-0.8,0.7-1.2c0.2-0.5,0.2-1,0.2-1.6v-6.4h1.4v11.3
		H108.4z"/>
	<path class="st1" d="M127.8,93.6V87c0-0.7-0.1-1.2-0.2-1.7c-0.1-0.5-0.3-0.8-0.5-1.1c-0.2-0.3-0.5-0.5-0.8-0.6
		c-0.3-0.1-0.7-0.2-1.2-0.2c-0.4,0-0.8,0.1-1.2,0.3c-0.4,0.2-0.7,0.5-1,0.8c-0.3,0.3-0.5,0.7-0.7,1.2c-0.2,0.5-0.2,1-0.2,1.5v6.5
		h-1.4v-6.8c0-2.4-0.9-3.5-2.7-3.5c-0.4,0-0.8,0.1-1.2,0.3c-0.4,0.2-0.7,0.4-1,0.8c-0.3,0.3-0.5,0.7-0.6,1.2c-0.2,0.5-0.2,1-0.2,1.6
		v6.5h-1.4V82.3h1.4v1.8h0c0.8-1.4,2-2.1,3.5-2.1c0.4,0,0.8,0.1,1.1,0.2c0.4,0.1,0.7,0.3,1,0.5c0.3,0.2,0.5,0.5,0.7,0.8
		c0.2,0.3,0.4,0.6,0.5,1c0.4-0.8,0.9-1.4,1.6-1.8c0.6-0.4,1.4-0.6,2.2-0.6c2.5,0,3.7,1.5,3.7,4.6v7H127.8z"/>
	<path class="st1" d="M132,91.6c0.2,0.2,0.4,0.3,0.7,0.5c0.3,0.1,0.5,0.2,0.8,0.3c0.3,0.1,0.5,0.2,0.8,0.2c0.3,0,0.5,0.1,0.8,0.1
		c1.7,0,2.5-0.6,2.5-1.9c0-0.3-0.1-0.5-0.2-0.7c-0.1-0.2-0.3-0.4-0.5-0.6c-0.2-0.2-0.5-0.3-0.8-0.5c-0.3-0.1-0.7-0.3-1.1-0.5
		c-0.5-0.2-1-0.4-1.4-0.7c-0.4-0.2-0.7-0.5-0.9-0.7c-0.2-0.3-0.4-0.5-0.5-0.9c-0.1-0.3-0.2-0.7-0.2-1.1c0-0.5,0.1-0.9,0.3-1.3
		s0.5-0.7,0.9-1c0.4-0.3,0.8-0.5,1.3-0.6c0.5-0.1,1-0.2,1.5-0.2c1,0,1.8,0.2,2.6,0.6v1.5c-0.9-0.5-1.8-0.8-2.8-0.8
		c-0.4,0-0.7,0-1,0.1c-0.3,0.1-0.5,0.2-0.8,0.4c-0.2,0.2-0.4,0.4-0.5,0.6c-0.1,0.2-0.2,0.5-0.2,0.7c0,0.3,0,0.5,0.1,0.7
		c0.1,0.2,0.2,0.4,0.4,0.6c0.2,0.2,0.4,0.3,0.7,0.5s0.7,0.3,1.1,0.5c0.5,0.2,1,0.4,1.4,0.7c0.4,0.2,0.7,0.5,1,0.7
		c0.3,0.3,0.5,0.5,0.6,0.8c0.1,0.3,0.2,0.7,0.2,1.1c0,0.5-0.1,1-0.3,1.4c-0.2,0.4-0.5,0.7-0.9,1c-0.4,0.3-0.8,0.5-1.3,0.6
		c-0.5,0.1-1.1,0.2-1.6,0.2c-1.2,0-2.1-0.2-2.9-0.7V91.6z"/>
	<path class="st1" d="M142.4,97.2V77.8h3.8v1.1h-2.5v17.1h2.5v1.1H142.4z"/>
	<path class="st1" d="M149.3,79.5c-0.3,0-0.5-0.1-0.7-0.3c-0.2-0.2-0.3-0.4-0.3-0.7c0-0.3,0.1-0.5,0.3-0.7c0.2-0.2,0.4-0.3,0.7-0.3
		c0.1,0,0.3,0,0.4,0.1c0.1,0,0.2,0.1,0.3,0.2c0.1,0.1,0.2,0.2,0.2,0.3c0.1,0.1,0.1,0.3,0.1,0.4c0,0.1,0,0.3-0.1,0.4
		c-0.1,0.1-0.1,0.2-0.2,0.3c-0.1,0.1-0.2,0.2-0.3,0.2C149.6,79.4,149.5,79.5,149.3,79.5z M148.6,93.6V82.3h1.4v11.3H148.6z"/>
	<path class="st1" d="M152.4,97.2v-1.1h2.5V78.9h-2.5v-1.1h3.8v19.4H152.4z"/>
	<path class="st1" d="M167.2,85.4v-1.2h10.3v1.2H167.2z M167.2,89.9v-1.2h10.3v1.2H167.2z"/>
	<path class="st1" d="M187.4,91.6c0.2,0.2,0.4,0.3,0.7,0.5c0.3,0.1,0.5,0.2,0.8,0.3c0.3,0.1,0.5,0.2,0.8,0.2c0.3,0,0.5,0.1,0.8,0.1
		c1.7,0,2.5-0.6,2.5-1.9c0-0.3-0.1-0.5-0.2-0.7c-0.1-0.2-0.3-0.4-0.5-0.6c-0.2-0.2-0.5-0.3-0.8-0.5c-0.3-0.1-0.7-0.3-1.1-0.5
		c-0.5-0.2-1-0.4-1.4-0.7c-0.4-0.2-0.7-0.5-0.9-0.7c-0.2-0.3-0.4-0.5-0.5-0.9s-0.2-0.7-0.2-1.1c0-0.5,0.1-0.9,0.3-1.3s0.5-0.7,0.9-1
		c0.4-0.3,0.8-0.5,1.3-0.6c0.5-0.1,1-0.2,1.5-0.2c1,0,1.8,0.2,2.6,0.6v1.5c-0.9-0.5-1.8-0.8-2.8-0.8c-0.4,0-0.7,0-1,0.1
		c-0.3,0.1-0.5,0.2-0.8,0.4c-0.2,0.2-0.4,0.4-0.5,0.6c-0.1,0.2-0.2,0.5-0.2,0.7c0,0.3,0,0.5,0.1,0.7c0.1,0.2,0.2,0.4,0.4,0.6
		c0.2,0.2,0.4,0.3,0.7,0.5s0.7,0.3,1.1,0.5c0.5,0.2,1,0.4,1.4,0.7c0.4,0.2,0.7,0.5,1,0.7c0.3,0.3,0.5,0.5,0.6,0.8
		c0.1,0.3,0.2,0.7,0.2,1.1c0,0.5-0.1,1-0.3,1.4s-0.5,0.7-0.9,1c-0.4,0.3-0.8,0.5-1.3,0.6c-0.5,0.1-1.1,0.2-1.6,0.2
		c-1.2,0-2.1-0.2-2.9-0.7V91.6z"/>
	<path class="st1" d="M202.2,93.5c-0.5,0.2-1,0.4-1.6,0.4c-1.8,0-2.8-1-2.8-3.1v-7.1h-2v-1.2h2v-2.8l1.4-0.5v3.3h2.9v1.2h-2.9v6.9
		c0,0.8,0.1,1.3,0.4,1.7c0.3,0.3,0.7,0.5,1.3,0.5c0.4,0,0.9-0.1,1.3-0.4V93.5z"/>
	<path class="st1" d="M210.2,83.8c-0.3-0.2-0.8-0.4-1.3-0.4c-0.4,0-0.7,0.1-1,0.2c-0.3,0.1-0.5,0.3-0.8,0.6
		c-0.2,0.2-0.4,0.5-0.6,0.8c-0.2,0.3-0.3,0.7-0.4,1c-0.1,0.3-0.2,0.7-0.2,1c0,0.4-0.1,0.7-0.1,1v5.5h-1.4V82.3h1.4v2.4h0
		c0.1-0.4,0.3-0.8,0.5-1.1c0.2-0.3,0.4-0.6,0.7-0.8c0.3-0.2,0.6-0.4,0.9-0.5c0.3-0.1,0.6-0.2,1-0.2c0.2,0,0.4,0,0.6,0
		c0.2,0,0.3,0.1,0.5,0.1V83.8z"/>
	<path class="st1" d="M215.5,97.2c-2.3-2.6-3.4-5.8-3.4-9.6c0-3.9,1.1-7.2,3.4-9.8h1.4c-2.3,2.7-3.5,6-3.5,9.8
		c0,3.7,1.1,6.9,3.4,9.6H215.5z"/>
	<path class="st1" d="M226.6,93.6v-6.5c0-2.5-0.9-3.8-2.8-3.8c-0.5,0-1,0.1-1.4,0.3c-0.4,0.2-0.8,0.5-1.1,0.8
		c-0.3,0.3-0.5,0.8-0.7,1.2c-0.2,0.5-0.3,1-0.3,1.5v6.5h-1.4V82.3h1.4v2h0c0.8-1.5,2.1-2.2,3.8-2.2c1.2,0,2.2,0.4,2.8,1.2s1,2,1,3.5
		v6.9H226.6z"/>
	<path class="st1" d="M238.9,93.6v-1.9h0c-0.8,1.5-2,2.2-3.6,2.2c-2.7,0-4.1-1.6-4.1-4.9v-6.6h1.4v6.4c0,1.4,0.2,2.3,0.7,3
		c0.5,0.6,1.2,1,2.2,1c0.5,0,0.9-0.1,1.3-0.3c0.4-0.2,0.8-0.5,1-0.8c0.3-0.3,0.5-0.8,0.7-1.2c0.2-0.5,0.2-1,0.2-1.6v-6.4h1.4v11.3
		H238.9z"/>
	<path class="st1" d="M258.3,93.6V87c0-0.7-0.1-1.2-0.2-1.7c-0.1-0.5-0.3-0.8-0.5-1.1c-0.2-0.3-0.5-0.5-0.8-0.6
		c-0.3-0.1-0.7-0.2-1.2-0.2c-0.4,0-0.8,0.1-1.2,0.3c-0.4,0.2-0.7,0.5-1,0.8c-0.3,0.3-0.5,0.7-0.7,1.2c-0.2,0.5-0.2,1-0.2,1.5v6.5
		h-1.4v-6.8c0-2.4-0.9-3.5-2.7-3.5c-0.4,0-0.8,0.1-1.2,0.3c-0.4,0.2-0.7,0.4-1,0.8c-0.3,0.3-0.5,0.7-0.6,1.2c-0.2,0.5-0.2,1-0.2,1.6
		v6.5H244V82.3h1.4v1.8h0c0.8-1.4,2-2.1,3.5-2.1c0.4,0,0.8,0.1,1.1,0.2c0.4,0.1,0.7,0.3,1,0.5c0.3,0.2,0.5,0.5,0.7,0.8
		c0.2,0.3,0.4,0.6,0.5,1c0.4-0.8,0.9-1.4,1.6-1.8c0.6-0.4,1.4-0.6,2.2-0.6c2.5,0,3.7,1.5,3.7,4.6v7H258.3z"/>
	<path class="st1" d="M262.5,91.6c0.2,0.2,0.4,0.3,0.7,0.5c0.3,0.1,0.5,0.2,0.8,0.3c0.3,0.1,0.5,0.2,0.8,0.2c0.3,0,0.5,0.1,0.8,0.1
		c1.7,0,2.5-0.6,2.5-1.9c0-0.3-0.1-0.5-0.2-0.7c-0.1-0.2-0.3-0.4-0.5-0.6c-0.2-0.2-0.5-0.3-0.8-0.5c-0.3-0.1-0.7-0.3-1.1-0.5
		c-0.5-0.2-1-0.4-1.4-0.7c-0.4-0.2-0.7-0.5-0.9-0.7c-0.2-0.3-0.4-0.5-0.5-0.9c-0.1-0.3-0.2-0.7-0.2-1.1c0-0.5,0.1-0.9,0.3-1.3
		c0.2-0.4,0.5-0.7,0.9-1c0.4-0.3,0.8-0.5,1.3-0.6c0.5-0.1,1-0.2,1.5-0.2c1,0,1.8,0.2,2.6,0.6v1.5c-0.9-0.5-1.8-0.8-2.8-0.8
		c-0.4,0-0.7,0-1,0.1c-0.3,0.1-0.5,0.2-0.8,0.4c-0.2,0.2-0.4,0.4-0.5,0.6c-0.1,0.2-0.2,0.5-0.2,0.7c0,0.3,0,0.5,0.1,0.7
		c0.1,0.2,0.2,0.4,0.4,0.6c0.2,0.2,0.4,0.3,0.7,0.5c0.3,0.2,0.7,0.3,1.1,0.5c0.5,0.2,1,0.4,1.4,0.7s0.7,0.5,1,0.7s0.5,0.5,0.6,0.8
		c0.1,0.3,0.2,0.7,0.2,1.1c0,0.5-0.1,1-0.3,1.4c-0.2,0.4-0.5,0.7-0.9,1c-0.4,0.3-0.8,0.5-1.3,0.6c-0.5,0.1-1.1,0.2-1.6,0.2
		c-1.1,0-2.1-0.2-2.9-0.7V91.6z"/>
	<path class="st1" d="M272.9,97.2V77.8h3.8v1.1h-2.5v17.1h2.5v1.1H272.9z"/>
	<path class="st1" d="M279.8,79.5c-0.3,0-0.5-0.1-0.7-0.3c-0.2-0.2-0.3-0.4-0.3-0.7c0-0.3,0.1-0.5,0.3-0.7c0.2-0.2,0.4-0.3,0.7-0.3
		c0.1,0,0.3,0,0.4,0.1c0.1,0,0.2,0.1,0.3,0.2c0.1,0.1,0.2,0.2,0.2,0.3c0.1,0.1,0.1,0.3,0.1,0.4c0,0.1,0,0.3-0.1,0.4
		c-0.1,0.1-0.1,0.2-0.2,0.3c-0.1,0.1-0.2,0.2-0.3,0.2C280.1,79.4,280,79.5,279.8,79.5z M279.1,93.6V82.3h1.4v11.3H279.1z"/>
	<path class="st1" d="M282.9,97.2v-1.1h2.5V78.9h-2.5v-1.1h3.8v19.4H282.9z"/>
	<path class="st1" d="M289.3,97.2c2.3-2.7,3.4-6,3.4-9.6c0-3.8-1.2-7-3.5-9.8h1.4c2.3,2.6,3.4,5.9,3.4,9.8c0,3.8-1.1,7-3.4,9.6
		H289.3z"/>
	<path class="st1" d="M71.1,161.2v-6.5c0-2.5-0.9-3.8-2.8-3.8c-0.5,0-1,0.1-1.4,0.3c-0.4,0.2-0.8,0.5-1.1,0.8
		c-0.3,0.3-0.5,0.8-0.7,1.2c-0.2,0.5-0.3,1-0.3,1.5v6.5h-1.4V150h1.4v2h0c0.8-1.5,2.1-2.2,3.8-2.2c1.2,0,2.2,0.4,2.8,1.2
		c0.7,0.8,1,2,1,3.5v6.9H71.1z"/>
	<path class="st1" d="M83.4,161.2v-1.9h0c-0.8,1.5-2,2.2-3.6,2.2c-2.7,0-4.1-1.6-4.1-4.9V150h1.4v6.4c0,1.4,0.2,2.3,0.7,3
		c0.5,0.6,1.2,1,2.2,1c0.5,0,0.9-0.1,1.3-0.3c0.4-0.2,0.8-0.5,1-0.8s0.5-0.8,0.7-1.2c0.2-0.5,0.2-1,0.2-1.6V150h1.4v11.3H83.4z"/>
	<path class="st1" d="M102.9,161.2v-6.6c0-0.7-0.1-1.2-0.2-1.7c-0.1-0.5-0.3-0.8-0.5-1.1c-0.2-0.3-0.5-0.5-0.8-0.6
		c-0.3-0.1-0.7-0.2-1.2-0.2c-0.4,0-0.8,0.1-1.2,0.3c-0.4,0.2-0.7,0.5-1,0.8c-0.3,0.3-0.5,0.7-0.7,1.2c-0.2,0.5-0.2,1-0.2,1.5v6.5
		h-1.4v-6.8c0-2.4-0.9-3.5-2.7-3.5c-0.4,0-0.8,0.1-1.2,0.3c-0.4,0.2-0.7,0.4-1,0.8c-0.3,0.3-0.5,0.7-0.6,1.2c-0.2,0.5-0.2,1-0.2,1.6
		v6.5h-1.4V150H90v1.8h0c0.8-1.4,2-2.1,3.5-2.1c0.4,0,0.8,0.1,1.1,0.2c0.4,0.1,0.7,0.3,1,0.5c0.3,0.2,0.5,0.5,0.7,0.8
		c0.2,0.3,0.4,0.6,0.5,1c0.4-0.8,0.9-1.4,1.6-1.8c0.6-0.4,1.4-0.6,2.2-0.6c2.5,0,3.7,1.5,3.7,4.6v7H102.9z"/>
	<path class="st1" d="M107.1,159.2c0.2,0.2,0.4,0.3,0.7,0.5c0.3,0.1,0.5,0.2,0.8,0.3c0.3,0.1,0.5,0.2,0.8,0.2c0.3,0,0.5,0.1,0.8,0.1
		c1.7,0,2.5-0.6,2.5-1.9c0-0.3-0.1-0.5-0.2-0.7c-0.1-0.2-0.3-0.4-0.5-0.6c-0.2-0.2-0.5-0.3-0.8-0.5c-0.3-0.1-0.7-0.3-1.1-0.5
		c-0.5-0.2-1-0.4-1.4-0.7c-0.4-0.2-0.7-0.5-0.9-0.7c-0.2-0.3-0.4-0.5-0.5-0.9s-0.2-0.7-0.2-1.1c0-0.5,0.1-0.9,0.3-1.3
		c0.2-0.4,0.5-0.7,0.9-1c0.4-0.3,0.8-0.5,1.3-0.6c0.5-0.1,1-0.2,1.5-0.2c1,0,1.8,0.2,2.6,0.6v1.5c-0.9-0.5-1.8-0.8-2.8-0.8
		c-0.4,0-0.7,0-1,0.1c-0.3,0.1-0.5,0.2-0.8,0.4c-0.2,0.2-0.4,0.4-0.5,0.6c-0.1,0.2-0.2,0.5-0.2,0.7c0,0.3,0,0.5,0.1,0.7
		c0.1,0.2,0.2,0.4,0.4,0.6c0.2,0.2,0.4,0.3,0.7,0.5c0.3,0.2,0.7,0.3,1.1,0.5c0.5,0.2,1,0.4,1.4,0.7c0.4,0.2,0.7,0.5,1,0.7
		s0.5,0.5,0.6,0.8c0.1,0.3,0.2,0.7,0.2,1.1c0,0.5-0.1,1-0.3,1.4c-0.2,0.4-0.5,0.7-0.9,1c-0.4,0.3-0.8,0.5-1.3,0.6
		c-0.5,0.1-1.1,0.2-1.6,0.2c-1.2,0-2.1-0.2-2.9-0.7V159.2z"/>
	<path class="st1" d="M117.6,161.5c-0.3,0-0.5-0.1-0.8-0.3c-0.2-0.2-0.3-0.5-0.3-0.7c0-0.3,0.1-0.6,0.3-0.8c0.2-0.2,0.5-0.3,0.8-0.3
		c0.1,0,0.3,0,0.4,0.1c0.1,0.1,0.2,0.1,0.3,0.2c0.1,0.1,0.2,0.2,0.2,0.3c0.1,0.1,0.1,0.3,0.1,0.4c0,0.1,0,0.3-0.1,0.4
		c-0.1,0.1-0.1,0.2-0.2,0.3c-0.1,0.1-0.2,0.2-0.3,0.2C117.9,161.4,117.8,161.5,117.6,161.5z"/>
	<path class="st1" d="M121.3,159.2c0.2,0.2,0.4,0.3,0.7,0.5c0.3,0.1,0.5,0.2,0.8,0.3c0.3,0.1,0.5,0.2,0.8,0.2c0.3,0,0.5,0.1,0.8,0.1
		c1.7,0,2.5-0.6,2.5-1.9c0-0.3-0.1-0.5-0.2-0.7c-0.1-0.2-0.3-0.4-0.5-0.6c-0.2-0.2-0.5-0.3-0.8-0.5c-0.3-0.1-0.7-0.3-1.1-0.5
		c-0.5-0.2-1-0.4-1.4-0.7c-0.4-0.2-0.7-0.5-0.9-0.7c-0.2-0.3-0.4-0.5-0.5-0.9s-0.2-0.7-0.2-1.1c0-0.5,0.1-0.9,0.3-1.3
		c0.2-0.4,0.5-0.7,0.9-1c0.4-0.3,0.8-0.5,1.3-0.6c0.5-0.1,1-0.2,1.5-0.2c1,0,1.8,0.2,2.6,0.6v1.5c-0.9-0.5-1.8-0.8-2.8-0.8
		c-0.4,0-0.7,0-1,0.1c-0.3,0.1-0.5,0.2-0.8,0.4c-0.2,0.2-0.4,0.4-0.5,0.6c-0.1,0.2-0.2,0.5-0.2,0.7c0,0.3,0,0.5,0.1,0.7
		c0.1,0.2,0.2,0.4,0.4,0.6c0.2,0.2,0.4,0.3,0.7,0.5c0.3,0.2,0.7,0.3,1.1,0.5c0.5,0.2,1,0.4,1.4,0.7c0.4,0.2,0.7,0.5,1,0.7
		s0.5,0.5,0.6,0.8c0.1,0.3,0.2,0.7,0.2,1.1c0,0.5-0.1,1-0.3,1.4s-0.5,0.7-0.9,1c-0.4,0.3-0.8,0.5-1.3,0.6c-0.5,0.1-1.1,0.2-1.6,0.2
		c-1.2,0-2.1-0.2-2.9-0.7V159.2z"/>
	<path class="st1" d="M135.9,161.5c-0.8,0-1.6-0.1-2.3-0.4s-1.2-0.7-1.7-1.2c-0.5-0.5-0.8-1.1-1.1-1.8c-0.3-0.7-0.4-1.5-0.4-2.4
		c0-0.9,0.1-1.8,0.4-2.5c0.3-0.7,0.6-1.4,1.1-1.9c0.5-0.5,1.1-0.9,1.8-1.2c0.7-0.3,1.5-0.4,2.3-0.4c0.8,0,1.6,0.1,2.2,0.4
		c0.7,0.3,1.2,0.7,1.7,1.2c0.5,0.5,0.8,1.1,1.1,1.8c0.2,0.7,0.4,1.6,0.4,2.5c0,0.9-0.1,1.7-0.4,2.4c-0.3,0.7-0.6,1.3-1.1,1.9
		c-0.5,0.5-1.1,0.9-1.7,1.2C137.5,161.4,136.8,161.5,135.9,161.5z M136,150.9c-0.6,0-1.2,0.1-1.7,0.3c-0.5,0.2-0.9,0.5-1.3,0.9
		c-0.4,0.4-0.6,0.9-0.8,1.5c-0.2,0.6-0.3,1.3-0.3,2c0,0.7,0.1,1.3,0.3,1.9c0.2,0.6,0.5,1,0.8,1.5c0.4,0.4,0.8,0.7,1.3,0.9
		c0.5,0.2,1.1,0.3,1.7,0.3c0.6,0,1.2-0.1,1.7-0.3c0.5-0.2,0.9-0.5,1.2-0.9c0.3-0.4,0.6-0.9,0.8-1.5c0.2-0.6,0.3-1.2,0.3-2
		c0-1.5-0.3-2.7-1-3.5C138.3,151.3,137.3,150.9,136,150.9z"/>
	<path class="st1" d="M149.9,151.4c-0.3-0.2-0.8-0.4-1.3-0.4c-0.4,0-0.7,0.1-1,0.2c-0.3,0.1-0.5,0.3-0.8,0.6
		c-0.2,0.2-0.4,0.5-0.6,0.8c-0.2,0.3-0.3,0.7-0.4,1c-0.1,0.3-0.2,0.7-0.2,1c0,0.4-0.1,0.7-0.1,1v5.5h-1.4V150h1.4v2.4h0
		c0.1-0.4,0.3-0.8,0.5-1.1c0.2-0.3,0.4-0.6,0.7-0.8c0.3-0.2,0.6-0.4,0.9-0.5c0.3-0.1,0.6-0.2,1-0.2c0.2,0,0.4,0,0.6,0
		c0.2,0,0.3,0.1,0.5,0.1V151.4z"/>
	<path class="st1" d="M157.6,161.1c-0.5,0.2-1,0.4-1.6,0.4c-1.8,0-2.8-1-2.8-3.1v-7.1h-2V150h2v-2.8l1.4-0.5v3.3h2.9v1.2h-2.9v6.9
		c0,0.8,0.1,1.3,0.4,1.7c0.3,0.3,0.7,0.5,1.3,0.5c0.4,0,0.9-0.1,1.3-0.4V161.1z"/>
	<path class="st1" d="M163.1,164.8c-2.3-2.6-3.4-5.8-3.4-9.6c0-3.9,1.1-7.2,3.4-9.8h1.4c-2.3,2.7-3.5,6-3.5,9.8
		c0,3.7,1.2,6.9,3.4,9.6H163.1z"/>
	<path class="st1" d="M172.2,151.4c-0.3-0.2-0.8-0.4-1.3-0.4c-0.4,0-0.7,0.1-1,0.2c-0.3,0.1-0.5,0.3-0.8,0.6
		c-0.2,0.2-0.4,0.5-0.6,0.8c-0.2,0.3-0.3,0.7-0.4,1c-0.1,0.3-0.2,0.7-0.2,1c0,0.4-0.1,0.7-0.1,1v5.5h-1.4V150h1.4v2.4h0
		c0.1-0.4,0.3-0.8,0.5-1.1c0.2-0.3,0.4-0.6,0.7-0.8c0.3-0.2,0.6-0.4,0.9-0.5c0.3-0.1,0.6-0.2,1-0.2c0.2,0,0.4,0,0.6,0
		c0.2,0,0.3,0.1,0.5,0.1V151.4z"/>
	<path class="st1" d="M174.7,155.9c0,0.7,0.1,1.3,0.3,1.9c0.2,0.6,0.4,1,0.8,1.4s0.7,0.7,1.2,0.9c0.5,0.2,1,0.3,1.6,0.3
		c1.3,0,2.5-0.4,3.6-1.3v1.4c-1.1,0.8-2.4,1.2-4,1.2c-0.8,0-1.5-0.1-2.1-0.4c-0.6-0.3-1.2-0.6-1.6-1.2s-0.8-1.1-1-1.9
		c-0.2-0.7-0.4-1.6-0.4-2.5c0-0.8,0.1-1.6,0.4-2.3c0.3-0.7,0.6-1.3,1.1-1.9c0.5-0.5,1-0.9,1.6-1.2c0.6-0.3,1.3-0.4,2.1-0.4
		c0.7,0,1.4,0.1,1.9,0.4c0.6,0.3,1,0.6,1.4,1.1c0.4,0.5,0.7,1,0.9,1.7c0.2,0.7,0.3,1.4,0.3,2.3v0.7H174.7z M181.4,154.6
		c0-1.2-0.3-2.1-0.8-2.7c-0.5-0.6-1.3-1-2.3-1c-0.5,0-0.9,0.1-1.3,0.3c-0.4,0.2-0.8,0.4-1.1,0.7c-0.3,0.3-0.6,0.7-0.8,1.2
		c-0.2,0.5-0.3,1-0.4,1.5H181.4z"/>
	<path class="st1" d="M189.8,161.2h-1.4L184,150h1.6l3.1,8.6c0.2,0.5,0.3,1,0.4,1.4h0c0.1-0.5,0.2-1,0.3-1.3l3.3-8.6h1.5
		L189.8,161.2z"/>
	<path class="st1" d="M196.9,155.9c0,0.7,0.1,1.3,0.3,1.9c0.2,0.6,0.4,1,0.8,1.4c0.3,0.4,0.7,0.7,1.2,0.9c0.5,0.2,1,0.3,1.6,0.3
		c1.3,0,2.5-0.4,3.6-1.3v1.4c-1.1,0.8-2.4,1.2-4,1.2c-0.8,0-1.5-0.1-2.1-0.4c-0.6-0.3-1.2-0.6-1.6-1.2s-0.8-1.1-1-1.9
		c-0.2-0.7-0.4-1.6-0.4-2.5c0-0.8,0.1-1.6,0.4-2.3c0.3-0.7,0.6-1.3,1.1-1.9c0.5-0.5,1-0.9,1.6-1.2c0.6-0.3,1.3-0.4,2.1-0.4
		c0.7,0,1.4,0.1,1.9,0.4c0.6,0.3,1,0.6,1.4,1.1c0.4,0.5,0.7,1,0.9,1.7c0.2,0.7,0.3,1.4,0.3,2.3v0.7H196.9z M203.6,154.6
		c0-1.2-0.3-2.1-0.8-2.7c-0.5-0.6-1.3-1-2.3-1c-0.5,0-0.9,0.1-1.3,0.3c-0.4,0.2-0.8,0.4-1.1,0.7c-0.3,0.3-0.6,0.7-0.8,1.2
		c-0.2,0.5-0.3,1-0.4,1.5H203.6z"/>
	<path class="st1" d="M213.5,151.4c-0.3-0.2-0.8-0.4-1.3-0.4c-0.4,0-0.7,0.1-1,0.2c-0.3,0.1-0.5,0.3-0.8,0.6
		c-0.2,0.2-0.4,0.5-0.6,0.8c-0.2,0.3-0.3,0.7-0.4,1c-0.1,0.3-0.2,0.7-0.2,1c0,0.4-0.1,0.7-0.1,1v5.5h-1.4V150h1.4v2.4h0
		c0.1-0.4,0.3-0.8,0.5-1.1c0.2-0.3,0.4-0.6,0.7-0.8c0.3-0.2,0.6-0.4,0.9-0.5c0.3-0.1,0.6-0.2,1-0.2c0.2,0,0.4,0,0.6,0
		c0.2,0,0.3,0.1,0.5,0.1V151.4z"/>
	<path class="st1" d="M215.1,159.2c0.2,0.2,0.4,0.3,0.7,0.5c0.3,0.1,0.5,0.2,0.8,0.3c0.3,0.1,0.5,0.2,0.8,0.2c0.3,0,0.5,0.1,0.8,0.1
		c1.7,0,2.5-0.6,2.5-1.9c0-0.3-0.1-0.5-0.2-0.7c-0.1-0.2-0.3-0.4-0.5-0.6c-0.2-0.2-0.5-0.3-0.8-0.5c-0.3-0.1-0.7-0.3-1.1-0.5
		c-0.5-0.2-1-0.4-1.4-0.7c-0.4-0.2-0.7-0.5-0.9-0.7c-0.2-0.3-0.4-0.5-0.5-0.9c-0.1-0.3-0.2-0.7-0.2-1.1c0-0.5,0.1-0.9,0.3-1.3
		c0.2-0.4,0.5-0.7,0.9-1c0.4-0.3,0.8-0.5,1.3-0.6c0.5-0.1,1-0.2,1.5-0.2c1,0,1.8,0.2,2.6,0.6v1.5c-0.9-0.5-1.8-0.8-2.8-0.8
		c-0.4,0-0.7,0-1,0.1c-0.3,0.1-0.5,0.2-0.8,0.4c-0.2,0.2-0.4,0.4-0.5,0.6c-0.1,0.2-0.2,0.5-0.2,0.7c0,0.3,0,0.5,0.1,0.7
		c0.1,0.2,0.2,0.4,0.4,0.6c0.2,0.2,0.4,0.3,0.7,0.5c0.3,0.2,0.7,0.3,1.1,0.5c0.5,0.2,1,0.4,1.4,0.7c0.4,0.2,0.7,0.5,1,0.7
		c0.3,0.3,0.5,0.5,0.6,0.8c0.1,0.3,0.2,0.7,0.2,1.1c0,0.5-0.1,1-0.3,1.4s-0.5,0.7-0.9,1c-0.4,0.3-0.8,0.5-1.3,0.6
		c-0.5,0.1-1.1,0.2-1.6,0.2c-1.1,0-2.1-0.2-2.9-0.7V159.2z"/>
	<path class="st1" d="M225.7,155.9c0,0.7,0.1,1.3,0.3,1.9c0.2,0.6,0.4,1,0.8,1.4c0.3,0.4,0.7,0.7,1.2,0.9c0.5,0.2,1,0.3,1.6,0.3
		c1.3,0,2.5-0.4,3.6-1.3v1.4c-1.1,0.8-2.4,1.2-4,1.2c-0.8,0-1.5-0.1-2.1-0.4c-0.6-0.3-1.2-0.6-1.6-1.2s-0.8-1.1-1-1.9
		c-0.2-0.7-0.4-1.6-0.4-2.5c0-0.8,0.1-1.6,0.4-2.3c0.3-0.7,0.6-1.3,1.1-1.9c0.5-0.5,1-0.9,1.6-1.2c0.6-0.3,1.3-0.4,2.1-0.4
		c0.7,0,1.4,0.1,1.9,0.4c0.6,0.3,1,0.6,1.4,1.1c0.4,0.5,0.7,1,0.9,1.7c0.2,0.7,0.3,1.4,0.3,2.3v0.7H225.7z M232.5,154.6
		c0-1.2-0.3-2.1-0.8-2.7c-0.5-0.6-1.3-1-2.3-1c-0.5,0-0.9,0.1-1.3,0.3c-0.4,0.2-0.8,0.4-1.1,0.7c-0.3,0.3-0.6,0.7-0.8,1.2
		c-0.2,0.5-0.3,1-0.4,1.5H232.5z"/>
	<path class="st1" d="M243.6,153v-1.2h10.3v1.2H243.6z M243.6,157.5v-1.2h10.3v1.2H243.6z"/>
	<path class="st1" d="M269.2,146.8v14.4h-1.5v-14.4h-4.6v-1.3h10.7v1.3H269.2z"/>
	<path class="st1" d="M279.9,151.4c-0.3-0.2-0.8-0.4-1.3-0.4c-0.4,0-0.7,0.1-1,0.2c-0.3,0.1-0.5,0.3-0.8,0.6
		c-0.2,0.2-0.4,0.5-0.6,0.8c-0.2,0.3-0.3,0.7-0.4,1c-0.1,0.3-0.2,0.7-0.2,1c0,0.4-0.1,0.7-0.1,1v5.5h-1.4V150h1.4v2.4h0
		c0.1-0.4,0.3-0.8,0.5-1.1c0.2-0.3,0.4-0.6,0.7-0.8c0.3-0.2,0.6-0.4,0.9-0.5c0.3-0.1,0.6-0.2,1-0.2c0.2,0,0.4,0,0.6,0
		c0.2,0,0.3,0.1,0.5,0.1V151.4z"/>
	<path class="st1" d="M289.4,161.2v-1.9h0c-0.8,1.5-2,2.2-3.6,2.2c-2.7,0-4.1-1.6-4.1-4.9V150h1.4v6.4c0,1.4,0.2,2.3,0.7,3
		c0.5,0.6,1.2,1,2.2,1c0.5,0,0.9-0.1,1.3-0.3c0.4-0.2,0.8-0.5,1-0.8c0.3-0.3,0.5-0.8,0.7-1.2c0.2-0.5,0.2-1,0.2-1.6V150h1.4v11.3
		H289.4z"/>
	<path class="st1" d="M295.2,155.9c0,0.7,0.1,1.3,0.3,1.9c0.2,0.6,0.4,1,0.8,1.4c0.3,0.4,0.7,0.7,1.2,0.9c0.5,0.2,1,0.3,1.6,0.3
		c1.3,0,2.5-0.4,3.6-1.3v1.4c-1.1,0.8-2.4,1.2-4,1.2c-0.8,0-1.5-0.1-2.1-0.4c-0.6-0.3-1.2-0.6-1.6-1.2s-0.8-1.1-1-1.9
		c-0.2-0.7-0.4-1.6-0.4-2.5c0-0.8,0.1-1.6,0.4-2.3c0.3-0.7,0.6-1.3,1.1-1.9c0.5-0.5,1-0.9,1.6-1.2c0.6-0.3,1.3-0.4,2.1-0.4
		c0.7,0,1.4,0.1,1.9,0.4c0.6,0.3,1,0.6,1.4,1.1c0.4,0.5,0.7,1,0.9,1.7c0.2,0.7,0.3,1.4,0.3,2.3v0.7H295.2z M302,154.6
		c0-1.2-0.3-2.1-0.8-2.7c-0.5-0.6-1.3-1-2.3-1c-0.5,0-0.9,0.1-1.3,0.3c-0.4,0.2-0.8,0.4-1.1,0.7c-0.3,0.3-0.6,0.7-0.8,1.2
		c-0.2,0.5-0.3,1-0.4,1.5H302z"/>
	<path class="st1" d="M304.7,164.8c2.3-2.7,3.4-6,3.4-9.6c0-3.8-1.2-7-3.5-9.8h1.4c2.3,2.6,3.4,5.9,3.4,9.8c0,3.8-1.1,7-3.4,9.6
		H304.7z"/>
	<path class="st1" d="M71.1,195.1v-6.5c0-2.5-0.9-3.8-2.8-3.8c-0.5,0-1,0.1-1.4,0.3c-0.4,0.2-0.8,0.5-1.1,0.8
		c-0.3,0.3-0.5,0.8-0.7,1.2c-0.2,0.5-0.3,1-0.3,1.5v6.5h-1.4v-11.3h1.4v2h0c0.8-1.5,2.1-2.2,3.8-2.2c1.2,0,2.2,0.4,2.8,1.2
		c0.7,0.8,1,2,1,3.5v6.9H71.1z"/>
	<path class="st1" d="M76.7,189.7c0,0.7,0.1,1.3,0.3,1.9c0.2,0.6,0.4,1,0.8,1.4s0.7,0.7,1.2,0.9c0.5,0.2,1,0.3,1.6,0.3
		c1.3,0,2.5-0.4,3.6-1.3v1.4c-1.1,0.8-2.4,1.2-4,1.2c-0.8,0-1.5-0.1-2.1-0.4c-0.6-0.3-1.2-0.6-1.6-1.2s-0.8-1.1-1-1.9
		c-0.2-0.7-0.4-1.6-0.4-2.5c0-0.8,0.1-1.6,0.4-2.3c0.3-0.7,0.6-1.3,1.1-1.9c0.5-0.5,1-0.9,1.6-1.2c0.6-0.3,1.3-0.4,2.1-0.4
		c0.7,0,1.4,0.1,1.9,0.4c0.6,0.3,1,0.6,1.4,1.1c0.4,0.5,0.7,1,0.9,1.7c0.2,0.7,0.3,1.4,0.3,2.3v0.7H76.7z M83.4,188.5
		c0-1.2-0.3-2.1-0.8-2.7c-0.5-0.6-1.3-1-2.3-1c-0.5,0-0.9,0.1-1.3,0.3c-0.4,0.2-0.8,0.4-1.1,0.7c-0.3,0.3-0.6,0.7-0.8,1.2
		c-0.2,0.5-0.3,1-0.4,1.5H83.4z"/>
	<path class="st1" d="M98,195.1h-1.4l-2.4-8.3c-0.1-0.3-0.1-0.6-0.2-1h0c0,0.1,0,0.2-0.1,0.4c0,0.2-0.1,0.4-0.2,0.6l-2.7,8.3h-1.4
		l-3.4-11.3h1.5l2.5,8.7c0.1,0.3,0.1,0.6,0.2,1h0.1c0-0.1,0-0.3,0.1-0.5c0-0.2,0.1-0.3,0.1-0.5l2.8-8.7h1.2l2.5,8.8
		c0.1,0.2,0.1,0.6,0.2,1h0.1c0-0.1,0-0.3,0-0.4s0.1-0.3,0.1-0.5l2.5-8.8h1.4L98,195.1z"/>
	<path class="st1" d="M111.3,195.1v-6.5c0-2.5-0.9-3.8-2.8-3.8c-0.5,0-1,0.1-1.4,0.3c-0.4,0.2-0.8,0.5-1.1,0.8
		c-0.3,0.3-0.5,0.8-0.7,1.2c-0.2,0.5-0.3,1-0.3,1.5v6.5h-1.4v-11.3h1.4v2h0c0.8-1.5,2.1-2.2,3.8-2.2c1.2,0,2.2,0.4,2.8,1.2
		c0.7,0.8,1,2,1,3.5v6.9H111.3z"/>
	<path class="st1" d="M123.6,195.1v-1.9h0c-0.8,1.5-2,2.2-3.6,2.2c-2.7,0-4.1-1.6-4.1-4.9v-6.6h1.4v6.4c0,1.4,0.2,2.3,0.7,3
		c0.5,0.6,1.2,1,2.2,1c0.5,0,0.9-0.1,1.3-0.3c0.4-0.2,0.8-0.5,1-0.8s0.5-0.8,0.7-1.2c0.2-0.5,0.2-1,0.2-1.6v-6.4h1.4v11.3H123.6z"/>
	<path class="st1" d="M143.1,195.1v-6.6c0-0.7-0.1-1.2-0.2-1.7c-0.1-0.5-0.3-0.8-0.5-1.1c-0.2-0.3-0.5-0.5-0.8-0.6
		c-0.3-0.1-0.7-0.2-1.2-0.2c-0.4,0-0.8,0.1-1.2,0.3c-0.4,0.2-0.7,0.5-1,0.8c-0.3,0.3-0.5,0.7-0.7,1.2c-0.2,0.5-0.2,1-0.2,1.5v6.5
		h-1.4v-6.8c0-2.4-0.9-3.5-2.7-3.5c-0.4,0-0.8,0.1-1.2,0.3c-0.4,0.2-0.7,0.4-1,0.8c-0.3,0.3-0.5,0.7-0.6,1.2c-0.2,0.5-0.2,1-0.2,1.6
		v6.5h-1.4v-11.3h1.4v1.8h0c0.8-1.4,2-2.1,3.5-2.1c0.4,0,0.8,0.1,1.1,0.2s0.7,0.3,1,0.5c0.3,0.2,0.5,0.5,0.7,0.8
		c0.2,0.3,0.4,0.6,0.5,1c0.4-0.8,0.9-1.4,1.6-1.8c0.6-0.4,1.4-0.6,2.2-0.6c2.5,0,3.7,1.5,3.7,4.6v7H143.1z"/>
	<path class="st1" d="M154.8,186.8v-1.2h10.3v1.2H154.8z M154.8,191.3v-1.2h10.3v1.2H154.8z"/>
	<path class="st1" d="M176.9,184.2h-1.3v-4.9h1.3V184.2z M180.2,184.2h-1.3v-4.9h1.3V184.2z"/>
	<path class="st1" d="M185.2,184.2h-1.3v-4.9h1.3V184.2z M188.4,184.2h-1.3v-4.9h1.3V184.2z"/>
	<path class="st1" d="M68.8,281.2c-0.3-0.2-0.7-0.3-1.2-0.3c-1.3,0-2,0.9-2,2.6v1.8h2.8v1.2h-2.8v10h-1.4v-10h-2v-1.2h2v-1.9
		c0-0.6,0.1-1.1,0.2-1.5c0.1-0.5,0.4-0.9,0.6-1.2c0.3-0.3,0.6-0.6,1.1-0.8c0.4-0.2,0.9-0.3,1.5-0.3c0.5,0,1,0.1,1.3,0.2V281.2z"/>
	<path class="st1" d="M74.8,296.8c-0.8,0-1.6-0.1-2.3-0.4c-0.7-0.3-1.2-0.7-1.7-1.2s-0.8-1.1-1.1-1.8c-0.3-0.7-0.4-1.5-0.4-2.4
		c0-0.9,0.1-1.8,0.4-2.5c0.3-0.7,0.6-1.4,1.1-1.9c0.5-0.5,1.1-0.9,1.8-1.2c0.7-0.3,1.5-0.4,2.3-0.4c0.8,0,1.6,0.1,2.2,0.4
		c0.7,0.3,1.2,0.7,1.7,1.2c0.5,0.5,0.8,1.1,1.1,1.8c0.2,0.7,0.4,1.6,0.4,2.5c0,0.9-0.1,1.7-0.4,2.4c-0.3,0.7-0.6,1.3-1.1,1.9
		c-0.5,0.5-1.1,0.9-1.7,1.2C76.5,296.7,75.7,296.8,74.8,296.8z M74.9,286.2c-0.6,0-1.2,0.1-1.7,0.3c-0.5,0.2-0.9,0.5-1.3,0.9
		c-0.4,0.4-0.6,0.9-0.8,1.5c-0.2,0.6-0.3,1.3-0.3,2c0,0.7,0.1,1.3,0.3,1.9c0.2,0.6,0.5,1.1,0.8,1.5c0.4,0.4,0.8,0.7,1.3,0.9
		c0.5,0.2,1.1,0.3,1.7,0.3c0.6,0,1.2-0.1,1.7-0.3c0.5-0.2,0.9-0.5,1.2-0.9c0.3-0.4,0.6-0.9,0.8-1.5c0.2-0.6,0.3-1.2,0.3-2
		c0-1.5-0.3-2.7-1-3.5C77.2,286.6,76.2,286.2,74.9,286.2z"/>
	<path class="st1" d="M88.9,286.7c-0.3-0.2-0.8-0.4-1.3-0.4c-0.4,0-0.7,0.1-1,0.2c-0.3,0.1-0.5,0.3-0.8,0.6
		c-0.2,0.2-0.4,0.5-0.6,0.8c-0.2,0.3-0.3,0.7-0.4,1c-0.1,0.3-0.2,0.7-0.2,1c0,0.4-0.1,0.7-0.1,1v5.5h-1.4v-11.3h1.4v2.4h0
		c0.1-0.4,0.3-0.8,0.5-1.1c0.2-0.3,0.4-0.6,0.7-0.8c0.3-0.2,0.6-0.4,0.9-0.5c0.3-0.1,0.6-0.2,1-0.2c0.2,0,0.4,0,0.6,0
		s0.3,0.1,0.5,0.1V286.7z"/>
	<path class="st1" d="M97.9,282.4c-0.3,0-0.5-0.1-0.7-0.3c-0.2-0.2-0.3-0.4-0.3-0.7c0-0.3,0.1-0.5,0.3-0.7c0.2-0.2,0.4-0.3,0.7-0.3
		c0.1,0,0.3,0,0.4,0.1c0.1,0,0.2,0.1,0.3,0.2c0.1,0.1,0.2,0.2,0.2,0.3c0.1,0.1,0.1,0.3,0.1,0.4c0,0.1,0,0.3-0.1,0.4
		c-0.1,0.1-0.1,0.2-0.2,0.3c-0.1,0.1-0.2,0.2-0.3,0.2C98.2,282.4,98,282.4,97.9,282.4z M97.2,296.6v-11.3h1.4v11.3H97.2z"/>
	<path class="st1" d="M109.2,282.4c-0.3,0-0.5-0.1-0.7-0.3c-0.2-0.2-0.3-0.4-0.3-0.7c0-0.3,0.1-0.5,0.3-0.7c0.2-0.2,0.4-0.3,0.7-0.3
		c0.1,0,0.3,0,0.4,0.1c0.1,0,0.2,0.1,0.3,0.2c0.1,0.1,0.2,0.2,0.2,0.3c0.1,0.1,0.1,0.3,0.1,0.4c0,0.1,0,0.3-0.1,0.4
		c-0.1,0.1-0.1,0.2-0.2,0.3c-0.1,0.1-0.2,0.2-0.3,0.2C109.5,282.4,109.4,282.4,109.2,282.4z M108.5,296.6v-11.3h1.4v11.3H108.5z"/>
	<path class="st1" d="M121.3,296.6v-6.5c0-2.5-0.9-3.8-2.8-3.8c-0.5,0-1,0.1-1.4,0.3c-0.4,0.2-0.8,0.5-1.1,0.8
		c-0.3,0.3-0.5,0.8-0.7,1.2c-0.2,0.5-0.3,1-0.3,1.5v6.5h-1.4v-11.3h1.4v2h0c0.8-1.5,2.1-2.2,3.8-2.2c1.2,0,2.2,0.4,2.8,1.2
		c0.7,0.8,1,2,1,3.5v6.9H121.3z"/>
	<path class="st1" d="M138.1,286.7c-0.3-0.2-0.8-0.4-1.3-0.4c-0.4,0-0.7,0.1-1,0.2c-0.3,0.1-0.5,0.3-0.8,0.6
		c-0.2,0.2-0.4,0.5-0.6,0.8c-0.2,0.3-0.3,0.7-0.4,1c-0.1,0.3-0.2,0.7-0.2,1c0,0.4-0.1,0.7-0.1,1v5.5h-1.4v-11.3h1.4v2.4h0
		c0.1-0.4,0.3-0.8,0.5-1.1c0.2-0.3,0.4-0.6,0.7-0.8c0.3-0.2,0.6-0.4,0.9-0.5c0.3-0.1,0.6-0.2,1-0.2c0.2,0,0.4,0,0.6,0
		c0.2,0,0.3,0.1,0.5,0.1V286.7z"/>
	<path class="st1" d="M146.7,296.6v-2h0c-0.4,0.7-0.9,1.3-1.5,1.7c-0.6,0.4-1.4,0.6-2.2,0.6c-0.5,0-1-0.1-1.5-0.2s-0.8-0.4-1.1-0.7
		c-0.3-0.3-0.5-0.6-0.7-1c-0.2-0.4-0.3-0.8-0.3-1.3c0-1,0.3-1.8,1-2.4c0.6-0.6,1.6-1,2.9-1.2l3.5-0.5c0-2.2-0.8-3.2-2.5-3.2
		c-1.3,0-2.6,0.5-3.7,1.4v-1.5c0.2-0.2,0.5-0.3,0.8-0.5c0.3-0.1,0.6-0.3,1-0.4c0.3-0.1,0.7-0.2,1-0.2c0.4-0.1,0.7-0.1,1-0.1
		c1.3,0,2.2,0.4,2.9,1.1c0.6,0.7,1,1.8,1,3.1v7.3H146.7z M143.8,291.1c-0.5,0.1-0.9,0.2-1.3,0.3c-0.4,0.1-0.7,0.3-0.9,0.4
		c-0.2,0.2-0.4,0.4-0.5,0.7c-0.1,0.3-0.2,0.6-0.2,1c0,0.3,0.1,0.6,0.2,0.8c0.1,0.3,0.3,0.5,0.5,0.7s0.5,0.3,0.7,0.4
		c0.3,0.1,0.6,0.2,1,0.2c0.5,0,1-0.1,1.4-0.3c0.4-0.2,0.8-0.5,1.1-0.8c0.3-0.3,0.5-0.7,0.7-1.2c0.2-0.5,0.3-1,0.3-1.5v-1.1
		L143.8,291.1z"/>
	<path class="st1" d="M159.2,296.6v-6.5c0-2.5-0.9-3.8-2.8-3.8c-0.5,0-1,0.1-1.4,0.3c-0.4,0.2-0.8,0.5-1.1,0.8
		c-0.3,0.3-0.5,0.8-0.7,1.2c-0.2,0.5-0.3,1-0.3,1.5v6.5h-1.4v-11.3h1.4v2h0c0.8-1.5,2.1-2.2,3.8-2.2c1.2,0,2.2,0.4,2.8,1.2
		c0.7,0.8,1,2,1,3.5v6.9H159.2z"/>
	<path class="st1" d="M173.5,295.7c0,2.1-0.5,3.6-1.4,4.7c-1,1-2.4,1.5-4.4,1.5c-1.2,0-2.4-0.3-3.5-0.8v-1.4c1.2,0.7,2.4,1,3.5,1
		c3,0,4.5-1.6,4.5-4.7v-1.4h0c-0.9,1.5-2.2,2.2-4,2.2c-0.7,0-1.3-0.1-1.9-0.4c-0.6-0.3-1.1-0.6-1.5-1.1c-0.4-0.5-0.7-1.1-1-1.8
		c-0.2-0.7-0.3-1.5-0.3-2.4c0-0.9,0.1-1.8,0.4-2.5c0.2-0.8,0.6-1.4,1-2c0.5-0.5,1-1,1.6-1.3c0.6-0.3,1.4-0.4,2.2-0.4
		c1.6,0,2.8,0.6,3.5,1.9h0v-1.7h1.4V295.7z M172.1,289.7c0-0.5-0.1-0.9-0.3-1.3c-0.2-0.4-0.4-0.8-0.7-1.1c-0.3-0.3-0.7-0.6-1.1-0.8
		c-0.4-0.2-0.9-0.3-1.4-0.3c-0.6,0-1.1,0.1-1.6,0.3c-0.5,0.2-0.9,0.6-1.2,1c-0.3,0.4-0.6,0.9-0.8,1.5c-0.2,0.6-0.3,1.3-0.3,2
		c0,0.7,0.1,1.3,0.3,1.9c0.2,0.6,0.4,1,0.7,1.4c0.3,0.4,0.7,0.7,1.1,0.9c0.4,0.2,0.9,0.3,1.5,0.3c0.6,0,1.1-0.1,1.5-0.3
		c0.5-0.2,0.9-0.5,1.2-0.8c0.3-0.4,0.6-0.8,0.8-1.3c0.2-0.5,0.3-1,0.3-1.6V289.7z"/>
	<path class="st1" d="M177.9,291.2c0,0.7,0.1,1.3,0.3,1.9c0.2,0.6,0.4,1,0.8,1.4c0.3,0.4,0.7,0.7,1.2,0.9c0.5,0.2,1,0.3,1.6,0.3
		c1.3,0,2.5-0.4,3.6-1.3v1.4c-1.1,0.8-2.4,1.2-4,1.2c-0.8,0-1.5-0.1-2.1-0.4c-0.6-0.3-1.2-0.6-1.6-1.2c-0.4-0.5-0.8-1.1-1-1.9
		c-0.2-0.7-0.4-1.6-0.4-2.5c0-0.8,0.1-1.6,0.4-2.3c0.3-0.7,0.6-1.3,1.1-1.9c0.5-0.5,1-0.9,1.6-1.2c0.6-0.3,1.3-0.4,2.1-0.4
		c0.7,0,1.4,0.1,1.9,0.4c0.6,0.3,1,0.6,1.4,1.1c0.4,0.5,0.7,1,0.9,1.7c0.2,0.7,0.3,1.4,0.3,2.3v0.7H177.9z M184.6,289.9
		c0-1.2-0.3-2.1-0.8-2.7c-0.5-0.6-1.3-1-2.3-1c-0.5,0-0.9,0.1-1.3,0.3c-0.4,0.2-0.8,0.4-1.1,0.7c-0.3,0.3-0.6,0.7-0.8,1.2
		c-0.2,0.5-0.3,1-0.4,1.5H184.6z"/>
	<path class="st1" d="M192.1,300.1c-2.3-2.6-3.4-5.8-3.4-9.6c0-3.9,1.1-7.2,3.4-9.8h1.4c-2.3,2.7-3.5,6-3.5,9.8
		c0,3.7,1.2,6.9,3.4,9.6H192.1z"/>
	<path class="st1" d="M195.5,296.6v-16.7h1.4v16.7H195.5z"/>
	<path class="st1" d="M201.3,291.2c0,0.7,0.1,1.3,0.3,1.9c0.2,0.6,0.4,1,0.8,1.4c0.3,0.4,0.7,0.7,1.2,0.9c0.5,0.2,1,0.3,1.6,0.3
		c1.3,0,2.5-0.4,3.6-1.3v1.4c-1.1,0.8-2.4,1.2-4,1.2c-0.8,0-1.5-0.1-2.1-0.4c-0.6-0.3-1.2-0.6-1.6-1.2c-0.4-0.5-0.8-1.1-1-1.9
		c-0.2-0.7-0.4-1.6-0.4-2.5c0-0.8,0.1-1.6,0.4-2.3c0.3-0.7,0.6-1.3,1.1-1.9c0.5-0.5,1-0.9,1.6-1.2c0.6-0.3,1.3-0.4,2.1-0.4
		c0.7,0,1.4,0.1,1.9,0.4c0.6,0.3,1,0.6,1.4,1.1c0.4,0.5,0.7,1,0.9,1.7c0.2,0.7,0.3,1.4,0.3,2.3v0.7H201.3z M208.1,289.9
		c0-1.2-0.3-2.1-0.8-2.7c-0.5-0.6-1.3-1-2.3-1c-0.5,0-0.9,0.1-1.3,0.3c-0.4,0.2-0.8,0.4-1.1,0.7c-0.3,0.3-0.6,0.7-0.8,1.2
		c-0.2,0.5-0.3,1-0.4,1.5H208.1z"/>
	<path class="st1" d="M220,296.6v-6.5c0-2.5-0.9-3.8-2.8-3.8c-0.5,0-1,0.1-1.4,0.3c-0.4,0.2-0.8,0.5-1.1,0.8s-0.5,0.8-0.7,1.2
		c-0.2,0.5-0.3,1-0.3,1.5v6.5h-1.4v-11.3h1.4v2h0c0.8-1.5,2.1-2.2,3.8-2.2c1.2,0,2.2,0.4,2.8,1.2c0.7,0.8,1,2,1,3.5v6.9H220z"/>
	<path class="st1" d="M228.1,300.1c-2.3-2.6-3.4-5.8-3.4-9.6c0-3.9,1.1-7.2,3.4-9.8h1.4c-2.3,2.7-3.5,6-3.5,9.8
		c0,3.7,1.1,6.9,3.4,9.6H228.1z"/>
	<path class="st1" d="M239.2,296.6v-6.5c0-2.5-0.9-3.8-2.8-3.8c-0.5,0-1,0.1-1.4,0.3c-0.4,0.2-0.8,0.5-1.1,0.8
		c-0.3,0.3-0.5,0.8-0.7,1.2c-0.2,0.5-0.3,1-0.3,1.5v6.5h-1.4v-11.3h1.4v2h0c0.8-1.5,2.1-2.2,3.8-2.2c1.2,0,2.2,0.4,2.8,1.2
		c0.7,0.8,1,2,1,3.5v6.9H239.2z"/>
	<path class="st1" d="M251.5,296.6v-1.9h0c-0.8,1.5-2,2.2-3.6,2.2c-2.7,0-4.1-1.6-4.1-4.9v-6.6h1.4v6.4c0,1.4,0.2,2.3,0.7,3
		c0.5,0.6,1.2,1,2.2,1c0.5,0,0.9-0.1,1.3-0.3c0.4-0.2,0.8-0.5,1-0.8c0.3-0.3,0.5-0.8,0.7-1.2c0.2-0.5,0.2-1,0.2-1.6v-6.4h1.4v11.3
		H251.5z"/>
	<path class="st1" d="M271,296.6v-6.6c0-0.7-0.1-1.2-0.2-1.7c-0.1-0.5-0.3-0.8-0.5-1.1c-0.2-0.3-0.5-0.5-0.8-0.6
		c-0.3-0.1-0.7-0.2-1.2-0.2c-0.4,0-0.8,0.1-1.2,0.3c-0.4,0.2-0.7,0.5-1,0.8c-0.3,0.3-0.5,0.7-0.7,1.2c-0.2,0.5-0.2,1-0.2,1.5v6.5
		h-1.4v-6.8c0-2.4-0.9-3.5-2.7-3.5c-0.4,0-0.8,0.1-1.2,0.3c-0.4,0.2-0.7,0.4-1,0.8c-0.3,0.3-0.5,0.7-0.6,1.2c-0.2,0.5-0.2,1-0.2,1.6
		v6.5h-1.4v-11.3h1.4v1.8h0c0.8-1.4,2-2.1,3.5-2.1c0.4,0,0.8,0.1,1.1,0.2c0.4,0.1,0.7,0.3,1,0.5c0.3,0.2,0.5,0.5,0.7,0.8
		c0.2,0.3,0.4,0.6,0.5,1c0.4-0.8,0.9-1.4,1.6-1.8c0.6-0.4,1.4-0.6,2.2-0.6c2.5,0,3.7,1.5,3.7,4.6v7H271z"/>
	<path class="st1" d="M275.2,294.5c0.2,0.2,0.4,0.3,0.7,0.5c0.3,0.1,0.5,0.2,0.8,0.3c0.3,0.1,0.5,0.2,0.8,0.2c0.3,0,0.5,0.1,0.8,0.1
		c1.7,0,2.5-0.6,2.5-1.9c0-0.3-0.1-0.5-0.2-0.7c-0.1-0.2-0.3-0.4-0.5-0.6c-0.2-0.2-0.5-0.3-0.8-0.5s-0.7-0.3-1.1-0.5
		c-0.5-0.2-1-0.4-1.4-0.6c-0.4-0.2-0.7-0.5-0.9-0.7c-0.2-0.3-0.4-0.5-0.5-0.9c-0.1-0.3-0.2-0.7-0.2-1.1c0-0.5,0.1-0.9,0.3-1.3
		c0.2-0.4,0.5-0.7,0.9-1c0.4-0.3,0.8-0.5,1.3-0.6c0.5-0.1,1-0.2,1.5-0.2c1,0,1.8,0.2,2.6,0.6v1.5c-0.9-0.5-1.8-0.8-2.8-0.8
		c-0.4,0-0.7,0-1,0.1c-0.3,0.1-0.5,0.2-0.8,0.4c-0.2,0.2-0.4,0.4-0.5,0.6c-0.1,0.2-0.2,0.5-0.2,0.7c0,0.3,0,0.5,0.1,0.7
		c0.1,0.2,0.2,0.4,0.4,0.6c0.2,0.2,0.4,0.3,0.7,0.5c0.3,0.2,0.7,0.3,1.1,0.5c0.5,0.2,1,0.4,1.4,0.7c0.4,0.2,0.7,0.5,1,0.7
		c0.3,0.3,0.5,0.5,0.6,0.8c0.1,0.3,0.2,0.7,0.2,1.1c0,0.5-0.1,1-0.3,1.4c-0.2,0.4-0.5,0.7-0.9,1s-0.8,0.5-1.3,0.6
		c-0.5,0.1-1.1,0.2-1.6,0.2c-1.1,0-2.1-0.2-2.9-0.7V294.5z"/>
	<path class="st1" d="M283.5,300.1c2.3-2.7,3.4-6,3.4-9.6c0-3.8-1.2-7-3.5-9.8h1.4c2.3,2.6,3.4,5.9,3.4,9.8c0,3.8-1.1,7-3.4,9.6
		H283.5z"/>
	<path class="st1" d="M290.2,300.1c2.3-2.7,3.4-6,3.4-9.6c0-3.8-1.2-7-3.5-9.8h1.4c2.3,2.6,3.4,5.9,3.4,9.8c0,3.8-1.1,7-3.4,9.6
		H290.2z"/>
	<path class="st1" d="M299,287.2c-0.1,0-0.3,0-0.4-0.1c-0.1-0.1-0.2-0.1-0.3-0.2c-0.1-0.1-0.2-0.2-0.2-0.3c-0.1-0.1-0.1-0.3-0.1-0.4
		c0-0.3,0.1-0.5,0.3-0.7c0.2-0.2,0.5-0.3,0.8-0.3c0.1,0,0.3,0,0.4,0.1c0.1,0.1,0.2,0.1,0.3,0.2c0.1,0.1,0.2,0.2,0.2,0.3
		c0.1,0.1,0.1,0.3,0.1,0.4c0,0.2,0,0.3-0.1,0.4c-0.1,0.1-0.1,0.2-0.2,0.3c-0.1,0.1-0.2,0.2-0.3,0.2
		C299.3,287.1,299.2,287.2,299,287.2z M299,296.8c-0.3,0-0.5-0.1-0.8-0.3c-0.2-0.2-0.3-0.5-0.3-0.7c0-0.3,0.1-0.6,0.3-0.8
		c0.2-0.2,0.5-0.3,0.8-0.3c0.1,0,0.3,0,0.4,0.1c0.1,0.1,0.2,0.1,0.3,0.2c0.1,0.1,0.2,0.2,0.2,0.3c0.1,0.1,0.1,0.3,0.1,0.4
		c0,0.1,0,0.3-0.1,0.4c-0.1,0.1-0.1,0.2-0.2,0.3c-0.1,0.1-0.2,0.2-0.3,0.2C299.3,296.7,299.2,296.8,299,296.8z"/>
	<path class="st1" d="M96.1,330.4v-6.5c0-2.5-0.9-3.8-2.8-3.8c-0.5,0-1,0.1-1.4,0.3c-0.4,0.2-0.8,0.5-1.1,0.8
		c-0.3,0.3-0.5,0.8-0.7,1.2c-0.2,0.5-0.3,1-0.3,1.5v6.5h-1.4v-11.3h1.4v2h0c0.8-1.5,2.1-2.2,3.8-2.2c1.2,0,2.2,0.4,2.8,1.2
		c0.7,0.8,1,2,1,3.5v6.9H96.1z"/>
	<path class="st1" d="M101.6,325c0,0.7,0.1,1.3,0.3,1.9c0.2,0.6,0.4,1,0.8,1.4s0.7,0.7,1.2,0.9c0.5,0.2,1,0.3,1.6,0.3
		c1.3,0,2.5-0.4,3.6-1.3v1.4c-1.1,0.8-2.4,1.2-4,1.2c-0.8,0-1.5-0.1-2.1-0.4c-0.6-0.3-1.2-0.6-1.6-1.2c-0.4-0.5-0.8-1.1-1-1.9
		c-0.2-0.7-0.4-1.6-0.4-2.5c0-0.8,0.1-1.6,0.4-2.3c0.3-0.7,0.6-1.3,1.1-1.9c0.5-0.5,1-0.9,1.6-1.2c0.6-0.3,1.3-0.4,2.1-0.4
		c0.7,0,1.4,0.1,1.9,0.4c0.6,0.3,1,0.6,1.4,1.1c0.4,0.5,0.7,1,0.9,1.7c0.2,0.7,0.3,1.4,0.3,2.3v0.7H101.6z M108.4,323.8
		c0-1.2-0.3-2.1-0.8-2.7c-0.5-0.6-1.3-1-2.3-1c-0.5,0-0.9,0.1-1.3,0.3c-0.4,0.2-0.8,0.4-1.1,0.7c-0.3,0.3-0.6,0.7-0.8,1.2
		c-0.2,0.5-0.3,1-0.4,1.5H108.4z"/>
	<path class="st1" d="M123,330.4h-1.4l-2.4-8.3c-0.1-0.3-0.1-0.6-0.2-1h0c0,0.1,0,0.2-0.1,0.4c0,0.2-0.1,0.4-0.2,0.6l-2.7,8.3h-1.4
		l-3.4-11.3h1.5l2.5,8.7c0.1,0.3,0.1,0.6,0.2,1h0.1c0-0.1,0-0.3,0.1-0.5c0-0.2,0.1-0.3,0.1-0.5l2.8-8.7h1.2l2.5,8.8
		c0.1,0.3,0.1,0.6,0.2,1h0.1c0-0.1,0-0.3,0-0.4c0-0.2,0.1-0.3,0.1-0.5l2.5-8.8h1.4L123,330.4z"/>
	<path class="st1" d="M136.3,330.4v-6.5c0-2.5-0.9-3.8-2.8-3.8c-0.5,0-1,0.1-1.4,0.3s-0.8,0.5-1.1,0.8c-0.3,0.3-0.5,0.8-0.7,1.2
		c-0.2,0.5-0.3,1-0.3,1.5v6.5h-1.4v-11.3h1.4v2h0c0.8-1.5,2.1-2.2,3.8-2.2c1.2,0,2.2,0.4,2.8,1.2c0.7,0.8,1,2,1,3.5v6.9H136.3z"/>
	<path class="st1" d="M148.6,330.4v-1.9h0c-0.8,1.5-2,2.2-3.6,2.2c-2.7,0-4.1-1.6-4.1-4.9v-6.6h1.4v6.4c0,1.4,0.2,2.3,0.7,3
		c0.5,0.6,1.2,1,2.2,1c0.5,0,0.9-0.1,1.3-0.3c0.4-0.2,0.8-0.5,1-0.8c0.3-0.3,0.5-0.8,0.7-1.2c0.2-0.5,0.2-1,0.2-1.6v-6.4h1.4v11.3
		H148.6z"/>
	<path class="st1" d="M168,330.4v-6.6c0-0.7-0.1-1.2-0.2-1.7c-0.1-0.5-0.3-0.8-0.5-1.1c-0.2-0.3-0.5-0.5-0.8-0.6
		c-0.3-0.1-0.7-0.2-1.2-0.2c-0.4,0-0.8,0.1-1.2,0.3s-0.7,0.5-1,0.8c-0.3,0.3-0.5,0.7-0.7,1.2c-0.2,0.5-0.2,1-0.2,1.5v6.5h-1.4v-6.8
		c0-2.4-0.9-3.5-2.7-3.5c-0.4,0-0.8,0.1-1.2,0.3c-0.4,0.2-0.7,0.5-1,0.8c-0.3,0.3-0.5,0.7-0.6,1.2c-0.2,0.5-0.2,1-0.2,1.6v6.5h-1.4
		v-11.3h1.4v1.8h0c0.8-1.4,2-2.1,3.5-2.1c0.4,0,0.8,0.1,1.1,0.2c0.4,0.1,0.7,0.3,1,0.5c0.3,0.2,0.5,0.5,0.7,0.8
		c0.2,0.3,0.4,0.6,0.5,1c0.4-0.8,0.9-1.4,1.6-1.8c0.6-0.4,1.4-0.6,2.2-0.6c2.5,0,3.7,1.5,3.7,4.6v7H168z"/>
	<path class="st1" d="M179.8,322.2V321H190v1.2H179.8z M179.8,326.6v-1.2H190v1.2H179.8z"/>
	<path class="st1" d="M202,330.4v-6.5c0-2.5-0.9-3.8-2.8-3.8c-0.5,0-1,0.1-1.4,0.3c-0.4,0.2-0.8,0.5-1.1,0.8
		c-0.3,0.3-0.5,0.8-0.7,1.2c-0.2,0.5-0.3,1-0.3,1.5v6.5h-1.4v-11.3h1.4v2h0c0.8-1.5,2.1-2.2,3.8-2.2c1.2,0,2.2,0.4,2.8,1.2
		c0.7,0.8,1,2,1,3.5v6.9H202z"/>
	<path class="st1" d="M207.5,325c0,0.7,0.1,1.3,0.3,1.9c0.2,0.6,0.4,1,0.8,1.4c0.3,0.4,0.7,0.7,1.2,0.9c0.5,0.2,1,0.3,1.6,0.3
		c1.3,0,2.5-0.4,3.6-1.3v1.4c-1.1,0.8-2.4,1.2-4,1.2c-0.8,0-1.5-0.1-2.1-0.4c-0.6-0.3-1.2-0.6-1.6-1.2c-0.4-0.5-0.8-1.1-1-1.9
		c-0.2-0.7-0.4-1.6-0.4-2.5c0-0.8,0.1-1.6,0.4-2.3c0.3-0.7,0.6-1.3,1.1-1.9c0.5-0.5,1-0.9,1.6-1.2c0.6-0.3,1.3-0.4,2.1-0.4
		c0.7,0,1.4,0.1,1.9,0.4c0.6,0.3,1,0.6,1.4,1.1c0.4,0.5,0.7,1,0.9,1.7c0.2,0.7,0.3,1.4,0.3,2.3v0.7H207.5z M214.3,323.8
		c0-1.2-0.3-2.1-0.8-2.7c-0.5-0.6-1.3-1-2.3-1c-0.5,0-0.9,0.1-1.3,0.3c-0.4,0.2-0.8,0.4-1.1,0.7c-0.3,0.3-0.6,0.7-0.8,1.2
		c-0.2,0.5-0.3,1-0.4,1.5H214.3z"/>
	<path class="st1" d="M228.9,330.4h-1.4l-2.4-8.3c-0.1-0.3-0.1-0.6-0.2-1h0c0,0.1,0,0.2-0.1,0.4c0,0.2-0.1,0.4-0.2,0.6l-2.7,8.3
		h-1.4l-3.4-11.3h1.5l2.5,8.7c0.1,0.3,0.1,0.6,0.2,1h0.1c0-0.1,0-0.3,0.1-0.5c0-0.2,0.1-0.3,0.1-0.5l2.8-8.7h1.2l2.5,8.8
		c0.1,0.3,0.1,0.6,0.2,1h0.1c0-0.1,0-0.3,0-0.4c0-0.2,0.1-0.3,0.1-0.5l2.5-8.8h1.4L228.9,330.4z"/>
	<path class="st1" d="M242.2,330.4v-6.5c0-2.5-0.9-3.8-2.8-3.8c-0.5,0-1,0.1-1.4,0.3c-0.4,0.2-0.8,0.5-1.1,0.8
		c-0.3,0.3-0.5,0.8-0.7,1.2c-0.2,0.5-0.3,1-0.3,1.5v6.5h-1.4v-11.3h1.4v2h0c0.8-1.5,2.1-2.2,3.8-2.2c1.2,0,2.2,0.4,2.8,1.2
		c0.7,0.8,1,2,1,3.5v6.9H242.2z"/>
	<path class="st1" d="M254.5,330.4v-1.9h0c-0.8,1.5-2,2.2-3.6,2.2c-2.7,0-4.1-1.6-4.1-4.9v-6.6h1.4v6.4c0,1.4,0.2,2.3,0.7,3
		c0.5,0.6,1.2,1,2.2,1c0.5,0,0.9-0.1,1.3-0.3c0.4-0.2,0.8-0.5,1-0.8c0.3-0.3,0.5-0.8,0.7-1.2c0.2-0.5,0.2-1,0.2-1.6v-6.4h1.4v11.3
		H254.5z"/>
	<path class="st1" d="M273.9,330.4v-6.6c0-0.7-0.1-1.2-0.2-1.7c-0.1-0.5-0.3-0.8-0.5-1.1c-0.2-0.3-0.5-0.5-0.8-0.6
		c-0.3-0.1-0.7-0.2-1.2-0.2c-0.4,0-0.8,0.1-1.2,0.3c-0.4,0.2-0.7,0.5-1,0.8c-0.3,0.3-0.5,0.7-0.7,1.2c-0.2,0.5-0.2,1-0.2,1.5v6.5
		h-1.4v-6.8c0-2.4-0.9-3.5-2.7-3.5c-0.4,0-0.8,0.1-1.2,0.3c-0.4,0.2-0.7,0.5-1,0.8c-0.3,0.3-0.5,0.7-0.6,1.2c-0.2,0.5-0.2,1-0.2,1.6
		v6.5h-1.4v-11.3h1.4v1.8h0c0.8-1.4,2-2.1,3.5-2.1c0.4,0,0.8,0.1,1.1,0.2c0.4,0.1,0.7,0.3,1,0.5c0.3,0.2,0.5,0.5,0.7,0.8
		c0.2,0.3,0.4,0.6,0.5,1c0.4-0.8,0.9-1.4,1.6-1.8c0.6-0.4,1.4-0.6,2.2-0.6c2.5,0,3.7,1.5,3.7,4.6v7H273.9z"/>
	<path class="st1" d="M285.2,324.4v4.5H284v-4.5h-4.5v-1.2h4.5v-4.5h1.2v4.5h4.5v1.2H285.2z"/>
	<path class="st1" d="M307.9,330.4v-6.5c0-2.5-0.9-3.8-2.8-3.8c-0.5,0-1,0.1-1.4,0.3s-0.8,0.5-1.1,0.8c-0.3,0.3-0.5,0.8-0.7,1.2
		s-0.3,1-0.3,1.5v6.5h-1.4v-11.3h1.4v2h0c0.8-1.5,2.1-2.2,3.8-2.2c1.2,0,2.2,0.4,2.8,1.2c0.7,0.8,1,2,1,3.5v6.9H307.9z"/>
	<path class="st1" d="M320.2,330.4v-1.9h0c-0.8,1.5-2,2.2-3.6,2.2c-2.7,0-4.1-1.6-4.1-4.9v-6.6h1.4v6.4c0,1.4,0.2,2.3,0.7,3
		s1.2,1,2.2,1c0.5,0,0.9-0.1,1.3-0.3c0.4-0.2,0.8-0.5,1-0.8c0.3-0.3,0.5-0.8,0.7-1.2c0.2-0.5,0.2-1,0.2-1.6v-6.4h1.4v11.3H320.2z"/>
	<path class="st1" d="M339.6,330.4v-6.6c0-0.7-0.1-1.2-0.2-1.7c-0.1-0.5-0.3-0.8-0.5-1.1c-0.2-0.3-0.5-0.5-0.8-0.6
		c-0.3-0.1-0.7-0.2-1.2-0.2c-0.4,0-0.8,0.1-1.2,0.3c-0.4,0.2-0.7,0.5-1,0.8c-0.3,0.3-0.5,0.7-0.7,1.2c-0.2,0.5-0.2,1-0.2,1.5v6.5
		h-1.4v-6.8c0-2.4-0.9-3.5-2.7-3.5c-0.4,0-0.8,0.1-1.2,0.3c-0.4,0.2-0.7,0.5-1,0.8c-0.3,0.3-0.5,0.7-0.6,1.2c-0.2,0.5-0.2,1-0.2,1.6
		v6.5h-1.4v-11.3h1.4v1.8h0c0.8-1.4,2-2.1,3.5-2.1c0.4,0,0.8,0.1,1.1,0.2c0.4,0.1,0.7,0.3,1,0.5s0.5,0.5,0.7,0.8s0.4,0.6,0.5,1
		c0.4-0.8,0.9-1.4,1.6-1.8c0.6-0.4,1.4-0.6,2.2-0.6c2.5,0,3.7,1.5,3.7,4.6v7H339.6z"/>
	<path class="st1" d="M343.9,328.4c0.2,0.2,0.4,0.3,0.7,0.5c0.3,0.1,0.5,0.2,0.8,0.3c0.3,0.1,0.5,0.2,0.8,0.2c0.3,0,0.5,0.1,0.8,0.1
		c1.7,0,2.5-0.6,2.5-1.9c0-0.3-0.1-0.5-0.2-0.7c-0.1-0.2-0.3-0.4-0.5-0.6c-0.2-0.2-0.5-0.3-0.8-0.5c-0.3-0.1-0.7-0.3-1.1-0.5
		c-0.5-0.2-1-0.4-1.4-0.7c-0.4-0.2-0.7-0.5-0.9-0.7c-0.2-0.3-0.4-0.5-0.5-0.9c-0.1-0.3-0.2-0.7-0.2-1.1c0-0.5,0.1-0.9,0.3-1.3
		c0.2-0.4,0.5-0.7,0.9-1c0.4-0.3,0.8-0.5,1.3-0.6c0.5-0.1,1-0.2,1.5-0.2c1,0,1.8,0.2,2.6,0.6v1.5c-0.9-0.5-1.8-0.8-2.8-0.8
		c-0.4,0-0.7,0-1,0.1c-0.3,0.1-0.5,0.2-0.8,0.4c-0.2,0.2-0.4,0.4-0.5,0.6c-0.1,0.2-0.2,0.5-0.2,0.7c0,0.3,0,0.5,0.1,0.7
		c0.1,0.2,0.2,0.4,0.4,0.6c0.2,0.2,0.4,0.3,0.7,0.5c0.3,0.2,0.7,0.3,1.1,0.5c0.5,0.2,1,0.4,1.4,0.7c0.4,0.2,0.7,0.5,1,0.7
		c0.3,0.3,0.5,0.5,0.6,0.8c0.1,0.3,0.2,0.7,0.2,1.1c0,0.5-0.1,1-0.3,1.4c-0.2,0.4-0.5,0.7-0.9,1c-0.4,0.3-0.8,0.5-1.3,0.6
		c-0.5,0.1-1.1,0.2-1.6,0.2c-1.2,0-2.1-0.2-2.9-0.7V328.4z"/>
	<path class="st1" d="M354.2,334v-19.4h3.8v1.1h-2.5v17.1h2.5v1.1H354.2z"/>
	<path class="st1" d="M361.1,316.3c-0.3,0-0.5-0.1-0.7-0.3c-0.2-0.2-0.3-0.4-0.3-0.7c0-0.3,0.1-0.5,0.3-0.7c0.2-0.2,0.4-0.3,0.7-0.3
		c0.1,0,0.3,0,0.4,0.1c0.1,0,0.2,0.1,0.3,0.2c0.1,0.1,0.2,0.2,0.2,0.3c0.1,0.1,0.1,0.3,0.1,0.4c0,0.1,0,0.3-0.1,0.4
		c-0.1,0.1-0.1,0.2-0.2,0.3c-0.1,0.1-0.2,0.2-0.3,0.2C361.4,316.2,361.3,316.3,361.1,316.3z M360.4,330.4v-11.3h1.4v11.3H360.4z"/>
	<path class="st1" d="M364.3,334v-1.1h2.5v-17.1h-2.5v-1.1h3.8V334H364.3z"/>
	<path class="st1" d="M69.1,354.4c-0.3-0.2-0.8-0.4-1.3-0.4c-0.4,0-0.7,0.1-1,0.2c-0.3,0.1-0.5,0.3-0.8,0.6
		c-0.2,0.2-0.4,0.5-0.6,0.8c-0.2,0.3-0.3,0.7-0.4,1c-0.1,0.3-0.2,0.7-0.2,1c0,0.4-0.1,0.7-0.1,1v5.5h-1.4v-11.3h1.4v2.4h0
		c0.1-0.4,0.3-0.8,0.5-1.1c0.2-0.3,0.4-0.6,0.7-0.8c0.3-0.2,0.6-0.4,0.9-0.5c0.3-0.1,0.6-0.2,1-0.2c0.2,0,0.4,0,0.6,0
		c0.2,0,0.3,0.1,0.5,0.1V354.4z"/>
	<path class="st1" d="M71.6,358.8c0,0.7,0.1,1.3,0.3,1.9c0.2,0.5,0.4,1,0.8,1.4c0.3,0.4,0.7,0.7,1.2,0.9c0.5,0.2,1,0.3,1.6,0.3
		c1.3,0,2.5-0.4,3.6-1.3v1.4c-1.1,0.8-2.4,1.2-4,1.2c-0.8,0-1.5-0.1-2.1-0.4c-0.6-0.3-1.2-0.6-1.6-1.2c-0.4-0.5-0.8-1.1-1-1.9
		c-0.2-0.7-0.4-1.6-0.4-2.5c0-0.8,0.1-1.6,0.4-2.3c0.3-0.7,0.6-1.3,1.1-1.9c0.5-0.5,1-0.9,1.6-1.2s1.3-0.4,2.1-0.4
		c0.7,0,1.4,0.1,1.9,0.4c0.6,0.3,1,0.6,1.4,1.1c0.4,0.5,0.7,1,0.9,1.7c0.2,0.7,0.3,1.4,0.3,2.3v0.7H71.6z M78.3,357.6
		c0-1.2-0.3-2.1-0.8-2.7c-0.5-0.6-1.3-1-2.3-1c-0.5,0-0.9,0.1-1.3,0.3c-0.4,0.2-0.8,0.4-1.1,0.7c-0.3,0.3-0.6,0.7-0.8,1.2
		c-0.2,0.5-0.3,1-0.4,1.5H78.3z"/>
	<path class="st1" d="M87.5,364.1c-0.5,0.2-1,0.4-1.6,0.4c-1.8,0-2.8-1.1-2.8-3.1v-7.1h-2v-1.2h2v-2.8l1.4-0.5v3.3h2.9v1.2h-2.9v6.9
		c0,0.8,0.1,1.3,0.4,1.7c0.3,0.3,0.7,0.5,1.3,0.5c0.4,0,0.9-0.1,1.3-0.4V364.1z"/>
	<path class="st1" d="M97.3,364.2v-1.9h0c-0.8,1.5-2,2.2-3.6,2.2c-2.7,0-4.1-1.6-4.1-4.9v-6.6H91v6.4c0,1.4,0.2,2.3,0.7,3
		c0.5,0.6,1.2,1,2.2,1c0.5,0,0.9-0.1,1.3-0.3s0.8-0.5,1-0.8c0.3-0.3,0.5-0.7,0.7-1.2c0.2-0.5,0.2-1,0.2-1.6v-6.4h1.4v11.3H97.3z"/>
	<path class="st1" d="M108,354.4c-0.3-0.2-0.8-0.4-1.3-0.4c-0.4,0-0.7,0.1-1,0.2c-0.3,0.1-0.5,0.3-0.8,0.6c-0.2,0.2-0.4,0.5-0.6,0.8
		c-0.2,0.3-0.3,0.7-0.4,1c-0.1,0.3-0.2,0.7-0.2,1c0,0.4-0.1,0.7-0.1,1v5.5h-1.4v-11.3h1.4v2.4h0c0.1-0.4,0.3-0.8,0.5-1.1
		c0.2-0.3,0.4-0.6,0.7-0.8c0.3-0.2,0.6-0.4,0.9-0.5c0.3-0.1,0.6-0.2,1-0.2c0.2,0,0.4,0,0.6,0c0.2,0,0.3,0.1,0.5,0.1V354.4z"/>
	<path class="st1" d="M117.7,364.2v-6.5c0-2.5-0.9-3.8-2.8-3.8c-0.5,0-1,0.1-1.4,0.3c-0.4,0.2-0.8,0.5-1.1,0.8
		c-0.3,0.3-0.5,0.8-0.7,1.2c-0.2,0.5-0.3,1-0.3,1.5v6.5h-1.4v-11.3h1.4v2h0c0.8-1.5,2.1-2.2,3.8-2.2c1.2,0,2.2,0.4,2.8,1.2
		c0.7,0.8,1,2,1,3.5v6.9H117.7z"/>
	<path class="st1" d="M136.5,364.2v-6.5c0-2.5-0.9-3.8-2.8-3.8c-0.5,0-1,0.1-1.4,0.3c-0.4,0.2-0.8,0.5-1.1,0.8
		c-0.3,0.3-0.5,0.8-0.7,1.2c-0.2,0.5-0.3,1-0.3,1.5v6.5h-1.4v-11.3h1.4v2h0c0.8-1.5,2.1-2.2,3.8-2.2c1.2,0,2.2,0.4,2.8,1.2
		c0.7,0.8,1,2,1,3.5v6.9H136.5z"/>
	<path class="st1" d="M142.1,358.8c0,0.7,0.1,1.3,0.3,1.9c0.2,0.5,0.4,1,0.8,1.4c0.3,0.4,0.7,0.7,1.2,0.9c0.5,0.2,1,0.3,1.6,0.3
		c1.3,0,2.5-0.4,3.6-1.3v1.4c-1.1,0.8-2.4,1.2-4,1.2c-0.8,0-1.5-0.1-2.1-0.4c-0.6-0.3-1.2-0.6-1.6-1.2s-0.8-1.1-1-1.9
		c-0.2-0.7-0.4-1.6-0.4-2.5c0-0.8,0.1-1.6,0.4-2.3c0.3-0.7,0.6-1.3,1.1-1.9c0.5-0.5,1-0.9,1.6-1.2c0.6-0.3,1.3-0.4,2.1-0.4
		c0.7,0,1.4,0.1,1.9,0.4c0.6,0.3,1,0.6,1.4,1.1c0.4,0.5,0.7,1,0.9,1.7c0.2,0.7,0.3,1.4,0.3,2.3v0.7H142.1z M148.8,357.6
		c0-1.2-0.3-2.1-0.8-2.7c-0.5-0.6-1.3-1-2.3-1c-0.5,0-0.9,0.1-1.3,0.3c-0.4,0.2-0.8,0.4-1.1,0.7c-0.3,0.3-0.6,0.7-0.8,1.2
		c-0.2,0.5-0.3,1-0.4,1.5H148.8z"/>
	<path class="st1" d="M163.4,364.2H162l-2.4-8.3c-0.1-0.3-0.1-0.6-0.2-1h0c0,0.1,0,0.2-0.1,0.4c0,0.2-0.1,0.4-0.2,0.6l-2.7,8.3H155
		l-3.4-11.3h1.5l2.5,8.7c0.1,0.3,0.1,0.6,0.2,1h0.1c0-0.1,0-0.3,0.1-0.5c0-0.2,0.1-0.3,0.1-0.5l2.8-8.7h1.2l2.5,8.8
		c0.1,0.3,0.1,0.6,0.2,1h0.1c0-0.1,0-0.3,0-0.4c0-0.2,0.1-0.3,0.1-0.5l2.5-8.8h1.4L163.4,364.2z"/>
	<path class="st1" d="M176.7,364.2v-6.5c0-2.5-0.9-3.8-2.8-3.8c-0.5,0-1,0.1-1.4,0.3c-0.4,0.2-0.8,0.5-1.1,0.8
		c-0.3,0.3-0.5,0.8-0.7,1.2c-0.2,0.5-0.3,1-0.3,1.5v6.5H169v-11.3h1.4v2h0c0.8-1.5,2.1-2.2,3.8-2.2c1.2,0,2.2,0.4,2.8,1.2
		c0.7,0.8,1,2,1,3.5v6.9H176.7z"/>
	<path class="st1" d="M189,364.2v-1.9h0c-0.8,1.5-2,2.2-3.6,2.2c-2.7,0-4.1-1.6-4.1-4.9v-6.6h1.4v6.4c0,1.4,0.2,2.3,0.7,3
		c0.5,0.6,1.2,1,2.2,1c0.5,0,0.9-0.1,1.3-0.3c0.4-0.2,0.8-0.5,1-0.8c0.3-0.3,0.5-0.7,0.7-1.2c0.2-0.5,0.2-1,0.2-1.6v-6.4h1.4v11.3
		H189z"/>
	<path class="st1" d="M208.4,364.2v-6.6c0-0.7-0.1-1.2-0.2-1.7c-0.1-0.5-0.3-0.8-0.5-1.1c-0.2-0.3-0.5-0.5-0.8-0.6
		c-0.3-0.1-0.7-0.2-1.2-0.2c-0.4,0-0.8,0.1-1.2,0.3c-0.4,0.2-0.7,0.5-1,0.8c-0.3,0.3-0.5,0.7-0.7,1.2c-0.2,0.5-0.2,1-0.2,1.5v6.5
		h-1.4v-6.8c0-2.4-0.9-3.5-2.7-3.5c-0.4,0-0.8,0.1-1.2,0.3c-0.4,0.2-0.7,0.4-1,0.8c-0.3,0.3-0.5,0.7-0.6,1.2c-0.2,0.5-0.2,1-0.2,1.6
		v6.5h-1.4v-11.3h1.4v1.8h0c0.8-1.4,2-2.1,3.5-2.1c0.4,0,0.8,0.1,1.1,0.2c0.4,0.1,0.7,0.3,1,0.5c0.3,0.2,0.5,0.5,0.7,0.8
		c0.2,0.3,0.4,0.6,0.5,1c0.4-0.8,0.9-1.4,1.6-1.8c0.6-0.4,1.4-0.6,2.2-0.6c2.5,0,3.7,1.5,3.7,4.6v7H208.4z"/>
	<path class="st1" d="M83.9,385.3c-0.2,0-0.5-0.1-0.6-0.3c-0.2-0.2-0.3-0.4-0.3-0.7c0-0.3,0.1-0.5,0.3-0.6c0.2-0.2,0.4-0.3,0.6-0.3
		c0.1,0,0.2,0,0.4,0.1c0.1,0,0.2,0.1,0.3,0.2c0.1,0.1,0.2,0.2,0.2,0.3c0.1,0.1,0.1,0.2,0.1,0.4c0,0.1,0,0.2-0.1,0.4
		c0,0.1-0.1,0.2-0.2,0.3c-0.1,0.1-0.2,0.1-0.3,0.2C84.1,385.3,84,385.3,83.9,385.3z M83.2,398v-10.1h1.3V398H83.2z"/>
	<path class="st1" d="M87.6,392.8v-1.1h5.5v1.1H87.6z"/>
	<path class="st1" d="M96.6,390.6v-1.1h9.3v1.1H96.6z M96.6,394.7v-1.1h9.3v1.1H96.6z"/>
	<path class="st1" d="M112.3,398v-12.7c-0.2,0.2-0.5,0.4-0.8,0.6c-0.3,0.2-0.6,0.4-0.9,0.5c-0.3,0.2-0.6,0.3-0.9,0.4
		c-0.3,0.1-0.6,0.2-0.8,0.3v-1.1c0.8-0.3,1.5-0.6,2.3-1c0.7-0.4,1.4-0.9,2.1-1.5h0.4V398H112.3z"/>
	<g>
		<path class="st2" d="M33.8,210.5v29.3H20.4V159h24.7c9.4,0,16.6,2.2,21.8,6.5c5.1,4.3,7.7,10.4,7.7,18.3c0,7.9-2.7,14.3-8.1,19.3
			c-5.4,5-12.6,7.5-21.8,7.5H33.8z M33.8,170v29.5h8.7c5.8,0,10.2-1.3,13.2-4c3-2.7,4.5-6.4,4.5-11.3c0-9.5-5.6-14.3-16.7-14.3H33.8
			z"/>
		<path class="st2" d="M137.3,182.1l-26.2,67C105.6,261,97.9,267,88.1,267c-2.8,0-5.1-0.2-6.9-0.7v-10.9c2.1,0.7,4,1,5.7,1
			c4.9,0,8.6-2.4,11-7.2l3.9-9.5l-23.1-57.6h14.6l13.9,41.9c0.2,0.5,0.5,1.9,1,4.2h0.3c0.2-0.9,0.5-2.2,1-4.1l14.5-42H137.3z"/>
		<path class="st2" d="M177,239.2c-2.6,1.3-6,1.9-10.2,1.9c-11.3,0-16.9-5.4-16.9-16.1v-32.6h-9.7v-10.3h9.7v-13.4L163,165v17.1H177
			v10.3H163v28.9c0,3.4,0.6,5.9,1.9,7.3s3.3,2.2,6.2,2.2c2.2,0,4.2-0.6,5.8-1.9V239.2z"/>
		<path class="st2" d="M240,239.8h-13.2v-31.6c0-11.4-3.8-17.1-11.5-17.1c-3.9,0-7.1,1.7-9.8,5c-2.7,3.3-4,7.5-4,12.7v31.1h-13.2
			v-85.4h13.2v37.3h0.2c4.4-7.3,10.7-10.9,18.9-10.9c12.9,0,19.4,7.8,19.4,23.5V239.8z"/>
		<path class="st2" d="M281.8,241.2c-9,0-16.1-2.7-21.5-8.1c-5.4-5.4-8-12.5-8-21.4c0-9.7,2.8-17.3,8.4-22.7
			c5.6-5.4,13.1-8.2,22.6-8.2c9.1,0,16.2,2.6,21.2,7.9c5.1,5.3,7.6,12.6,7.6,22c0,9.2-2.7,16.6-8.2,22.1
			C298.4,238.4,291.1,241.2,281.8,241.2z M282.4,191.2c-5.2,0-9.2,1.8-12.2,5.4c-3,3.6-4.5,8.5-4.5,14.8c0,6.1,1.5,10.8,4.5,14.3
			c3,3.5,7.1,5.2,12.2,5.2c5.2,0,9.2-1.7,12-5.1c2.8-3.4,4.2-8.3,4.2-14.6c0-6.3-1.4-11.3-4.2-14.7
			C291.6,192.9,287.6,191.2,282.4,191.2z"/>
		<path class="st2" d="M377.3,239.8h-13.2v-32.5c0-10.8-3.8-16.2-11.5-16.2c-4,0-7.3,1.5-9.9,4.5c-2.6,3-3.9,6.8-3.9,11.3v32.9
			h-13.2v-57.7h13.2v9.6h0.2c4.4-7.3,10.6-10.9,18.9-10.9c6.3,0,11.2,2,14.5,6.1c3.3,4.1,5,10,5,17.7V239.8z"/>
	</g>
</g>
</svg>
