<?xml version="1.0" encoding="utf-8"?>
<!-- Generator: Adobe Illustrator 24.0.1, SVG Export Plug-In . SVG Version: 6.00 Build 0)  -->
<svg version="1.1" id="Слой_1" xmlns="http://www.w3.org/2000/svg" xmlns:xlink="http://www.w3.org/1999/xlink" x="0px" y="0px"
	 viewBox="0 0 100 100" style="enable-background:new 0 0 100 100;" xml:space="preserve">
<style type="text/css">
	.st0{fill:#4D4D4D;}
</style>
<path class="st0" d="M59.1,42.2c0.2-0.2,0.3-0.4,0.3-0.7c0-0.5-0.1-1.1-1.3-0.5C56.3,41.7,37,53.6,37,53.6s-3.2,1.9-5.7,1.5
	s-10.7-2.4-11.5-3.2c-0.8-0.9-1.3-1.9,0.9-2.9c2.2-1,44-17.3,46.8-17.8c2.8-0.4,5.8-1.4,5.2,3s-4.8,30.6-5.6,32.6
	c-0.8,2-2.7,5.5-6,3.8c-3.3-1.7-17.2-10.5-17.2-10.5s-3.4-1.4-0.3-4.2C46.1,53.5,57.2,43.8,59.1,42.2z"/>
</svg>
