<?xml version="1.0" encoding="utf-8"?>
<!-- Generator: Adobe Illustrator 24.0.1, SVG Export Plug-In . SVG Version: 6.00 Build 0)  -->
<svg version="1.1" id="Слой_1" xmlns="http://www.w3.org/2000/svg" xmlns:xlink="http://www.w3.org/1999/xlink" x="0px" y="0px"
	 viewBox="0 0 385 411" style="enable-background:new 0 0 385 411;" xml:space="preserve">
<style type="text/css">
	.st0{fill:#F2F2F2;}
	.st1{opacity:0.5;fill:#666666;}
	.st2{fill:#4D4D4D;}
</style>
<path class="st0" d="M359.2,411H25.8C11.6,411,0,399.4,0,385.2V25.8C0,11.6,11.6,0,25.8,0h333.4C373.4,0,385,11.6,385,25.8v359.4
	C385,399.4,373.4,411,359.2,411z"/>
<g>
	<path class="st1" d="M33.2,25.3h-2.7l-0.7,2.5h2.9l-0.2,0.7h-2.8l-0.9,3h-1l0.9-3H26l-0.9,3h-1l0.9-3h-2.8l0.2-0.7h2.8l0.7-2.5
		h-2.9l0.2-0.7H26l0.9-3.1h1l-0.9,3.1h2.6l0.9-3.1h1l-0.9,3.1h2.7L33.2,25.3z M26.9,25.3l-0.7,2.5h2.6l0.7-2.5H26.9z"/>
	<path class="st1" d="M36.4,22.6c-0.2,0-0.5-0.1-0.6-0.2c-0.2-0.1-0.3-0.3-0.3-0.5c0-0.2,0.1-0.4,0.3-0.5s0.4-0.2,0.6-0.2
		c0.1,0,0.2,0,0.4,0.1c0.1,0,0.2,0.1,0.3,0.1c0.1,0.1,0.2,0.1,0.2,0.2c0.1,0.1,0.1,0.2,0.1,0.3c0,0.1,0,0.2-0.1,0.3
		c0,0.1-0.1,0.2-0.2,0.2c-0.1,0.1-0.2,0.1-0.3,0.1S36.5,22.6,36.4,22.6z M35.8,32.4v-7.8h1.3v7.8H35.8z"/>
	<path class="st1" d="M47.4,32.4v-4.5c0-1.8-0.9-2.6-2.6-2.6c-0.5,0-0.9,0.1-1.3,0.2c-0.4,0.1-0.7,0.3-1,0.6
		c-0.3,0.2-0.5,0.5-0.7,0.9c-0.2,0.3-0.2,0.7-0.2,1.1v4.5h-1.3v-7.8h1.3V26h0c0.8-1,1.9-1.5,3.5-1.5c1.1,0,2,0.3,2.6,0.8
		c0.6,0.6,0.9,1.4,0.9,2.4v4.8H47.4z"/>
	<path class="st1" d="M58.7,32.1c-0.8,0.4-1.7,0.5-2.8,0.5c-0.7,0-1.4-0.1-2-0.3c-0.6-0.2-1.1-0.5-1.5-0.8c-0.4-0.4-0.7-0.8-1-1.3
		c-0.2-0.5-0.3-1-0.3-1.6c0-0.6,0.1-1.1,0.4-1.7c0.2-0.5,0.6-1,1-1.3c0.5-0.4,1-0.7,1.7-0.9c0.7-0.2,1.4-0.3,2.2-0.3
		c0.9,0,1.6,0.1,2.3,0.4v1c-0.8-0.4-1.6-0.6-2.4-0.6c-0.6,0-1.2,0.1-1.6,0.3c-0.5,0.2-0.9,0.4-1.2,0.7c-0.3,0.3-0.6,0.7-0.7,1.1
		c-0.2,0.4-0.3,0.8-0.3,1.3c0,0.4,0.1,0.8,0.2,1.2c0.1,0.4,0.4,0.7,0.7,1c0.3,0.3,0.7,0.5,1.1,0.7c0.5,0.2,1,0.3,1.6,0.3
		c1,0,1.8-0.2,2.6-0.7V32.1z"/>
	<path class="st1" d="M61.2,32.4V20.9h1.3v11.6H61.2z"/>
	<path class="st1" d="M72.6,32.4v-1.3h0c-0.7,1-1.8,1.5-3.3,1.5c-2.5,0-3.7-1.1-3.7-3.4v-4.6h1.3V29c0,0.9,0.2,1.6,0.7,2.1
		c0.4,0.4,1.1,0.7,2,0.7c0.4,0,0.9-0.1,1.2-0.2c0.4-0.1,0.7-0.3,1-0.5c0.3-0.2,0.5-0.5,0.6-0.9c0.1-0.3,0.2-0.7,0.2-1.1v-4.5h1.3
		v7.8H72.6z"/>
	<path class="st1" d="M84.5,32.4v-1.4h0c-0.3,0.5-0.8,0.9-1.5,1.1c-0.6,0.3-1.4,0.4-2.2,0.4c-0.6,0-1.2-0.1-1.8-0.3
		c-0.5-0.2-1-0.4-1.4-0.8s-0.7-0.8-0.9-1.2c-0.2-0.5-0.3-1-0.3-1.6c0-0.6,0.1-1.2,0.3-1.7c0.2-0.5,0.5-1,1-1.3s0.9-0.7,1.5-0.9
		c0.6-0.2,1.2-0.3,1.9-0.3c1.5,0,2.6,0.4,3.2,1.3h0v-4.9h1.3v11.6H84.5z M84.5,27.7c0-0.3-0.1-0.7-0.2-1c-0.2-0.3-0.4-0.6-0.6-0.8
		c-0.3-0.2-0.6-0.4-1-0.5s-0.8-0.2-1.3-0.2c-0.5,0-1,0.1-1.4,0.2c-0.4,0.2-0.8,0.4-1.1,0.7c-0.3,0.3-0.5,0.6-0.7,1s-0.3,0.9-0.3,1.4
		c0,0.5,0.1,0.9,0.2,1.3s0.4,0.7,0.7,1c0.3,0.3,0.6,0.5,1,0.6c0.4,0.1,0.8,0.2,1.3,0.2c0.5,0,1-0.1,1.4-0.2c0.4-0.1,0.8-0.3,1.1-0.6
		c0.3-0.2,0.5-0.5,0.7-0.9c0.2-0.3,0.2-0.7,0.2-1.1V27.7z"/>
	<path class="st1" d="M89.8,28.7c0,0.5,0.1,0.9,0.3,1.3c0.2,0.4,0.4,0.7,0.7,1c0.3,0.3,0.7,0.5,1.1,0.6s0.9,0.2,1.5,0.2
		c1.2,0,2.3-0.3,3.3-0.9v1c-1,0.5-2.2,0.8-3.6,0.8c-0.7,0-1.3-0.1-1.9-0.3c-0.6-0.2-1-0.4-1.4-0.8c-0.4-0.3-0.7-0.8-0.9-1.3
		c-0.2-0.5-0.3-1.1-0.3-1.7c0-0.6,0.1-1.1,0.4-1.6c0.2-0.5,0.6-0.9,1-1.3c0.4-0.4,0.9-0.6,1.5-0.9c0.6-0.2,1.2-0.3,1.9-0.3
		c0.7,0,1.3,0.1,1.8,0.3c0.5,0.2,0.9,0.4,1.3,0.8c0.3,0.3,0.6,0.7,0.8,1.2c0.2,0.5,0.3,1,0.3,1.6v0.5H89.8z M95.9,27.8
		c0-0.8-0.3-1.4-0.8-1.9c-0.5-0.4-1.2-0.7-2.1-0.7c-0.4,0-0.8,0.1-1.2,0.2c-0.4,0.1-0.7,0.3-1,0.5c-0.3,0.2-0.5,0.5-0.7,0.8
		c-0.2,0.3-0.3,0.7-0.4,1.1H95.9z"/>
	<path class="st1" d="M106.4,28.1v-0.3l8.6-3.6v0.9l-6.7,2.8v0l6.7,2.5v0.9L106.4,28.1z"/>
	<path class="st1" d="M120,22.6c-0.2,0-0.5-0.1-0.6-0.2c-0.2-0.1-0.3-0.3-0.3-0.5c0-0.2,0.1-0.4,0.3-0.5s0.4-0.2,0.6-0.2
		c0.1,0,0.2,0,0.4,0.1c0.1,0,0.2,0.1,0.3,0.1c0.1,0.1,0.2,0.1,0.2,0.2s0.1,0.2,0.1,0.3c0,0.1,0,0.2-0.1,0.3c0,0.1-0.1,0.2-0.2,0.2
		c-0.1,0.1-0.2,0.1-0.3,0.1C120.2,22.6,120.1,22.6,120,22.6z M119.3,32.4v-7.8h1.3v7.8H119.3z"/>
	<path class="st1" d="M128.2,32.6c-0.8,0-1.5-0.1-2.1-0.3c-0.6-0.2-1.1-0.5-1.6-0.8s-0.8-0.8-1-1.3c-0.2-0.5-0.3-1-0.3-1.6
		c0-0.6,0.1-1.2,0.4-1.7c0.2-0.5,0.6-0.9,1-1.3c0.4-0.4,1-0.6,1.6-0.8c0.6-0.2,1.3-0.3,2.1-0.3c0.7,0,1.4,0.1,2,0.3
		c0.6,0.2,1.1,0.5,1.5,0.8c0.4,0.4,0.7,0.8,1,1.3c0.2,0.5,0.3,1.1,0.3,1.7c0,0.6-0.1,1.2-0.3,1.7c-0.2,0.5-0.6,0.9-1,1.3
		c-0.4,0.4-1,0.6-1.6,0.8C129.7,32.5,129,32.6,128.2,32.6z M128.3,25.3c-0.6,0-1.1,0.1-1.5,0.2c-0.5,0.1-0.9,0.4-1.2,0.6
		c-0.3,0.3-0.6,0.6-0.8,1c-0.2,0.4-0.3,0.9-0.3,1.4c0,0.5,0.1,0.9,0.3,1.3c0.2,0.4,0.4,0.7,0.7,1c0.3,0.3,0.7,0.5,1.2,0.6
		c0.5,0.1,1,0.2,1.5,0.2c0.6,0,1.1-0.1,1.5-0.2c0.4-0.1,0.8-0.4,1.1-0.6s0.5-0.6,0.7-1s0.2-0.9,0.2-1.4c0-1.1-0.3-1.9-0.9-2.4
		C130.3,25.6,129.4,25.3,128.3,25.3z"/>
	<path class="st1" d="M135.2,31c0.2,0.1,0.4,0.2,0.6,0.3c0.2,0.1,0.5,0.2,0.7,0.2c0.2,0.1,0.5,0.1,0.7,0.1c0.2,0,0.5,0.1,0.7,0.1
		c1.5,0,2.3-0.4,2.3-1.3c0-0.2-0.1-0.4-0.2-0.5c-0.1-0.1-0.3-0.3-0.5-0.4c-0.2-0.1-0.4-0.2-0.7-0.3s-0.6-0.2-1-0.3
		c-0.5-0.1-0.9-0.3-1.2-0.4c-0.3-0.2-0.6-0.3-0.9-0.5c-0.2-0.2-0.4-0.4-0.5-0.6c-0.1-0.2-0.2-0.5-0.2-0.7c0-0.3,0.1-0.7,0.3-0.9
		c0.2-0.3,0.5-0.5,0.8-0.7c0.3-0.2,0.7-0.3,1.2-0.4c0.4-0.1,0.9-0.1,1.4-0.1c0.9,0,1.7,0.1,2.3,0.4v1c-0.8-0.4-1.6-0.6-2.5-0.6
		c-0.3,0-0.6,0-0.9,0.1c-0.3,0.1-0.5,0.1-0.7,0.3c-0.2,0.1-0.3,0.2-0.4,0.4c-0.1,0.2-0.2,0.3-0.2,0.5c0,0.2,0,0.4,0.1,0.5
		c0.1,0.1,0.2,0.3,0.4,0.4c0.2,0.1,0.4,0.2,0.7,0.3c0.3,0.1,0.6,0.2,1,0.3c0.5,0.2,0.9,0.3,1.3,0.5c0.4,0.1,0.7,0.3,0.9,0.5
		c0.2,0.2,0.4,0.4,0.5,0.6c0.1,0.2,0.2,0.5,0.2,0.8c0,0.4-0.1,0.7-0.3,0.9c-0.2,0.3-0.5,0.5-0.8,0.7s-0.7,0.3-1.2,0.4
		c-0.5,0.1-1,0.1-1.5,0.1c-1,0-1.9-0.2-2.6-0.5V31z"/>
	<path class="st1" d="M148.7,32.3c-0.4,0.2-0.9,0.3-1.5,0.3c-1.7,0-2.5-0.7-2.5-2.2v-4.9h-1.8v-0.9h1.8v-2l1.3-0.3v2.3h2.7v0.9H146
		v4.8c0,0.5,0.1,0.9,0.3,1.1c0.2,0.2,0.6,0.4,1.2,0.4c0.4,0,0.8-0.1,1.2-0.3V32.3z"/>
	<path class="st1" d="M156,25.6c-0.3-0.2-0.7-0.3-1.2-0.3c-0.3,0-0.6,0-0.9,0.1c-0.3,0.1-0.5,0.2-0.7,0.4c-0.2,0.2-0.4,0.4-0.5,0.6
		c-0.1,0.2-0.2,0.5-0.3,0.7c-0.1,0.2-0.1,0.5-0.2,0.7c0,0.2-0.1,0.5-0.1,0.7v3.8h-1.3v-7.8h1.3v1.7h0c0.1-0.3,0.3-0.5,0.5-0.8
		s0.4-0.4,0.6-0.6c0.2-0.2,0.5-0.3,0.8-0.4c0.3-0.1,0.6-0.1,0.9-0.1c0.2,0,0.4,0,0.6,0c0.2,0,0.3,0.1,0.5,0.1V25.6z"/>
	<path class="st1" d="M158.2,28.7c0,0.5,0.1,0.9,0.3,1.3c0.2,0.4,0.4,0.7,0.7,1c0.3,0.3,0.7,0.5,1.1,0.6c0.4,0.1,0.9,0.2,1.5,0.2
		c1.2,0,2.3-0.3,3.3-0.9v1c-1,0.5-2.2,0.8-3.6,0.8c-0.7,0-1.3-0.1-1.9-0.3c-0.6-0.2-1-0.4-1.4-0.8c-0.4-0.3-0.7-0.8-0.9-1.3
		c-0.2-0.5-0.3-1.1-0.3-1.7c0-0.6,0.1-1.1,0.4-1.6c0.2-0.5,0.6-0.9,1-1.3c0.4-0.4,0.9-0.6,1.5-0.9c0.6-0.2,1.2-0.3,1.9-0.3
		c0.7,0,1.3,0.1,1.8,0.3c0.5,0.2,0.9,0.4,1.3,0.8c0.3,0.3,0.6,0.7,0.8,1.2c0.2,0.5,0.3,1,0.3,1.6v0.5H158.2z M164.4,27.8
		c0-0.8-0.3-1.4-0.8-1.9c-0.5-0.4-1.2-0.7-2.1-0.7c-0.4,0-0.8,0.1-1.2,0.2c-0.4,0.1-0.7,0.3-1,0.5c-0.3,0.2-0.5,0.5-0.7,0.8
		s-0.3,0.7-0.4,1.1H164.4z"/>
	<path class="st1" d="M174.2,32.4V31h0c-0.3,0.5-0.8,0.9-1.4,1.2c-0.6,0.3-1.2,0.4-2,0.4c-0.5,0-1-0.1-1.4-0.2
		c-0.4-0.1-0.7-0.3-1-0.5c-0.3-0.2-0.5-0.4-0.6-0.7c-0.2-0.3-0.2-0.6-0.2-0.9c0-0.7,0.3-1.3,0.9-1.7c0.6-0.4,1.5-0.7,2.6-0.8
		l3.1-0.3c0-1.5-0.8-2.2-2.3-2.2c-1.2,0-2.3,0.3-3.4,1v-1.1c0.2-0.1,0.5-0.2,0.7-0.3c0.3-0.1,0.6-0.2,0.9-0.2
		c0.3-0.1,0.6-0.1,0.9-0.2c0.3,0,0.6-0.1,0.9-0.1c1.2,0,2,0.2,2.6,0.7c0.6,0.5,0.9,1.2,0.9,2.2v5.1H174.2z M171.5,28.6
		c-0.5,0.1-0.9,0.1-1.2,0.2c-0.3,0.1-0.6,0.2-0.8,0.3c-0.2,0.1-0.4,0.3-0.5,0.5c-0.1,0.2-0.2,0.4-0.2,0.7c0,0.2,0,0.4,0.1,0.6
		c0.1,0.2,0.2,0.3,0.4,0.5c0.2,0.1,0.4,0.2,0.7,0.3c0.3,0.1,0.6,0.1,0.9,0.1c0.5,0,0.9-0.1,1.3-0.2c0.4-0.1,0.7-0.3,1-0.5
		s0.5-0.5,0.7-0.8c0.2-0.3,0.2-0.7,0.2-1.1v-0.8L171.5,28.6z"/>
	<path class="st1" d="M191.7,32.4v-4.6c0-0.5,0-0.9-0.1-1.2c-0.1-0.3-0.2-0.6-0.4-0.8c-0.2-0.2-0.5-0.4-0.8-0.4s-0.7-0.1-1.1-0.1
		c-0.4,0-0.7,0.1-1.1,0.2c-0.3,0.1-0.6,0.3-0.9,0.6c-0.3,0.2-0.5,0.5-0.6,0.8c-0.1,0.3-0.2,0.7-0.2,1v4.5h-1.3v-4.7
		c0-1.6-0.8-2.5-2.5-2.5c-0.4,0-0.7,0.1-1.1,0.2c-0.3,0.1-0.6,0.3-0.9,0.5c-0.2,0.2-0.4,0.5-0.6,0.8c-0.1,0.3-0.2,0.7-0.2,1.1v4.5
		h-1.3v-7.8h1.3v1.3h0c0.7-1,1.8-1.4,3.2-1.4c0.4,0,0.7,0,1,0.1c0.3,0.1,0.6,0.2,0.9,0.4c0.3,0.1,0.5,0.3,0.7,0.5
		c0.2,0.2,0.3,0.4,0.4,0.7c0.4-0.6,0.8-1,1.4-1.3c0.6-0.3,1.2-0.4,2-0.4c2.3,0,3.4,1.1,3.4,3.2v4.8H191.7z"/>
	<path class="st1" d="M197,31.3v-0.9l6.7-2.5v0l-6.7-2.8v-0.9l8.6,3.6v0.3L197,31.3z"/>
	<path class="st1" d="M33.2,51.3h-2.7l-0.7,2.5h2.9l-0.2,0.7h-2.8l-0.9,3h-1l0.9-3H26l-0.9,3h-1l0.9-3h-2.8l0.2-0.7h2.8l0.7-2.5
		h-2.9l0.2-0.7H26l0.9-3.1h1l-0.9,3.1h2.6l0.9-3.1h1l-0.9,3.1h2.7L33.2,51.3z M26.9,51.3l-0.7,2.5h2.6l0.7-2.5H26.9z"/>
	<path class="st1" d="M36.4,48.7c-0.2,0-0.5-0.1-0.6-0.2c-0.2-0.1-0.3-0.3-0.3-0.5c0-0.2,0.1-0.4,0.3-0.5c0.2-0.1,0.4-0.2,0.6-0.2
		c0.1,0,0.2,0,0.4,0.1c0.1,0,0.2,0.1,0.3,0.1c0.1,0.1,0.2,0.1,0.2,0.2c0.1,0.1,0.1,0.2,0.1,0.3c0,0.1,0,0.2-0.1,0.3
		c0,0.1-0.1,0.2-0.2,0.2c-0.1,0.1-0.2,0.1-0.3,0.1S36.5,48.7,36.4,48.7z M35.8,58.4v-7.8h1.3v7.8H35.8z"/>
	<path class="st1" d="M47.4,58.4v-4.5c0-1.8-0.9-2.6-2.6-2.6c-0.5,0-0.9,0.1-1.3,0.2c-0.4,0.1-0.7,0.3-1,0.6
		c-0.3,0.2-0.5,0.5-0.7,0.9c-0.2,0.3-0.2,0.7-0.2,1.1v4.5h-1.3v-7.8h1.3V52h0c0.8-1,1.9-1.5,3.5-1.5c1.1,0,2,0.3,2.6,0.8
		c0.6,0.6,0.9,1.4,0.9,2.4v4.8H47.4z"/>
	<path class="st1" d="M58.7,58.1c-0.8,0.4-1.7,0.5-2.8,0.5c-0.7,0-1.4-0.1-2-0.3c-0.6-0.2-1.1-0.5-1.5-0.8c-0.4-0.4-0.7-0.8-1-1.3
		c-0.2-0.5-0.3-1-0.3-1.6c0-0.6,0.1-1.1,0.4-1.7c0.2-0.5,0.6-1,1-1.3c0.5-0.4,1-0.7,1.7-0.9s1.4-0.3,2.2-0.3c0.9,0,1.6,0.1,2.3,0.4
		v1c-0.8-0.4-1.6-0.6-2.4-0.6c-0.6,0-1.2,0.1-1.6,0.3c-0.5,0.2-0.9,0.4-1.2,0.7c-0.3,0.3-0.6,0.7-0.7,1.1c-0.2,0.4-0.3,0.8-0.3,1.3
		c0,0.4,0.1,0.8,0.2,1.2c0.1,0.4,0.4,0.7,0.7,1c0.3,0.3,0.7,0.5,1.1,0.7c0.5,0.2,1,0.3,1.6,0.3c1,0,1.8-0.2,2.6-0.7V58.1z"/>
	<path class="st1" d="M61.2,58.4V46.9h1.3v11.6H61.2z"/>
	<path class="st1" d="M72.6,58.4v-1.3h0c-0.7,1-1.8,1.5-3.3,1.5c-2.5,0-3.7-1.1-3.7-3.4v-4.6h1.3V55c0,0.9,0.2,1.6,0.7,2.1
		c0.4,0.4,1.1,0.7,2,0.7c0.4,0,0.9-0.1,1.2-0.2c0.4-0.1,0.7-0.3,1-0.5c0.3-0.2,0.5-0.5,0.6-0.9c0.1-0.3,0.2-0.7,0.2-1.1v-4.5h1.3
		v7.8H72.6z"/>
	<path class="st1" d="M84.5,58.4v-1.4h0c-0.3,0.5-0.8,0.9-1.5,1.1c-0.6,0.3-1.4,0.4-2.2,0.4c-0.6,0-1.2-0.1-1.8-0.3
		c-0.5-0.2-1-0.4-1.4-0.8c-0.4-0.3-0.7-0.8-0.9-1.2c-0.2-0.5-0.3-1-0.3-1.6c0-0.6,0.1-1.2,0.3-1.7c0.2-0.5,0.5-1,1-1.3
		s0.9-0.7,1.5-0.9s1.2-0.3,1.9-0.3c1.5,0,2.6,0.4,3.2,1.3h0v-4.9h1.3v11.6H84.5z M84.5,53.7c0-0.3-0.1-0.7-0.2-1
		c-0.2-0.3-0.4-0.6-0.6-0.8c-0.3-0.2-0.6-0.4-1-0.5c-0.4-0.1-0.8-0.2-1.3-0.2c-0.5,0-1,0.1-1.4,0.2c-0.4,0.2-0.8,0.4-1.1,0.7
		c-0.3,0.3-0.5,0.6-0.7,1c-0.2,0.4-0.3,0.9-0.3,1.4c0,0.5,0.1,0.9,0.2,1.3s0.4,0.7,0.7,1s0.6,0.5,1,0.6c0.4,0.1,0.8,0.2,1.3,0.2
		c0.5,0,1-0.1,1.4-0.2c0.4-0.1,0.8-0.3,1.1-0.6c0.3-0.2,0.5-0.5,0.7-0.9c0.2-0.3,0.2-0.7,0.2-1.1V53.7z"/>
	<path class="st1" d="M89.8,54.7c0,0.5,0.1,0.9,0.3,1.3c0.2,0.4,0.4,0.7,0.7,1c0.3,0.3,0.7,0.5,1.1,0.6s0.9,0.2,1.5,0.2
		c1.2,0,2.3-0.3,3.3-0.9v1c-1,0.5-2.2,0.8-3.6,0.8c-0.7,0-1.3-0.1-1.9-0.3c-0.6-0.2-1-0.4-1.4-0.8c-0.4-0.3-0.7-0.8-0.9-1.3
		c-0.2-0.5-0.3-1.1-0.3-1.7c0-0.6,0.1-1.1,0.4-1.6c0.2-0.5,0.6-0.9,1-1.3c0.4-0.4,0.9-0.6,1.5-0.9s1.2-0.3,1.9-0.3
		c0.7,0,1.3,0.1,1.8,0.3c0.5,0.2,0.9,0.4,1.3,0.8c0.3,0.3,0.6,0.7,0.8,1.2s0.3,1,0.3,1.6v0.5H89.8z M95.9,53.9
		c0-0.8-0.3-1.4-0.8-1.9c-0.5-0.4-1.2-0.7-2.1-0.7c-0.4,0-0.8,0.1-1.2,0.2c-0.4,0.1-0.7,0.3-1,0.5c-0.3,0.2-0.5,0.5-0.7,0.8
		c-0.2,0.3-0.3,0.7-0.4,1.1H95.9z"/>
	<path class="st1" d="M106.4,54.1v-0.3l8.6-3.6v0.9l-6.7,2.8v0l6.7,2.5v0.9L106.4,54.1z"/>
	<path class="st1" d="M126.2,58.1c-0.8,0.4-1.7,0.5-2.8,0.5c-0.7,0-1.4-0.1-2-0.3s-1.1-0.5-1.5-0.8c-0.4-0.4-0.7-0.8-1-1.3
		c-0.2-0.5-0.3-1-0.3-1.6c0-0.6,0.1-1.1,0.4-1.7c0.2-0.5,0.6-1,1-1.3s1-0.7,1.7-0.9c0.7-0.2,1.4-0.3,2.2-0.3c0.9,0,1.6,0.1,2.3,0.4
		v1c-0.8-0.4-1.6-0.6-2.4-0.6c-0.6,0-1.2,0.1-1.6,0.3c-0.5,0.2-0.9,0.4-1.2,0.7c-0.3,0.3-0.6,0.7-0.7,1.1c-0.2,0.4-0.3,0.8-0.3,1.3
		c0,0.4,0.1,0.8,0.2,1.2c0.1,0.4,0.4,0.7,0.7,1c0.3,0.3,0.7,0.5,1.1,0.7c0.5,0.2,1,0.3,1.6,0.3c1,0,1.8-0.2,2.6-0.7V58.1z"/>
	<path class="st1" d="M128.1,57c0.2,0.1,0.4,0.2,0.6,0.3c0.2,0.1,0.5,0.2,0.7,0.2c0.2,0.1,0.5,0.1,0.7,0.1c0.2,0,0.5,0.1,0.7,0.1
		c1.5,0,2.3-0.4,2.3-1.3c0-0.2-0.1-0.4-0.2-0.5c-0.1-0.1-0.3-0.3-0.5-0.4s-0.4-0.2-0.7-0.3c-0.3-0.1-0.6-0.2-1-0.3
		c-0.5-0.1-0.9-0.3-1.2-0.4c-0.3-0.2-0.6-0.3-0.9-0.5c-0.2-0.2-0.4-0.4-0.5-0.6c-0.1-0.2-0.2-0.5-0.2-0.7c0-0.3,0.1-0.7,0.3-0.9
		c0.2-0.3,0.5-0.5,0.8-0.7s0.7-0.3,1.2-0.4s0.9-0.1,1.4-0.1c0.9,0,1.7,0.1,2.3,0.4v1c-0.8-0.4-1.6-0.6-2.5-0.6c-0.3,0-0.6,0-0.9,0.1
		c-0.3,0.1-0.5,0.1-0.7,0.3c-0.2,0.1-0.3,0.2-0.4,0.4c-0.1,0.2-0.2,0.3-0.2,0.5c0,0.2,0,0.4,0.1,0.5c0.1,0.1,0.2,0.3,0.4,0.4
		c0.2,0.1,0.4,0.2,0.7,0.3c0.3,0.1,0.6,0.2,1,0.3c0.5,0.2,0.9,0.3,1.3,0.5c0.4,0.1,0.7,0.3,0.9,0.5c0.2,0.2,0.4,0.4,0.5,0.6
		c0.1,0.2,0.2,0.5,0.2,0.8c0,0.4-0.1,0.7-0.3,0.9s-0.5,0.5-0.8,0.7s-0.7,0.3-1.2,0.4c-0.5,0.1-1,0.1-1.5,0.1c-1,0-1.9-0.2-2.6-0.5
		V57z"/>
	<path class="st1" d="M141.6,58.4c-0.4,0.2-0.9,0.3-1.5,0.3c-1.7,0-2.5-0.7-2.5-2.2v-4.9h-1.8v-0.9h1.8v-2l1.3-0.3v2.3h2.7v0.9h-2.7
		v4.8c0,0.5,0.1,0.9,0.3,1.1s0.6,0.4,1.2,0.4c0.4,0,0.8-0.1,1.2-0.3V58.4z"/>
	<path class="st1" d="M150.7,58.4v-1.4h0c-0.3,0.5-0.8,0.9-1.5,1.1c-0.6,0.3-1.4,0.4-2.2,0.4c-0.6,0-1.2-0.1-1.8-0.3
		c-0.5-0.2-1-0.4-1.4-0.8c-0.4-0.3-0.7-0.8-0.9-1.2c-0.2-0.5-0.3-1-0.3-1.6c0-0.6,0.1-1.2,0.3-1.7c0.2-0.5,0.5-1,1-1.3
		s0.9-0.7,1.5-0.9c0.6-0.2,1.2-0.3,1.9-0.3c1.5,0,2.6,0.4,3.2,1.3h0v-4.9h1.3v11.6H150.7z M150.7,53.7c0-0.3-0.1-0.7-0.2-1
		c-0.2-0.3-0.4-0.6-0.6-0.8c-0.3-0.2-0.6-0.4-1-0.5c-0.4-0.1-0.8-0.2-1.3-0.2c-0.5,0-1,0.1-1.4,0.2s-0.8,0.4-1.1,0.7
		c-0.3,0.3-0.5,0.6-0.7,1c-0.2,0.4-0.3,0.9-0.3,1.4c0,0.5,0.1,0.9,0.2,1.3s0.4,0.7,0.7,1s0.6,0.5,1,0.6c0.4,0.1,0.8,0.2,1.3,0.2
		c0.5,0,1-0.1,1.4-0.2c0.4-0.1,0.8-0.3,1.1-0.6c0.3-0.2,0.5-0.5,0.7-0.9c0.2-0.3,0.2-0.7,0.2-1.1V53.7z"/>
	<path class="st1" d="M155.3,58.4V46.9h1.3v11.6H155.3z"/>
	<path class="st1" d="M160.6,48.7c-0.2,0-0.5-0.1-0.6-0.2c-0.2-0.1-0.3-0.3-0.3-0.5c0-0.2,0.1-0.4,0.3-0.5c0.2-0.1,0.4-0.2,0.6-0.2
		c0.1,0,0.2,0,0.4,0.1c0.1,0,0.2,0.1,0.3,0.1c0.1,0.1,0.2,0.1,0.2,0.2s0.1,0.2,0.1,0.3c0,0.1,0,0.2-0.1,0.3c0,0.1-0.1,0.2-0.2,0.2
		c-0.1,0.1-0.2,0.1-0.3,0.1S160.7,48.7,160.6,48.7z M160,58.4v-7.8h1.3v7.8H160z"/>
	<path class="st1" d="M165.9,57.2v1.3h-1.3V46.9h1.3v5.2h0c0.4-0.5,0.9-1,1.5-1.2c0.6-0.3,1.4-0.4,2.2-0.4c0.7,0,1.3,0.1,1.8,0.3
		s1,0.4,1.3,0.8c0.4,0.3,0.6,0.7,0.8,1.2c0.2,0.5,0.3,1,0.3,1.6c0,0.6-0.1,1.2-0.3,1.8c-0.2,0.5-0.5,1-0.9,1.4
		c-0.4,0.4-0.9,0.7-1.5,0.9c-0.6,0.2-1.2,0.3-1.9,0.3C167.8,58.6,166.7,58.1,165.9,57.2L165.9,57.2z M165.9,55.2
		c0,0.4,0.1,0.7,0.2,1c0.2,0.3,0.4,0.6,0.7,0.8c0.3,0.2,0.6,0.4,1,0.6c0.4,0.1,0.8,0.2,1.3,0.2c0.5,0,1-0.1,1.4-0.2
		c0.4-0.2,0.8-0.4,1.1-0.7c0.3-0.3,0.5-0.7,0.7-1.1c0.2-0.4,0.2-0.9,0.2-1.4c0-0.5-0.1-0.9-0.2-1.2c-0.1-0.4-0.4-0.7-0.6-0.9
		c-0.3-0.3-0.6-0.5-1-0.6c-0.4-0.1-0.8-0.2-1.3-0.2c-0.5,0-1,0.1-1.5,0.2c-0.4,0.1-0.8,0.4-1.1,0.6c-0.3,0.3-0.5,0.6-0.7,0.9
		c-0.2,0.3-0.2,0.7-0.2,1.1V55.2z"/>
	<path class="st1" d="M177.5,57.4v-0.9l6.7-2.5v0l-6.7-2.8v-0.9l8.6,3.6v0.3L177.5,57.4z"/>
	<path class="st1" d="M33.2,77.3h-2.7l-0.7,2.5h2.9l-0.2,0.7h-2.8l-0.9,3h-1l0.9-3H26l-0.9,3h-1l0.9-3h-2.8l0.2-0.7h2.8l0.7-2.5
		h-2.9l0.2-0.7H26l0.9-3.1h1l-0.9,3.1h2.6l0.9-3.1h1l-0.9,3.1h2.7L33.2,77.3z M26.9,77.3l-0.7,2.5h2.6l0.7-2.5H26.9z"/>
	<path class="st1" d="M36.4,74.7c-0.2,0-0.5-0.1-0.6-0.2c-0.2-0.1-0.3-0.3-0.3-0.5c0-0.2,0.1-0.4,0.3-0.5s0.4-0.2,0.6-0.2
		c0.1,0,0.2,0,0.4,0c0.1,0,0.2,0.1,0.3,0.1c0.1,0.1,0.2,0.1,0.2,0.2c0.1,0.1,0.1,0.2,0.1,0.3c0,0.1,0,0.2-0.1,0.3
		c0,0.1-0.1,0.2-0.2,0.2c-0.1,0.1-0.2,0.1-0.3,0.1C36.7,74.7,36.5,74.7,36.4,74.7z M35.8,84.5v-7.8h1.3v7.8H35.8z"/>
	<path class="st1" d="M47.4,84.5V80c0-1.8-0.9-2.6-2.6-2.6c-0.5,0-0.9,0.1-1.3,0.2c-0.4,0.1-0.7,0.3-1,0.6c-0.3,0.2-0.5,0.5-0.7,0.8
		c-0.2,0.3-0.2,0.7-0.2,1.1v4.5h-1.3v-7.8h1.3V78h0c0.8-1,1.9-1.5,3.5-1.5c1.1,0,2,0.3,2.6,0.8c0.6,0.6,0.9,1.4,0.9,2.4v4.8H47.4z"
		/>
	<path class="st1" d="M58.7,84.1c-0.8,0.4-1.7,0.5-2.8,0.5c-0.7,0-1.4-0.1-2-0.3c-0.6-0.2-1.1-0.5-1.5-0.8c-0.4-0.4-0.7-0.8-1-1.2
		c-0.2-0.5-0.3-1-0.3-1.6c0-0.6,0.1-1.1,0.4-1.7c0.2-0.5,0.6-1,1-1.3c0.5-0.4,1-0.7,1.7-0.9c0.7-0.2,1.4-0.3,2.2-0.3
		c0.9,0,1.6,0.1,2.3,0.4v1c-0.8-0.4-1.6-0.6-2.4-0.6c-0.6,0-1.2,0.1-1.6,0.3c-0.5,0.2-0.9,0.4-1.2,0.7c-0.3,0.3-0.6,0.7-0.7,1.1
		c-0.2,0.4-0.3,0.8-0.3,1.3c0,0.4,0.1,0.8,0.2,1.2c0.1,0.4,0.4,0.7,0.7,1s0.7,0.5,1.1,0.7c0.5,0.2,1,0.3,1.6,0.3
		c1,0,1.8-0.2,2.6-0.7V84.1z"/>
	<path class="st1" d="M61.2,84.5V72.9h1.3v11.6H61.2z"/>
	<path class="st1" d="M72.6,84.5v-1.3h0c-0.7,1-1.8,1.5-3.3,1.5c-2.5,0-3.7-1.1-3.7-3.4v-4.6h1.3v4.4c0,0.9,0.2,1.6,0.7,2.1
		c0.4,0.4,1.1,0.7,2,0.7c0.4,0,0.9-0.1,1.2-0.2c0.4-0.1,0.7-0.3,1-0.5c0.3-0.2,0.5-0.5,0.6-0.9c0.1-0.3,0.2-0.7,0.2-1.1v-4.5h1.3
		v7.8H72.6z"/>
	<path class="st1" d="M84.5,84.5v-1.4h0c-0.3,0.5-0.8,0.9-1.5,1.1c-0.6,0.3-1.4,0.4-2.2,0.4c-0.6,0-1.2-0.1-1.8-0.3
		c-0.5-0.2-1-0.4-1.4-0.8c-0.4-0.3-0.7-0.8-0.9-1.2c-0.2-0.5-0.3-1-0.3-1.6c0-0.6,0.1-1.2,0.3-1.7c0.2-0.5,0.5-1,1-1.3
		c0.4-0.4,0.9-0.7,1.5-0.9c0.6-0.2,1.2-0.3,1.9-0.3c1.5,0,2.6,0.4,3.2,1.3h0v-4.9h1.3v11.6H84.5z M84.5,79.8c0-0.3-0.1-0.7-0.2-1
		c-0.2-0.3-0.4-0.6-0.6-0.8c-0.3-0.2-0.6-0.4-1-0.5c-0.4-0.1-0.8-0.2-1.3-0.2c-0.5,0-1,0.1-1.4,0.2c-0.4,0.2-0.8,0.4-1.1,0.7
		c-0.3,0.3-0.5,0.6-0.7,1c-0.2,0.4-0.3,0.9-0.3,1.4c0,0.5,0.1,0.9,0.2,1.3c0.2,0.4,0.4,0.7,0.7,1c0.3,0.3,0.6,0.5,1,0.6
		c0.4,0.1,0.8,0.2,1.3,0.2c0.5,0,1-0.1,1.4-0.2c0.4-0.1,0.8-0.3,1.1-0.6c0.3-0.2,0.5-0.5,0.7-0.9c0.2-0.3,0.2-0.7,0.2-1.1V79.8z"/>
	<path class="st1" d="M89.8,80.7c0,0.5,0.1,0.9,0.3,1.3c0.2,0.4,0.4,0.7,0.7,1c0.3,0.3,0.7,0.5,1.1,0.6s0.9,0.2,1.5,0.2
		c1.2,0,2.3-0.3,3.3-0.9v1c-1,0.5-2.2,0.8-3.6,0.8c-0.7,0-1.3-0.1-1.9-0.3c-0.6-0.2-1-0.4-1.4-0.8c-0.4-0.3-0.7-0.8-0.9-1.3
		c-0.2-0.5-0.3-1.1-0.3-1.7c0-0.6,0.1-1.1,0.4-1.6c0.2-0.5,0.6-0.9,1-1.3s0.9-0.6,1.5-0.9c0.6-0.2,1.2-0.3,1.9-0.3
		c0.7,0,1.3,0.1,1.8,0.3c0.5,0.2,0.9,0.4,1.3,0.8c0.3,0.3,0.6,0.7,0.8,1.2s0.3,1,0.3,1.6v0.5H89.8z M95.9,79.9
		c0-0.8-0.3-1.4-0.8-1.9c-0.5-0.4-1.2-0.7-2.1-0.7c-0.4,0-0.8,0.1-1.2,0.2c-0.4,0.1-0.7,0.3-1,0.5c-0.3,0.2-0.5,0.5-0.7,0.8
		c-0.2,0.3-0.3,0.7-0.4,1.1H95.9z"/>
	<path class="st1" d="M106.4,80.1v-0.3l8.6-3.6v0.9l-6.7,2.8v0l6.7,2.5v0.9L106.4,80.1z"/>
	<path class="st1" d="M118.7,83.1c0.2,0.1,0.4,0.2,0.6,0.3c0.2,0.1,0.5,0.2,0.7,0.2c0.2,0.1,0.5,0.1,0.7,0.1c0.2,0,0.5,0,0.7,0
		c1.5,0,2.3-0.4,2.3-1.3c0-0.2-0.1-0.4-0.2-0.5c-0.1-0.1-0.3-0.3-0.5-0.4c-0.2-0.1-0.4-0.2-0.7-0.3c-0.3-0.1-0.6-0.2-1-0.3
		c-0.5-0.1-0.9-0.3-1.2-0.4c-0.3-0.2-0.6-0.3-0.9-0.5c-0.2-0.2-0.4-0.4-0.5-0.6c-0.1-0.2-0.2-0.5-0.2-0.7c0-0.3,0.1-0.7,0.3-0.9
		c0.2-0.3,0.5-0.5,0.8-0.7c0.3-0.2,0.7-0.3,1.2-0.4c0.4-0.1,0.9-0.1,1.4-0.1c0.9,0,1.7,0.1,2.3,0.4v1c-0.8-0.4-1.6-0.6-2.5-0.6
		c-0.3,0-0.6,0-0.9,0.1c-0.3,0.1-0.5,0.1-0.7,0.3c-0.2,0.1-0.3,0.2-0.4,0.4c-0.1,0.2-0.2,0.3-0.2,0.5c0,0.2,0,0.4,0.1,0.5
		c0.1,0.1,0.2,0.3,0.4,0.4c0.2,0.1,0.4,0.2,0.7,0.3c0.3,0.1,0.6,0.2,1,0.3c0.5,0.2,0.9,0.3,1.3,0.5c0.4,0.1,0.7,0.3,0.9,0.5
		c0.2,0.2,0.4,0.4,0.5,0.6c0.1,0.2,0.2,0.5,0.2,0.8c0,0.4-0.1,0.7-0.3,0.9c-0.2,0.3-0.5,0.5-0.8,0.7c-0.3,0.2-0.7,0.3-1.2,0.4
		c-0.5,0.1-1,0.1-1.5,0.1c-1,0-1.9-0.2-2.6-0.5V83.1z"/>
	<path class="st1" d="M132.2,84.4c-0.4,0.2-0.9,0.3-1.5,0.3c-1.7,0-2.5-0.7-2.5-2.2v-4.9h-1.8v-0.9h1.8v-2l1.3-0.3v2.3h2.7v0.9h-2.7
		v4.8c0,0.5,0.1,0.9,0.3,1.1c0.2,0.2,0.6,0.4,1.2,0.4c0.4,0,0.8-0.1,1.2-0.3V84.4z"/>
	<path class="st1" d="M139.5,77.7c-0.3-0.2-0.7-0.3-1.2-0.3c-0.3,0-0.6,0-0.9,0.1c-0.3,0.1-0.5,0.2-0.7,0.4
		c-0.2,0.2-0.4,0.4-0.5,0.6c-0.1,0.2-0.2,0.5-0.3,0.7c-0.1,0.2-0.1,0.5-0.2,0.7c0,0.2-0.1,0.5-0.1,0.7v3.8h-1.3v-7.8h1.3v1.7h0
		c0.1-0.3,0.3-0.5,0.5-0.8s0.4-0.4,0.6-0.6c0.2-0.2,0.5-0.3,0.8-0.4c0.3-0.1,0.6-0.1,0.9-0.1c0.2,0,0.4,0,0.6,0
		c0.2,0,0.3,0.1,0.5,0.1V77.7z"/>
	<path class="st1" d="M142,74.7c-0.2,0-0.5-0.1-0.6-0.2c-0.2-0.1-0.3-0.3-0.3-0.5c0-0.2,0.1-0.4,0.3-0.5s0.4-0.2,0.6-0.2
		c0.1,0,0.2,0,0.4,0c0.1,0,0.2,0.1,0.3,0.1c0.1,0.1,0.2,0.1,0.2,0.2s0.1,0.2,0.1,0.3c0,0.1,0,0.2-0.1,0.3c0,0.1-0.1,0.2-0.2,0.2
		c-0.1,0.1-0.2,0.1-0.3,0.1C142.2,74.7,142.1,74.7,142,74.7z M141.4,84.5v-7.8h1.3v7.8H141.4z"/>
	<path class="st1" d="M153,84.5V80c0-1.8-0.9-2.6-2.6-2.6c-0.5,0-0.9,0.1-1.3,0.2c-0.4,0.1-0.7,0.3-1,0.6c-0.3,0.2-0.5,0.5-0.7,0.8
		s-0.2,0.7-0.2,1.1v4.5H146v-7.8h1.3V78h0c0.8-1,1.9-1.5,3.5-1.5c1.1,0,2,0.3,2.6,0.8c0.6,0.6,0.9,1.4,0.9,2.4v4.8H153z"/>
	<path class="st1" d="M166,83.9c0,1.4-0.4,2.5-1.3,3.2s-2.2,1-4,1c-1.1,0-2.2-0.2-3.2-0.6v-1c1.1,0.5,2.2,0.7,3.2,0.7
		c2.7,0,4.1-1.1,4.1-3.2v-0.9h0c-0.8,1-2,1.5-3.6,1.5c-0.6,0-1.2-0.1-1.8-0.3s-1-0.4-1.4-0.8c-0.4-0.3-0.7-0.7-0.9-1.2
		c-0.2-0.5-0.3-1-0.3-1.6c0-0.6,0.1-1.2,0.3-1.7c0.2-0.5,0.5-1,1-1.4c0.4-0.4,0.9-0.7,1.5-0.9c0.6-0.2,1.2-0.3,2-0.3
		c1.5,0,2.5,0.4,3.2,1.3h0v-1.2h1.3V83.9z M164.7,79.7c0-0.3-0.1-0.6-0.2-0.9c-0.2-0.3-0.4-0.5-0.6-0.8c-0.3-0.2-0.6-0.4-1-0.5
		c-0.4-0.1-0.8-0.2-1.3-0.2c-0.5,0-1,0.1-1.5,0.2c-0.4,0.2-0.8,0.4-1.1,0.7c-0.3,0.3-0.5,0.6-0.7,1.1c-0.2,0.4-0.2,0.9-0.2,1.4
		c0,0.5,0.1,0.9,0.2,1.3c0.2,0.4,0.4,0.7,0.7,1s0.6,0.5,1,0.6c0.4,0.1,0.8,0.2,1.3,0.2c0.5,0,1-0.1,1.4-0.2s0.8-0.3,1.1-0.6
		s0.5-0.5,0.7-0.9c0.2-0.3,0.2-0.7,0.2-1.1V79.7z"/>
	<path class="st1" d="M170.3,83.4v-0.9L177,80v0l-6.7-2.8v-0.9l8.6,3.6v0.3L170.3,83.4z"/>
	<path class="st1" d="M24,126.7c-0.2,0-0.5-0.1-0.6-0.2s-0.3-0.3-0.3-0.5c0-0.2,0.1-0.4,0.3-0.5s0.4-0.2,0.6-0.2c0.1,0,0.2,0,0.4,0
		c0.1,0,0.2,0.1,0.3,0.1c0.1,0.1,0.2,0.1,0.2,0.2c0.1,0.1,0.1,0.2,0.1,0.3c0,0.1,0,0.2-0.1,0.3c0,0.1-0.1,0.2-0.2,0.2
		s-0.2,0.1-0.3,0.1C24.3,126.7,24.2,126.7,24,126.7z M23.4,136.5v-7.8h1.3v7.8H23.4z"/>
	<path class="st1" d="M35,136.5V132c0-1.8-0.9-2.6-2.6-2.6c-0.5,0-0.9,0.1-1.3,0.2c-0.4,0.1-0.7,0.3-1,0.6c-0.3,0.2-0.5,0.5-0.7,0.8
		c-0.2,0.3-0.2,0.7-0.2,1.1v4.5H28v-7.8h1.3v1.4h0c0.8-1,1.9-1.5,3.5-1.5c1.1,0,2,0.3,2.6,0.8c0.6,0.6,0.9,1.4,0.9,2.4v4.8H35z"/>
	<path class="st1" d="M43.9,136.4c-0.4,0.2-0.9,0.3-1.5,0.3c-1.7,0-2.5-0.7-2.5-2.2v-4.9h-1.8v-0.9h1.8v-2l1.3-0.3v2.3h2.7v0.9h-2.7
		v4.8c0,0.5,0.1,0.9,0.3,1.1c0.2,0.2,0.6,0.4,1.2,0.4c0.4,0,0.8-0.1,1.2-0.3V136.4z"/>
	<path class="st1" d="M64.7,136.5v-4.6c0-0.5,0-0.9-0.1-1.2c-0.1-0.3-0.2-0.6-0.4-0.8c-0.2-0.2-0.5-0.4-0.8-0.4
		c-0.3-0.1-0.7-0.1-1.1-0.1c-0.4,0-0.7,0.1-1.1,0.2c-0.3,0.1-0.6,0.3-0.9,0.6s-0.5,0.5-0.6,0.8c-0.1,0.3-0.2,0.7-0.2,1v4.5h-1.3
		v-4.7c0-1.6-0.8-2.5-2.5-2.5c-0.4,0-0.7,0.1-1.1,0.2s-0.6,0.3-0.9,0.5s-0.4,0.5-0.6,0.8c-0.1,0.3-0.2,0.7-0.2,1.1v4.5h-1.3v-7.8H53
		v1.3h0c0.7-1,1.8-1.4,3.2-1.4c0.4,0,0.7,0,1,0.1c0.3,0.1,0.6,0.2,0.9,0.4c0.3,0.1,0.5,0.3,0.7,0.5c0.2,0.2,0.3,0.4,0.4,0.7
		c0.4-0.6,0.8-1,1.4-1.3s1.2-0.4,2-0.4c2.3,0,3.4,1.1,3.4,3.2v4.8H64.7z"/>
	<path class="st1" d="M75.1,136.5v-1.4h0c-0.3,0.5-0.8,0.9-1.4,1.2c-0.6,0.3-1.2,0.4-2,0.4c-0.5,0-1-0.1-1.4-0.2
		c-0.4-0.1-0.7-0.3-1-0.5c-0.3-0.2-0.5-0.4-0.6-0.7c-0.2-0.3-0.2-0.6-0.2-0.9c0-0.7,0.3-1.3,0.9-1.7c0.6-0.4,1.5-0.7,2.6-0.8
		l3.1-0.3c0-1.5-0.8-2.2-2.3-2.2c-1.2,0-2.3,0.3-3.4,1v-1.1c0.2-0.1,0.5-0.2,0.7-0.3s0.6-0.2,0.9-0.2c0.3-0.1,0.6-0.1,0.9-0.2
		c0.3,0,0.6-0.1,0.9-0.1c1.2,0,2,0.2,2.6,0.7c0.6,0.5,0.9,1.2,0.9,2.2v5.1H75.1z M72.4,132.7c-0.5,0.1-0.9,0.1-1.2,0.2
		c-0.3,0.1-0.6,0.2-0.8,0.3c-0.2,0.1-0.4,0.3-0.5,0.5s-0.2,0.4-0.2,0.7c0,0.2,0,0.4,0.1,0.6c0.1,0.2,0.2,0.3,0.4,0.5
		c0.2,0.1,0.4,0.2,0.7,0.3c0.3,0.1,0.6,0.1,0.9,0.1c0.5,0,0.9-0.1,1.3-0.2c0.4-0.1,0.7-0.3,1-0.5s0.5-0.5,0.7-0.8
		c0.2-0.3,0.2-0.7,0.2-1.1v-0.8L72.4,132.7z"/>
	<path class="st1" d="M80.2,126.7c-0.2,0-0.5-0.1-0.6-0.2s-0.3-0.3-0.3-0.5c0-0.2,0.1-0.4,0.3-0.5s0.4-0.2,0.6-0.2
		c0.1,0,0.2,0,0.4,0c0.1,0,0.2,0.1,0.3,0.1c0.1,0.1,0.2,0.1,0.2,0.2s0.1,0.2,0.1,0.3c0,0.1,0,0.2-0.1,0.3c0,0.1-0.1,0.2-0.2,0.2
		c-0.1,0.1-0.2,0.1-0.3,0.1C80.4,126.7,80.3,126.7,80.2,126.7z M79.5,136.5v-7.8h1.3v7.8H79.5z"/>
	<path class="st1" d="M91.2,136.5V132c0-1.8-0.9-2.6-2.6-2.6c-0.5,0-0.9,0.1-1.3,0.2c-0.4,0.1-0.7,0.3-1,0.6
		c-0.3,0.2-0.5,0.5-0.7,0.8c-0.2,0.3-0.2,0.7-0.2,1.1v4.5h-1.3v-7.8h1.3v1.4h0c0.8-1,1.9-1.5,3.5-1.5c1.1,0,2,0.3,2.6,0.8
		c0.6,0.6,0.9,1.4,0.9,2.4v4.8H91.2z"/>
	<path class="st1" d="M98.5,139c-2.1-1.8-3.1-4-3.1-6.6c0-2.7,1-5,3.1-6.8h1.2c-2.1,1.9-3.2,4.1-3.2,6.8c0,2.5,1,4.8,3.1,6.7H98.5z"
		/>
	<path class="st1" d="M100.2,139c2.1-1.9,3.1-4.1,3.1-6.7c0-2.6-1.1-4.9-3.2-6.8h1.2c2.1,1.8,3.1,4.1,3.1,6.8c0,2.6-1,4.8-3.1,6.6
		H100.2z"/>
	<path class="st1" d="M27.1,165c-0.9,0-1.7-0.2-2.1-0.6c-0.5-0.4-0.7-0.9-0.7-1.7v-2.3c0-0.6-0.1-1-0.4-1.3
		c-0.3-0.3-0.7-0.5-1.2-0.5V158c1.1-0.1,1.6-0.7,1.6-1.7v-2.3c0-0.8,0.2-1.4,0.7-1.7c0.5-0.4,1.2-0.6,2.1-0.6v0.8
		c-0.6,0-1,0.2-1.2,0.4c-0.2,0.3-0.4,0.7-0.4,1.2v2.2c0,1.1-0.5,1.8-1.5,2v0c1,0.2,1.5,0.9,1.5,2.1v2.2c0,0.3,0,0.5,0.1,0.8
		c0.1,0.2,0.1,0.4,0.3,0.5c0.1,0.1,0.3,0.2,0.5,0.3c0.2,0.1,0.5,0.1,0.8,0.1V165z"/>
	<path class="st1" d="M34.2,187.1c0.2,0.1,0.4,0.2,0.6,0.3c0.2,0.1,0.5,0.2,0.7,0.2c0.2,0.1,0.5,0.1,0.7,0.1c0.2,0,0.5,0.1,0.7,0.1
		c1.5,0,2.3-0.4,2.3-1.3c0-0.2-0.1-0.4-0.2-0.5c-0.1-0.1-0.3-0.3-0.5-0.4c-0.2-0.1-0.4-0.2-0.7-0.3c-0.3-0.1-0.6-0.2-1-0.3
		c-0.5-0.1-0.9-0.3-1.2-0.4c-0.3-0.2-0.6-0.3-0.9-0.5c-0.2-0.2-0.4-0.4-0.5-0.6c-0.1-0.2-0.2-0.5-0.2-0.7c0-0.3,0.1-0.7,0.3-0.9
		c0.2-0.3,0.5-0.5,0.8-0.7c0.3-0.2,0.7-0.3,1.2-0.4s0.9-0.1,1.4-0.1c0.9,0,1.7,0.1,2.3,0.4v1c-0.8-0.4-1.6-0.6-2.5-0.6
		c-0.3,0-0.6,0-0.9,0.1c-0.3,0.1-0.5,0.1-0.7,0.3c-0.2,0.1-0.3,0.2-0.4,0.4c-0.1,0.2-0.2,0.3-0.2,0.5c0,0.2,0,0.4,0.1,0.5
		c0.1,0.1,0.2,0.3,0.4,0.4c0.2,0.1,0.4,0.2,0.7,0.3c0.3,0.1,0.6,0.2,1,0.3c0.5,0.2,0.9,0.3,1.3,0.5s0.7,0.3,0.9,0.5s0.4,0.4,0.5,0.6
		c0.1,0.2,0.2,0.5,0.2,0.8c0,0.4-0.1,0.7-0.3,0.9c-0.2,0.3-0.5,0.5-0.8,0.7c-0.3,0.2-0.7,0.3-1.2,0.4s-1,0.1-1.5,0.1
		c-1,0-1.9-0.2-2.6-0.5V187.1z"/>
	<path class="st1" d="M47.6,188.5c-0.4,0.2-0.9,0.3-1.5,0.3c-1.7,0-2.5-0.7-2.5-2.2v-4.9h-1.8v-0.9h1.8v-2l1.3-0.3v2.3h2.7v0.9H45
		v4.8c0,0.5,0.1,0.9,0.3,1.1c0.2,0.2,0.6,0.4,1.2,0.4c0.4,0,0.8-0.1,1.2-0.3V188.5z"/>
	<path class="st1" d="M56.8,188.5v-1.4h0c-0.3,0.5-0.8,0.9-1.5,1.1s-1.4,0.4-2.2,0.4c-0.6,0-1.2-0.1-1.8-0.3c-0.5-0.2-1-0.4-1.4-0.8
		s-0.7-0.8-0.9-1.2c-0.2-0.5-0.3-1-0.3-1.6c0-0.6,0.1-1.2,0.3-1.7c0.2-0.5,0.5-1,1-1.3c0.4-0.4,0.9-0.7,1.5-0.9
		c0.6-0.2,1.2-0.3,1.9-0.3c1.5,0,2.6,0.4,3.2,1.3h0V177h1.3v11.6H56.8z M56.8,183.8c0-0.3-0.1-0.7-0.2-1c-0.2-0.3-0.4-0.6-0.6-0.8
		c-0.3-0.2-0.6-0.4-1-0.5s-0.8-0.2-1.3-0.2c-0.5,0-1,0.1-1.4,0.2c-0.4,0.2-0.8,0.4-1.1,0.7c-0.3,0.3-0.5,0.6-0.7,1
		c-0.2,0.4-0.3,0.9-0.3,1.4c0,0.5,0.1,0.9,0.2,1.3c0.2,0.4,0.4,0.7,0.7,1s0.6,0.5,1,0.6c0.4,0.1,0.8,0.2,1.3,0.2
		c0.5,0,1-0.1,1.4-0.2c0.4-0.1,0.8-0.3,1.1-0.6c0.3-0.2,0.5-0.5,0.7-0.9c0.2-0.3,0.2-0.7,0.2-1.1V183.8z"/>
	<path class="st1" d="M62,182.1c-0.1,0-0.3,0-0.4-0.1c-0.1,0-0.2-0.1-0.3-0.2c-0.1-0.1-0.2-0.1-0.2-0.2c-0.1-0.1-0.1-0.2-0.1-0.3
		c0-0.2,0.1-0.4,0.3-0.5s0.4-0.2,0.7-0.2c0.1,0,0.3,0,0.4,0.1s0.2,0.1,0.3,0.1c0.1,0.1,0.2,0.1,0.2,0.2c0.1,0.1,0.1,0.2,0.1,0.3
		c0,0.1,0,0.2-0.1,0.3c-0.1,0.1-0.1,0.2-0.2,0.2s-0.2,0.1-0.3,0.2C62.2,182,62.1,182.1,62,182.1z M62,188.7c-0.3,0-0.5-0.1-0.7-0.2
		c-0.2-0.1-0.3-0.3-0.3-0.5c0-0.2,0.1-0.4,0.3-0.5c0.2-0.1,0.4-0.2,0.7-0.2c0.1,0,0.3,0,0.4,0.1c0.1,0,0.2,0.1,0.3,0.2
		c0.1,0.1,0.2,0.1,0.2,0.2s0.1,0.2,0.1,0.3c0,0.1,0,0.2-0.1,0.3c-0.1,0.1-0.1,0.2-0.2,0.2c-0.1,0.1-0.2,0.1-0.3,0.2
		C62.3,188.7,62.1,188.7,62,188.7z"/>
	<path class="st1" d="M66.5,182.1c-0.1,0-0.3,0-0.4-0.1c-0.1,0-0.2-0.1-0.3-0.2c-0.1-0.1-0.2-0.1-0.2-0.2c-0.1-0.1-0.1-0.2-0.1-0.3
		c0-0.2,0.1-0.4,0.3-0.5c0.2-0.1,0.4-0.2,0.7-0.2c0.1,0,0.3,0,0.4,0.1s0.2,0.1,0.3,0.1c0.1,0.1,0.2,0.1,0.2,0.2
		c0.1,0.1,0.1,0.2,0.1,0.3c0,0.1,0,0.2-0.1,0.3c-0.1,0.1-0.1,0.2-0.2,0.2S67,182,66.9,182C66.8,182,66.7,182.1,66.5,182.1z
		 M66.5,188.7c-0.3,0-0.5-0.1-0.7-0.2c-0.2-0.1-0.3-0.3-0.3-0.5c0-0.2,0.1-0.4,0.3-0.5c0.2-0.1,0.4-0.2,0.7-0.2c0.1,0,0.3,0,0.4,0.1
		c0.1,0,0.2,0.1,0.3,0.2c0.1,0.1,0.2,0.1,0.2,0.2s0.1,0.2,0.1,0.3c0,0.1,0,0.2-0.1,0.3c-0.1,0.1-0.1,0.2-0.2,0.2
		c-0.1,0.1-0.2,0.1-0.3,0.2C66.8,188.7,66.7,188.7,66.5,188.7z"/>
	<path class="st1" d="M69.9,187.1c0.2,0.1,0.4,0.2,0.6,0.3c0.2,0.1,0.5,0.2,0.7,0.2c0.2,0.1,0.5,0.1,0.7,0.1c0.2,0,0.5,0.1,0.7,0.1
		c1.5,0,2.3-0.4,2.3-1.3c0-0.2-0.1-0.4-0.2-0.5c-0.1-0.1-0.3-0.3-0.5-0.4c-0.2-0.1-0.4-0.2-0.7-0.3c-0.3-0.1-0.6-0.2-1-0.3
		c-0.5-0.1-0.9-0.3-1.2-0.4c-0.3-0.2-0.6-0.3-0.9-0.5c-0.2-0.2-0.4-0.4-0.5-0.6c-0.1-0.2-0.2-0.5-0.2-0.7c0-0.3,0.1-0.7,0.3-0.9
		c0.2-0.3,0.5-0.5,0.8-0.7c0.3-0.2,0.7-0.3,1.2-0.4s0.9-0.1,1.4-0.1c0.9,0,1.7,0.1,2.3,0.4v1c-0.8-0.4-1.6-0.6-2.5-0.6
		c-0.3,0-0.6,0-0.9,0.1c-0.3,0.1-0.5,0.1-0.7,0.3c-0.2,0.1-0.3,0.2-0.4,0.4c-0.1,0.2-0.2,0.3-0.2,0.5c0,0.2,0,0.4,0.1,0.5
		c0.1,0.1,0.2,0.3,0.4,0.4c0.2,0.1,0.4,0.2,0.7,0.3c0.3,0.1,0.6,0.2,1,0.3c0.5,0.2,0.9,0.3,1.3,0.5s0.7,0.3,0.9,0.5
		c0.2,0.2,0.4,0.4,0.5,0.6c0.1,0.2,0.2,0.5,0.2,0.8c0,0.4-0.1,0.7-0.3,0.9c-0.2,0.3-0.5,0.5-0.8,0.7c-0.3,0.2-0.7,0.3-1.2,0.4
		c-0.5,0.1-1,0.1-1.5,0.1c-1,0-1.9-0.2-2.6-0.5V187.1z"/>
	<path class="st1" d="M83.4,188.5c-0.4,0.2-0.9,0.3-1.5,0.3c-1.7,0-2.5-0.7-2.5-2.2v-4.9h-1.8v-0.9h1.8v-2l1.3-0.3v2.3h2.7v0.9h-2.7
		v4.8c0,0.5,0.1,0.9,0.3,1.1c0.2,0.2,0.6,0.4,1.2,0.4c0.4,0,0.8-0.1,1.2-0.3V188.5z"/>
	<path class="st1" d="M90.6,181.7c-0.3-0.2-0.7-0.3-1.2-0.3c-0.3,0-0.6,0-0.9,0.1c-0.3,0.1-0.5,0.2-0.7,0.4
		c-0.2,0.2-0.4,0.4-0.5,0.6c-0.1,0.2-0.2,0.5-0.3,0.7c-0.1,0.2-0.1,0.5-0.2,0.7c0,0.2-0.1,0.5-0.1,0.7v3.8h-1.3v-7.8h1.3v1.7h0
		c0.1-0.3,0.3-0.5,0.5-0.8s0.4-0.4,0.6-0.6c0.2-0.2,0.5-0.3,0.8-0.4c0.3-0.1,0.6-0.1,0.9-0.1c0.2,0,0.4,0,0.6,0
		c0.2,0,0.3,0.1,0.5,0.1V181.7z"/>
	<path class="st1" d="M93.2,178.8c-0.2,0-0.5-0.1-0.6-0.2c-0.2-0.1-0.3-0.3-0.3-0.5c0-0.2,0.1-0.4,0.3-0.5s0.4-0.2,0.6-0.2
		c0.1,0,0.2,0,0.4,0.1c0.1,0,0.2,0.1,0.3,0.1c0.1,0.1,0.2,0.1,0.2,0.2c0.1,0.1,0.1,0.2,0.1,0.3c0,0.1,0,0.2-0.1,0.3
		c0,0.1-0.1,0.2-0.2,0.2c-0.1,0.1-0.2,0.1-0.3,0.1C93.4,178.7,93.3,178.8,93.2,178.8z M92.5,188.5v-7.8h1.3v7.8H92.5z"/>
	<path class="st1" d="M104.2,188.5V184c0-1.8-0.9-2.6-2.6-2.6c-0.5,0-0.9,0.1-1.3,0.2c-0.4,0.1-0.7,0.3-1,0.6
		c-0.3,0.2-0.5,0.5-0.7,0.9c-0.2,0.3-0.2,0.7-0.2,1.1v4.5h-1.3v-7.8h1.3v1.4h0c0.8-1,1.9-1.5,3.5-1.5c1.1,0,2,0.3,2.6,0.8
		c0.6,0.6,0.9,1.4,0.9,2.4v4.8H104.2z"/>
	<path class="st1" d="M117.1,187.9c0,1.4-0.4,2.5-1.3,3.2c-0.9,0.7-2.2,1-4,1c-1.1,0-2.2-0.2-3.2-0.6v-1c1.1,0.5,2.2,0.7,3.2,0.7
		c2.7,0,4.1-1.1,4.1-3.2v-0.9h0c-0.8,1-2,1.5-3.6,1.5c-0.6,0-1.2-0.1-1.8-0.3c-0.5-0.2-1-0.4-1.4-0.8c-0.4-0.3-0.7-0.7-0.9-1.2
		c-0.2-0.5-0.3-1-0.3-1.6c0-0.6,0.1-1.2,0.3-1.7s0.5-1,1-1.4c0.4-0.4,0.9-0.7,1.5-0.9c0.6-0.2,1.2-0.3,2-0.3c1.5,0,2.5,0.4,3.2,1.3
		h0v-1.2h1.3V187.9z M115.8,183.8c0-0.3-0.1-0.6-0.2-0.9c-0.2-0.3-0.4-0.5-0.6-0.8c-0.3-0.2-0.6-0.4-1-0.5s-0.8-0.2-1.3-0.2
		c-0.5,0-1,0.1-1.5,0.2c-0.4,0.2-0.8,0.4-1.1,0.7c-0.3,0.3-0.5,0.6-0.7,1.1c-0.2,0.4-0.2,0.9-0.2,1.4c0,0.5,0.1,0.9,0.2,1.3
		c0.2,0.4,0.4,0.7,0.7,1c0.3,0.3,0.6,0.5,1,0.6s0.8,0.2,1.3,0.2c0.5,0,1-0.1,1.4-0.2s0.8-0.3,1.1-0.6c0.3-0.2,0.5-0.5,0.7-0.9
		c0.2-0.3,0.2-0.7,0.2-1.1V183.8z"/>
	<path class="st1" d="M132.9,188.5v-1.3h0c-0.7,1-1.8,1.5-3.3,1.5c-2.5,0-3.7-1.1-3.7-3.4v-4.6h1.3v4.4c0,0.9,0.2,1.6,0.7,2.1
		c0.4,0.4,1.1,0.7,2,0.7c0.4,0,0.9-0.1,1.2-0.2c0.4-0.1,0.7-0.3,1-0.5c0.3-0.2,0.5-0.5,0.6-0.9c0.1-0.3,0.2-0.7,0.2-1.1v-4.5h1.3
		v7.8H132.9z"/>
	<path class="st1" d="M137,187.1c0.2,0.1,0.4,0.2,0.6,0.3c0.2,0.1,0.5,0.2,0.7,0.2c0.2,0.1,0.5,0.1,0.7,0.1c0.2,0,0.5,0.1,0.7,0.1
		c1.5,0,2.3-0.4,2.3-1.3c0-0.2-0.1-0.4-0.2-0.5c-0.1-0.1-0.3-0.3-0.5-0.4c-0.2-0.1-0.4-0.2-0.7-0.3c-0.3-0.1-0.6-0.2-1-0.3
		c-0.5-0.1-0.9-0.3-1.2-0.4c-0.3-0.2-0.6-0.3-0.9-0.5c-0.2-0.2-0.4-0.4-0.5-0.6c-0.1-0.2-0.2-0.5-0.2-0.7c0-0.3,0.1-0.7,0.3-0.9
		c0.2-0.3,0.5-0.5,0.8-0.7c0.3-0.2,0.7-0.3,1.2-0.4s0.9-0.1,1.4-0.1c0.9,0,1.7,0.1,2.3,0.4v1c-0.8-0.4-1.6-0.6-2.5-0.6
		c-0.3,0-0.6,0-0.9,0.1c-0.3,0.1-0.5,0.1-0.7,0.3c-0.2,0.1-0.3,0.2-0.4,0.4c-0.1,0.2-0.2,0.3-0.2,0.5c0,0.2,0,0.4,0.1,0.5
		c0.1,0.1,0.2,0.3,0.4,0.4c0.2,0.1,0.4,0.2,0.7,0.3c0.3,0.1,0.6,0.2,1,0.3c0.5,0.2,0.9,0.3,1.3,0.5s0.7,0.3,0.9,0.5s0.4,0.4,0.5,0.6
		c0.1,0.2,0.2,0.5,0.2,0.8c0,0.4-0.1,0.7-0.3,0.9c-0.2,0.3-0.5,0.5-0.8,0.7c-0.3,0.2-0.7,0.3-1.2,0.4s-1,0.1-1.5,0.1
		c-1,0-1.9-0.2-2.6-0.5V187.1z"/>
	<path class="st1" d="M146.6,184.8c0,0.5,0.1,0.9,0.3,1.3s0.4,0.7,0.7,1c0.3,0.3,0.7,0.5,1.1,0.6s0.9,0.2,1.5,0.2
		c1.2,0,2.3-0.3,3.3-0.9v1c-1,0.5-2.2,0.8-3.6,0.8c-0.7,0-1.3-0.1-1.9-0.3s-1-0.4-1.4-0.8c-0.4-0.3-0.7-0.8-0.9-1.3
		c-0.2-0.5-0.3-1.1-0.3-1.7c0-0.6,0.1-1.1,0.4-1.6c0.2-0.5,0.6-0.9,1-1.3c0.4-0.4,0.9-0.6,1.5-0.9c0.6-0.2,1.2-0.3,1.9-0.3
		c0.7,0,1.3,0.1,1.8,0.3c0.5,0.2,0.9,0.4,1.3,0.8c0.3,0.3,0.6,0.7,0.8,1.2c0.2,0.5,0.3,1,0.3,1.6v0.5H146.6z M152.8,184
		c0-0.8-0.3-1.4-0.8-1.9c-0.5-0.4-1.2-0.7-2.1-0.7c-0.4,0-0.8,0.1-1.2,0.2c-0.4,0.1-0.7,0.3-1,0.5c-0.3,0.2-0.5,0.5-0.7,0.8
		c-0.2,0.3-0.3,0.7-0.4,1.1H152.8z"/>
	<path class="st1" d="M161.8,181.7c-0.3-0.2-0.7-0.3-1.2-0.3c-0.3,0-0.6,0-0.9,0.1c-0.3,0.1-0.5,0.2-0.7,0.4
		c-0.2,0.2-0.4,0.4-0.5,0.6c-0.1,0.2-0.2,0.5-0.3,0.7c-0.1,0.2-0.1,0.5-0.2,0.7c0,0.2-0.1,0.5-0.1,0.7v3.8h-1.3v-7.8h1.3v1.7h0
		c0.1-0.3,0.3-0.5,0.5-0.8s0.4-0.4,0.6-0.6c0.2-0.2,0.5-0.3,0.8-0.4c0.3-0.1,0.6-0.1,0.9-0.1c0.2,0,0.4,0,0.6,0
		c0.2,0,0.3,0.1,0.5,0.1V181.7z"/>
	<path class="st1" d="M162,190.7v-0.8h8.6v0.8H162z"/>
	<path class="st1" d="M179.3,188.5V184c0-1.8-0.9-2.6-2.6-2.6c-0.5,0-0.9,0.1-1.3,0.2c-0.4,0.1-0.7,0.3-1,0.6
		c-0.3,0.2-0.5,0.5-0.7,0.9c-0.2,0.3-0.2,0.7-0.2,1.1v4.5h-1.3v-7.8h1.3v1.4h0c0.8-1,1.9-1.5,3.5-1.5c1.1,0,2,0.3,2.6,0.8
		c0.6,0.6,0.9,1.4,0.9,2.4v4.8H179.3z"/>
	<path class="st1" d="M189.6,188.5v-1.4h0c-0.3,0.5-0.8,0.9-1.4,1.2c-0.6,0.3-1.2,0.4-2,0.4c-0.5,0-1-0.1-1.4-0.2
		c-0.4-0.1-0.7-0.3-1-0.5c-0.3-0.2-0.5-0.4-0.6-0.7c-0.2-0.3-0.2-0.6-0.2-0.9c0-0.7,0.3-1.3,0.9-1.7c0.6-0.4,1.5-0.7,2.6-0.8
		l3.1-0.3c0-1.5-0.8-2.2-2.3-2.2c-1.2,0-2.3,0.3-3.4,1v-1.1c0.2-0.1,0.5-0.2,0.7-0.3c0.3-0.1,0.6-0.2,0.9-0.2
		c0.3-0.1,0.6-0.1,0.9-0.2c0.3,0,0.6-0.1,0.9-0.1c1.2,0,2,0.2,2.6,0.7s0.9,1.2,0.9,2.2v5.1H189.6z M187,184.8
		c-0.5,0.1-0.9,0.1-1.2,0.2c-0.3,0.1-0.6,0.2-0.8,0.3c-0.2,0.1-0.4,0.3-0.5,0.5c-0.1,0.2-0.2,0.4-0.2,0.7c0,0.2,0,0.4,0.1,0.6
		c0.1,0.2,0.2,0.3,0.4,0.5s0.4,0.2,0.7,0.3c0.3,0.1,0.6,0.1,0.9,0.1c0.5,0,0.9-0.1,1.3-0.2c0.4-0.1,0.7-0.3,1-0.5
		c0.3-0.2,0.5-0.5,0.7-0.8c0.2-0.3,0.2-0.7,0.2-1.1v-0.8L187,184.8z"/>
	<path class="st1" d="M207.1,188.5V184c0-0.5,0-0.9-0.1-1.2c-0.1-0.3-0.2-0.6-0.4-0.8c-0.2-0.2-0.5-0.4-0.8-0.4s-0.7-0.1-1.1-0.1
		c-0.4,0-0.7,0.1-1.1,0.2c-0.3,0.1-0.6,0.3-0.9,0.6c-0.3,0.2-0.5,0.5-0.6,0.8c-0.1,0.3-0.2,0.7-0.2,1v4.5h-1.3v-4.7
		c0-1.6-0.8-2.5-2.5-2.5c-0.4,0-0.7,0.1-1.1,0.2s-0.6,0.3-0.9,0.5c-0.2,0.2-0.4,0.5-0.6,0.8c-0.1,0.3-0.2,0.7-0.2,1.1v4.5h-1.3v-7.8
		h1.3v1.3h0c0.7-1,1.8-1.4,3.2-1.4c0.4,0,0.7,0,1,0.1c0.3,0.1,0.6,0.2,0.9,0.4c0.3,0.1,0.5,0.3,0.7,0.5c0.2,0.2,0.3,0.4,0.4,0.7
		c0.4-0.6,0.8-1,1.4-1.3c0.6-0.3,1.2-0.4,2-0.4c2.3,0,3.4,1.1,3.4,3.2v4.8H207.1z"/>
	<path class="st1" d="M212.1,184.8c0,0.5,0.1,0.9,0.3,1.3s0.4,0.7,0.7,1c0.3,0.3,0.7,0.5,1.1,0.6s0.9,0.2,1.5,0.2
		c1.2,0,2.3-0.3,3.3-0.9v1c-1,0.5-2.2,0.8-3.6,0.8c-0.7,0-1.3-0.1-1.9-0.3s-1-0.4-1.4-0.8s-0.7-0.8-0.9-1.3
		c-0.2-0.5-0.3-1.1-0.3-1.7c0-0.6,0.1-1.1,0.4-1.6c0.2-0.5,0.6-0.9,1-1.3c0.4-0.4,0.9-0.6,1.5-0.9c0.6-0.2,1.2-0.3,1.9-0.3
		c0.7,0,1.3,0.1,1.8,0.3c0.5,0.2,0.9,0.4,1.3,0.8c0.3,0.3,0.6,0.7,0.8,1.2c0.2,0.5,0.3,1,0.3,1.6v0.5H212.1z M218.3,184
		c0-0.8-0.3-1.4-0.8-1.9c-0.5-0.4-1.2-0.7-2.1-0.7c-0.4,0-0.8,0.1-1.2,0.2c-0.4,0.1-0.7,0.3-1,0.5c-0.3,0.2-0.5,0.5-0.7,0.8
		c-0.2,0.3-0.3,0.7-0.4,1.1H218.3z"/>
	<path class="st1" d="M228.4,182.9V182h9.4v0.8H228.4z M228.4,186v-0.8h9.4v0.8H228.4z"/>
	<path class="st1" d="M248.5,181h-1.2v-3.4h1.2V181z M251.5,181h-1.2v-3.4h1.2V181z"/>
	<path class="st1" d="M261.6,188.5v-1.3h0c-0.7,1-1.8,1.5-3.3,1.5c-2.5,0-3.7-1.1-3.7-3.4v-4.6h1.3v4.4c0,0.9,0.2,1.6,0.7,2.1
		c0.4,0.4,1.1,0.7,2,0.7c0.4,0,0.9-0.1,1.2-0.2c0.4-0.1,0.7-0.3,1-0.5c0.3-0.2,0.5-0.5,0.6-0.9c0.1-0.3,0.2-0.7,0.2-1.1v-4.5h1.3
		v7.8H261.6z"/>
	<path class="st1" d="M265.7,187.1c0.2,0.1,0.4,0.2,0.6,0.3c0.2,0.1,0.5,0.2,0.7,0.2c0.2,0.1,0.5,0.1,0.7,0.1c0.2,0,0.5,0.1,0.7,0.1
		c1.5,0,2.3-0.4,2.3-1.3c0-0.2-0.1-0.4-0.2-0.5c-0.1-0.1-0.3-0.3-0.5-0.4c-0.2-0.1-0.4-0.2-0.7-0.3c-0.3-0.1-0.6-0.2-1-0.3
		c-0.5-0.1-0.9-0.3-1.2-0.4c-0.3-0.2-0.6-0.3-0.9-0.5c-0.2-0.2-0.4-0.4-0.5-0.6c-0.1-0.2-0.2-0.5-0.2-0.7c0-0.3,0.1-0.7,0.3-0.9
		c0.2-0.3,0.5-0.5,0.8-0.7c0.3-0.2,0.7-0.3,1.2-0.4s0.9-0.1,1.4-0.1c0.9,0,1.7,0.1,2.3,0.4v1c-0.8-0.4-1.6-0.6-2.5-0.6
		c-0.3,0-0.6,0-0.9,0.1c-0.3,0.1-0.5,0.1-0.7,0.3c-0.2,0.1-0.3,0.2-0.4,0.4c-0.1,0.2-0.2,0.3-0.2,0.5c0,0.2,0,0.4,0.1,0.5
		c0.1,0.1,0.2,0.3,0.4,0.4c0.2,0.1,0.4,0.2,0.7,0.3c0.3,0.1,0.6,0.2,1,0.3c0.5,0.2,0.9,0.3,1.3,0.5s0.7,0.3,0.9,0.5
		c0.2,0.2,0.4,0.4,0.5,0.6c0.1,0.2,0.2,0.5,0.2,0.8c0,0.4-0.1,0.7-0.3,0.9c-0.2,0.3-0.5,0.5-0.8,0.7c-0.3,0.2-0.7,0.3-1.2,0.4
		s-1,0.1-1.5,0.1c-1,0-1.9-0.2-2.6-0.5V187.1z"/>
	<path class="st1" d="M275.3,184.8c0,0.5,0.1,0.9,0.3,1.3s0.4,0.7,0.7,1c0.3,0.3,0.7,0.5,1.1,0.6c0.4,0.1,0.9,0.2,1.5,0.2
		c1.2,0,2.3-0.3,3.3-0.9v1c-1,0.5-2.2,0.8-3.6,0.8c-0.7,0-1.3-0.1-1.9-0.3s-1-0.4-1.4-0.8s-0.7-0.8-0.9-1.3
		c-0.2-0.5-0.3-1.1-0.3-1.7c0-0.6,0.1-1.1,0.4-1.6c0.2-0.5,0.6-0.9,1-1.3c0.4-0.4,0.9-0.6,1.5-0.9c0.6-0.2,1.2-0.3,1.9-0.3
		c0.7,0,1.3,0.1,1.8,0.3c0.5,0.2,0.9,0.4,1.3,0.8c0.3,0.3,0.6,0.7,0.8,1.2c0.2,0.5,0.3,1,0.3,1.6v0.5H275.3z M281.5,184
		c0-0.8-0.3-1.4-0.8-1.9c-0.5-0.4-1.2-0.7-2.1-0.7c-0.4,0-0.8,0.1-1.2,0.2c-0.4,0.1-0.7,0.3-1,0.5c-0.3,0.2-0.5,0.5-0.7,0.8
		c-0.2,0.3-0.3,0.7-0.4,1.1H281.5z"/>
	<path class="st1" d="M290.5,181.7c-0.3-0.2-0.7-0.3-1.2-0.3c-0.3,0-0.6,0-0.9,0.1c-0.3,0.1-0.5,0.2-0.7,0.4s-0.4,0.4-0.5,0.6
		c-0.1,0.2-0.2,0.5-0.3,0.7c-0.1,0.2-0.1,0.5-0.2,0.7c0,0.2-0.1,0.5-0.1,0.7v3.8h-1.3v-7.8h1.3v1.7h0c0.1-0.3,0.3-0.5,0.5-0.8
		c0.2-0.2,0.4-0.4,0.6-0.6c0.2-0.2,0.5-0.3,0.8-0.4c0.3-0.1,0.6-0.1,0.9-0.1c0.2,0,0.4,0,0.6,0c0.2,0,0.3,0.1,0.5,0.1V181.7z"/>
	<path class="st1" d="M293.6,181h-1.2v-3.4h1.2V181z M296.5,181h-1.2v-3.4h1.2V181z"/>
	<path class="st1" d="M299.7,190.5h-1l1.3-3.7h1.3L299.7,190.5z M300.6,182.1c-0.3,0-0.5-0.1-0.7-0.2s-0.3-0.3-0.3-0.5
		s0.1-0.4,0.3-0.5c0.2-0.1,0.4-0.2,0.7-0.2c0.3,0,0.5,0.1,0.7,0.2c0.2,0.1,0.3,0.3,0.3,0.5c0,0.1,0,0.2-0.1,0.3
		c-0.1,0.1-0.1,0.2-0.2,0.2s-0.2,0.1-0.3,0.2C300.8,182,300.7,182.1,300.6,182.1z"/>
	<path class="st1" d="M309.4,190.4h-1.2l7-12.7h1.3L309.4,190.4z"/>
	<path class="st1" d="M317.2,190.4H316l7-12.7h1.3L317.2,190.4z"/>
	<path class="st1" d="M29.5,214.8c-1,0-2-0.1-2.8-0.4s-1.5-0.7-2.1-1.2c-0.6-0.5-1-1.1-1.3-1.8c-0.3-0.7-0.5-1.4-0.5-2.2
		c0-0.9,0.2-1.6,0.5-2.3c0.3-0.7,0.8-1.3,1.4-1.8s1.3-0.9,2.2-1.2c0.9-0.3,1.9-0.4,3-0.4c1,0,1.9,0.1,2.8,0.4
		c0.8,0.3,1.5,0.7,2.1,1.2c0.6,0.5,1,1.1,1.3,1.7c0.3,0.7,0.5,1.4,0.5,2.2c0,0.8-0.2,1.6-0.5,2.3s-0.7,1.3-1.3,1.8
		c-0.6,0.5-1.3,0.9-2.2,1.2C31.6,214.6,30.6,214.8,29.5,214.8z M29.6,204.4c-0.9,0-1.7,0.1-2.3,0.4s-1.2,0.6-1.7,1
		c-0.5,0.4-0.8,0.9-1.1,1.5c-0.2,0.6-0.4,1.2-0.4,1.8c0,0.6,0.1,1.2,0.3,1.8c0.2,0.6,0.5,1.1,1,1.5c0.4,0.4,1,0.8,1.7,1
		c0.7,0.3,1.5,0.4,2.4,0.4c0.9,0,1.7-0.1,2.4-0.4c0.7-0.2,1.3-0.6,1.7-1c0.5-0.4,0.8-0.9,1-1.5c0.2-0.6,0.3-1.2,0.3-1.9
		c0-0.6-0.1-1.2-0.3-1.8c-0.2-0.6-0.5-1.1-1-1.5s-1-0.8-1.7-1S30.6,204.4,29.6,204.4z"/>
	<path class="st1" d="M46.1,214.6v-7h-5.7v7h-1.3v-7.8h8.3v7.8H46.1z"/>
	<path class="st1" d="M52,213.3v4.8h-1.3v-11.4H52v1.5h0c0.4-0.5,0.9-1,1.5-1.2c0.6-0.3,1.4-0.4,2.2-0.4c0.7,0,1.3,0.1,1.8,0.3
		c0.5,0.2,1,0.4,1.3,0.8c0.4,0.3,0.6,0.7,0.8,1.2c0.2,0.5,0.3,1,0.3,1.6c0,0.6-0.1,1.2-0.3,1.8c-0.2,0.5-0.5,1-0.9,1.4
		c-0.4,0.4-0.9,0.7-1.5,0.9c-0.6,0.2-1.2,0.3-1.9,0.3C53.9,214.7,52.8,214.3,52,213.3L52,213.3z M52,211.3c0,0.4,0.1,0.7,0.2,1
		c0.2,0.3,0.4,0.6,0.7,0.8c0.3,0.2,0.6,0.4,1,0.6c0.4,0.1,0.8,0.2,1.3,0.2c0.5,0,1-0.1,1.4-0.2c0.4-0.2,0.8-0.4,1.1-0.7
		c0.3-0.3,0.5-0.7,0.7-1.1c0.2-0.4,0.2-0.9,0.2-1.4c0-0.5-0.1-0.9-0.2-1.2c-0.1-0.4-0.4-0.7-0.6-0.9c-0.3-0.3-0.6-0.5-1-0.6
		c-0.4-0.1-0.8-0.2-1.3-0.2c-0.5,0-1,0.1-1.5,0.2c-0.4,0.1-0.8,0.4-1.1,0.6c-0.3,0.3-0.5,0.6-0.7,0.9c-0.2,0.3-0.2,0.7-0.2,1.1
		V211.3z"/>
	<path class="st1" d="M63.2,210.8c0,0.5,0.1,0.9,0.3,1.3c0.2,0.4,0.4,0.7,0.7,1c0.3,0.3,0.7,0.5,1.1,0.6c0.4,0.1,0.9,0.2,1.5,0.2
		c1.2,0,2.3-0.3,3.3-0.9v1c-1,0.5-2.2,0.8-3.6,0.8c-0.7,0-1.3-0.1-1.9-0.3c-0.6-0.2-1-0.4-1.4-0.8c-0.4-0.3-0.7-0.8-0.9-1.3
		c-0.2-0.5-0.3-1.1-0.3-1.7c0-0.6,0.1-1.1,0.4-1.6c0.2-0.5,0.6-0.9,1-1.3c0.4-0.4,0.9-0.6,1.5-0.9c0.6-0.2,1.2-0.3,1.9-0.3
		c0.7,0,1.3,0.1,1.8,0.3c0.5,0.2,0.9,0.4,1.3,0.8c0.3,0.3,0.6,0.7,0.8,1.2c0.2,0.5,0.3,1,0.3,1.6v0.5H63.2z M69.4,210
		c0-0.8-0.3-1.4-0.8-1.9c-0.5-0.4-1.2-0.7-2.1-0.7c-0.4,0-0.8,0.1-1.2,0.2c-0.4,0.1-0.7,0.3-1,0.5c-0.3,0.2-0.5,0.5-0.7,0.8
		c-0.2,0.3-0.3,0.7-0.4,1.1H69.4z"/>
	<path class="st1" d="M81,217v-2.4h-8v2.4h-1.1v-3.3h0.9c0.4-0.5,0.8-1,1.2-1.6c0.3-0.5,0.6-1.1,0.9-1.7s0.4-1.2,0.5-1.8
		c0.1-0.6,0.2-1.3,0.2-1.9h5v7h1.6v3.3H81z M79.3,207.6h-2.6c-0.1,1.1-0.4,2.1-0.8,3.2c-0.4,1-1,2-1.7,2.9h5.1V207.6z"/>
	<path class="st1" d="M85,210.8c0,0.5,0.1,0.9,0.3,1.3c0.2,0.4,0.4,0.7,0.7,1c0.3,0.3,0.7,0.5,1.1,0.6c0.4,0.1,0.9,0.2,1.5,0.2
		c1.2,0,2.3-0.3,3.3-0.9v1c-1,0.5-2.2,0.8-3.6,0.8c-0.7,0-1.3-0.1-1.9-0.3c-0.6-0.2-1-0.4-1.4-0.8c-0.4-0.3-0.7-0.8-0.9-1.3
		c-0.2-0.5-0.3-1.1-0.3-1.7c0-0.6,0.1-1.1,0.4-1.6c0.2-0.5,0.6-0.9,1-1.3c0.4-0.4,0.9-0.6,1.5-0.9c0.6-0.2,1.2-0.3,1.9-0.3
		c0.7,0,1.3,0.1,1.8,0.3c0.5,0.2,0.9,0.4,1.3,0.8c0.3,0.3,0.6,0.7,0.8,1.2c0.2,0.5,0.3,1,0.3,1.6v0.5H85z M91.1,210
		c0-0.8-0.3-1.4-0.8-1.9c-0.5-0.4-1.2-0.7-2.1-0.7c-0.4,0-0.8,0.1-1.2,0.2c-0.4,0.1-0.7,0.3-1,0.5c-0.3,0.2-0.5,0.5-0.7,0.8
		c-0.2,0.3-0.3,0.7-0.4,1.1H91.1z"/>
	<path class="st1" d="M101,214.6v-7h-2.7c-0.1,1.2-0.3,2.3-0.5,3.1c-0.2,0.9-0.5,1.6-0.8,2.2c-0.3,0.6-0.7,1-1.1,1.3s-1,0.4-1.6,0.4
		c-0.1,0-0.3,0-0.4,0c-0.1,0-0.2,0-0.3-0.1v-0.8c0.1,0,0.2,0.1,0.3,0.1c0.1,0,0.2,0,0.3,0c0.4,0,0.8-0.2,1.1-0.5
		c0.3-0.3,0.6-0.8,0.8-1.3c0.2-0.6,0.4-1.3,0.6-2.2c0.2-0.9,0.3-1.9,0.4-3.1h5.1v7.8H101z"/>
	<path class="st1" d="M112.8,214.6v-6.4c0,0.1-0.1,0.1-0.1,0.2c0,0.1-0.1,0.1-0.1,0.2l-5.7,6h-1.2v-7.8h1.2v6.3
		c0-0.1,0.1-0.2,0.1-0.2c0.1-0.1,0.1-0.2,0.2-0.3l5.5-5.8h1.2v7.8H112.8z"/>
	<path class="st1" d="M120.4,207.6v7h-1.3v-7H116v-0.9h7.5v0.9H120.4z"/>
	<path class="st1" d="M133,212.2c0,0.4-0.1,0.7-0.3,1c-0.2,0.3-0.4,0.5-0.7,0.7c-0.3,0.2-0.6,0.4-1,0.5s-0.8,0.2-1.2,0.2h-4.3v-7.8
		h1.3v3.1h2.9c0.5,0,1,0.1,1.4,0.2c0.4,0.1,0.8,0.3,1.1,0.5c0.3,0.2,0.5,0.4,0.7,0.7C132.9,211.5,133,211.8,133,212.2z M131.7,212.2
		c0-0.4-0.2-0.8-0.6-1.1c-0.4-0.3-0.9-0.4-1.7-0.4h-2.6v3h2.6c0.4,0,0.7,0,1-0.1c0.3-0.1,0.5-0.2,0.7-0.3s0.3-0.3,0.4-0.5
		C131.6,212.6,131.7,212.4,131.7,212.2z"/>
	<path class="st1" d="M148.2,214.6v-7h-5.7v7h-1.3v-7.8h8.3v7.8H148.2z"/>
	<path class="st1" d="M153.4,210.8c0,0.5,0.1,0.9,0.3,1.3c0.2,0.4,0.4,0.7,0.7,1c0.3,0.3,0.7,0.5,1.1,0.6s0.9,0.2,1.5,0.2
		c1.2,0,2.3-0.3,3.3-0.9v1c-1,0.5-2.2,0.8-3.6,0.8c-0.7,0-1.3-0.1-1.9-0.3c-0.6-0.2-1-0.4-1.4-0.8c-0.4-0.3-0.7-0.8-0.9-1.3
		c-0.2-0.5-0.3-1.1-0.3-1.7c0-0.6,0.1-1.1,0.4-1.6c0.2-0.5,0.6-0.9,1-1.3c0.4-0.4,0.9-0.6,1.5-0.9c0.6-0.2,1.2-0.3,1.9-0.3
		c0.7,0,1.3,0.1,1.8,0.3c0.5,0.2,0.9,0.4,1.3,0.8c0.3,0.3,0.6,0.7,0.8,1.2c0.2,0.5,0.3,1,0.3,1.6v0.5H153.4z M159.6,210
		c0-0.8-0.3-1.4-0.8-1.9c-0.5-0.4-1.2-0.7-2.1-0.7c-0.4,0-0.8,0.1-1.2,0.2c-0.4,0.1-0.7,0.3-1,0.5c-0.3,0.2-0.5,0.5-0.7,0.8
		c-0.2,0.3-0.3,0.7-0.4,1.1H159.6z"/>
	<path class="st1" d="M164.8,213.3v4.8h-1.3v-11.4h1.3v1.5h0c0.4-0.5,0.9-1,1.5-1.2c0.6-0.3,1.4-0.4,2.2-0.4c0.7,0,1.3,0.1,1.8,0.3
		c0.5,0.2,1,0.4,1.3,0.8c0.4,0.3,0.6,0.7,0.8,1.2c0.2,0.5,0.3,1,0.3,1.6c0,0.6-0.1,1.2-0.3,1.8c-0.2,0.5-0.5,1-0.9,1.4
		c-0.4,0.4-0.9,0.7-1.5,0.9c-0.6,0.2-1.2,0.3-1.9,0.3C166.6,214.7,165.5,214.3,164.8,213.3L164.8,213.3z M164.8,211.3
		c0,0.4,0.1,0.7,0.2,1c0.2,0.3,0.4,0.6,0.7,0.8c0.3,0.2,0.6,0.4,1,0.6c0.4,0.1,0.8,0.2,1.3,0.2c0.5,0,1-0.1,1.4-0.2
		c0.4-0.2,0.8-0.4,1.1-0.7c0.3-0.3,0.5-0.7,0.7-1.1c0.2-0.4,0.2-0.9,0.2-1.4c0-0.5-0.1-0.9-0.2-1.2c-0.1-0.4-0.4-0.7-0.6-0.9
		c-0.3-0.3-0.6-0.5-1-0.6c-0.4-0.1-0.8-0.2-1.3-0.2c-0.5,0-1,0.1-1.5,0.2c-0.4,0.1-0.8,0.4-1.1,0.6c-0.3,0.3-0.5,0.6-0.7,0.9
		c-0.2,0.3-0.2,0.7-0.2,1.1V211.3z"/>
	<path class="st1" d="M176,210.8c0,0.5,0.1,0.9,0.3,1.3c0.2,0.4,0.4,0.7,0.7,1c0.3,0.3,0.7,0.5,1.1,0.6c0.4,0.1,0.9,0.2,1.5,0.2
		c1.2,0,2.3-0.3,3.3-0.9v1c-1,0.5-2.2,0.8-3.6,0.8c-0.7,0-1.3-0.1-1.9-0.3c-0.6-0.2-1-0.4-1.4-0.8c-0.4-0.3-0.7-0.8-0.9-1.3
		c-0.2-0.5-0.3-1.1-0.3-1.7c0-0.6,0.1-1.1,0.4-1.6c0.2-0.5,0.6-0.9,1-1.3c0.4-0.4,0.9-0.6,1.5-0.9c0.6-0.2,1.2-0.3,1.9-0.3
		c0.7,0,1.3,0.1,1.8,0.3c0.5,0.2,0.9,0.4,1.3,0.8c0.3,0.3,0.6,0.7,0.8,1.2c0.2,0.5,0.3,1,0.3,1.6v0.5H176z M182.1,210
		c0-0.8-0.3-1.4-0.8-1.9c-0.5-0.4-1.2-0.7-2.1-0.7c-0.4,0-0.8,0.1-1.2,0.2c-0.4,0.1-0.7,0.3-1,0.5c-0.3,0.2-0.5,0.5-0.7,0.8
		c-0.2,0.3-0.3,0.7-0.4,1.1H182.1z"/>
	<path class="st1" d="M195.2,214.6V208c0,0-0.1,0.1-0.1,0.2s-0.1,0.2-0.2,0.4c-0.1,0.1-0.1,0.3-0.2,0.4s-0.1,0.3-0.2,0.4l-2.7,5.2
		h-1.1l-2.9-5.2c0-0.1-0.1-0.2-0.2-0.3c-0.1-0.1-0.1-0.3-0.2-0.4c-0.1-0.1-0.1-0.3-0.2-0.4c-0.1-0.1-0.1-0.2-0.2-0.3v6.6H186v-7.8
		h1.6l2.9,5.3c0.1,0.1,0.1,0.2,0.2,0.4c0.1,0.1,0.1,0.3,0.2,0.4s0.1,0.3,0.2,0.4c0.1,0.1,0.1,0.2,0.1,0.3c0-0.1,0.1-0.1,0.1-0.3
		c0.1-0.1,0.1-0.2,0.2-0.4c0.1-0.1,0.1-0.3,0.2-0.4c0.1-0.1,0.1-0.3,0.2-0.4l2.8-5.3h1.7v7.8H195.2z"/>
	<path class="st1" d="M200.5,210.8c0,0.5,0.1,0.9,0.3,1.3c0.2,0.4,0.4,0.7,0.7,1c0.3,0.3,0.7,0.5,1.1,0.6c0.4,0.1,0.9,0.2,1.5,0.2
		c1.2,0,2.3-0.3,3.3-0.9v1c-1,0.5-2.2,0.8-3.6,0.8c-0.7,0-1.3-0.1-1.9-0.3c-0.6-0.2-1-0.4-1.4-0.8c-0.4-0.3-0.7-0.8-0.9-1.3
		c-0.2-0.5-0.3-1.1-0.3-1.7c0-0.6,0.1-1.1,0.4-1.6c0.2-0.5,0.6-0.9,1-1.3c0.4-0.4,0.9-0.6,1.5-0.9c0.6-0.2,1.2-0.3,1.9-0.3
		c0.7,0,1.3,0.1,1.8,0.3c0.5,0.2,0.9,0.4,1.3,0.8c0.3,0.3,0.6,0.7,0.8,1.2c0.2,0.5,0.3,1,0.3,1.6v0.5H200.5z M206.6,210
		c0-0.8-0.3-1.4-0.8-1.9c-0.5-0.4-1.2-0.7-2.1-0.7c-0.4,0-0.8,0.1-1.2,0.2c-0.4,0.1-0.7,0.3-1,0.5c-0.3,0.2-0.5,0.5-0.7,0.8
		c-0.2,0.3-0.3,0.7-0.4,1.1H206.6z"/>
	<path class="st1" d="M217.5,214.6v-3.6h-5.7v3.6h-1.3v-7.8h1.3v3.3h5.7v-3.3h1.3v7.8H217.5z"/>
	<path class="st1" d="M229.1,214.6v-3.6h-5.7v3.6h-1.3v-7.8h1.3v3.3h5.7v-3.3h1.3v7.8H229.1z"/>
	<path class="st1" d="M236.8,216c-0.4,0.8-0.9,1.3-1.4,1.7c-0.5,0.4-1.2,0.6-1.9,0.6c-0.4,0-0.7,0-0.9-0.1v-0.9
		c0.1,0,0.3,0.1,0.4,0.1c0.2,0,0.3,0,0.5,0c0.4,0,0.8-0.1,1.1-0.3s0.6-0.5,0.8-0.9l0.9-1.6l-4-7.8h1.4l3,6.2c0,0.1,0.1,0.2,0.1,0.3
		c0,0.1,0.1,0.2,0.1,0.3h0.1c0-0.1,0.1-0.2,0.1-0.3c0-0.1,0.1-0.2,0.1-0.3l3.1-6.2h1.4L236.8,216z"/>
	<path class="st1" d="M257.3,210.7c0,0.6-0.1,1.1-0.3,1.6c-0.2,0.5-0.5,0.9-0.9,1.3c-0.4,0.4-0.9,0.7-1.5,0.9s-1.3,0.3-2,0.3
		c-0.7,0-1.4-0.1-2-0.3c-0.6-0.2-1-0.5-1.4-0.8c-0.4-0.3-0.7-0.7-0.9-1.2c-0.2-0.5-0.3-1-0.3-1.5h-3.2v3.6h-1.3v-7.8h1.3v3.3h3.2
		c0.1-0.6,0.2-1.1,0.5-1.5c0.3-0.4,0.6-0.8,1.1-1.1c0.4-0.3,0.9-0.5,1.5-0.7c0.5-0.1,1.1-0.2,1.7-0.2c0.7,0,1.3,0.1,1.9,0.3
		c0.6,0.2,1,0.4,1.4,0.8c0.4,0.3,0.7,0.8,0.9,1.3C257.2,209.4,257.3,210,257.3,210.7z M256,210.7c0-1.1-0.3-1.9-0.9-2.4
		c-0.6-0.5-1.4-0.8-2.5-0.8c-1.1,0-1.9,0.3-2.5,0.8c-0.6,0.6-0.9,1.4-0.9,2.4c0,0.5,0.1,1,0.2,1.3c0.1,0.4,0.4,0.7,0.6,1
		c0.3,0.3,0.6,0.5,1.1,0.6c0.4,0.1,0.9,0.2,1.5,0.2c0.6,0,1-0.1,1.5-0.2c0.4-0.1,0.8-0.4,1-0.6c0.3-0.3,0.5-0.6,0.6-1
		C256,211.6,256,211.2,256,210.7z"/>
	<path class="st1" d="M260.6,214.7c-0.3,0-0.5-0.1-0.7-0.2c-0.2-0.1-0.3-0.3-0.3-0.5c0-0.2,0.1-0.4,0.3-0.5c0.2-0.1,0.4-0.2,0.7-0.2
		c0.1,0,0.3,0,0.4,0.1c0.1,0,0.2,0.1,0.3,0.2c0.1,0.1,0.2,0.1,0.2,0.2c0.1,0.1,0.1,0.2,0.1,0.3c0,0.1,0,0.2-0.1,0.3
		c-0.1,0.1-0.1,0.2-0.2,0.2c-0.1,0.1-0.2,0.1-0.3,0.2C260.8,214.7,260.7,214.7,260.6,214.7z"/>
	<path class="st1" d="M34.2,239.2c0.2,0.1,0.4,0.2,0.6,0.3c0.2,0.1,0.5,0.2,0.7,0.2c0.2,0.1,0.5,0.1,0.7,0.1s0.5,0,0.7,0
		c1.5,0,2.3-0.4,2.3-1.3c0-0.2-0.1-0.4-0.2-0.5c-0.1-0.1-0.3-0.3-0.5-0.4c-0.2-0.1-0.4-0.2-0.7-0.3c-0.3-0.1-0.6-0.2-1-0.3
		c-0.5-0.1-0.9-0.3-1.2-0.4c-0.3-0.2-0.6-0.3-0.9-0.5c-0.2-0.2-0.4-0.4-0.5-0.6c-0.1-0.2-0.2-0.5-0.2-0.7c0-0.3,0.1-0.7,0.3-0.9
		c0.2-0.3,0.5-0.5,0.8-0.7c0.3-0.2,0.7-0.3,1.2-0.4c0.4-0.1,0.9-0.1,1.4-0.1c0.9,0,1.7,0.1,2.3,0.4v1c-0.8-0.4-1.6-0.6-2.5-0.6
		c-0.3,0-0.6,0-0.9,0.1c-0.3,0.1-0.5,0.1-0.7,0.3s-0.3,0.2-0.4,0.4c-0.1,0.2-0.2,0.3-0.2,0.5c0,0.2,0,0.4,0.1,0.5
		c0.1,0.1,0.2,0.3,0.4,0.4c0.2,0.1,0.4,0.2,0.7,0.3c0.3,0.1,0.6,0.2,1,0.3c0.5,0.2,0.9,0.3,1.3,0.5s0.7,0.3,0.9,0.5
		c0.2,0.2,0.4,0.4,0.5,0.6c0.1,0.2,0.2,0.5,0.2,0.8c0,0.4-0.1,0.7-0.3,0.9c-0.2,0.3-0.5,0.5-0.8,0.7c-0.3,0.2-0.7,0.3-1.2,0.4
		c-0.5,0.1-1,0.1-1.5,0.1c-1,0-1.9-0.2-2.6-0.5V239.2z"/>
	<path class="st1" d="M47.6,240.5c-0.4,0.2-0.9,0.3-1.5,0.3c-1.7,0-2.5-0.7-2.5-2.2v-4.9h-1.8v-0.9h1.8v-2l1.3-0.3v2.3h2.7v0.9H45
		v4.8c0,0.5,0.1,0.9,0.3,1.1c0.2,0.2,0.6,0.4,1.2,0.4c0.4,0,0.8-0.1,1.2-0.3V240.5z"/>
	<path class="st1" d="M56.8,240.6v-1.4h0c-0.3,0.5-0.8,0.9-1.5,1.1s-1.4,0.4-2.2,0.4c-0.6,0-1.2-0.1-1.8-0.3c-0.5-0.2-1-0.4-1.4-0.8
		c-0.4-0.3-0.7-0.8-0.9-1.2c-0.2-0.5-0.3-1-0.3-1.6c0-0.6,0.1-1.2,0.3-1.7c0.2-0.5,0.5-1,1-1.3c0.4-0.4,0.9-0.7,1.5-0.9
		c0.6-0.2,1.2-0.3,1.9-0.3c1.5,0,2.6,0.4,3.2,1.3h0V229h1.3v11.6H56.8z M56.8,235.9c0-0.3-0.1-0.7-0.2-1c-0.2-0.3-0.4-0.6-0.6-0.8
		s-0.6-0.4-1-0.5c-0.4-0.1-0.8-0.2-1.3-0.2c-0.5,0-1,0.1-1.4,0.2c-0.4,0.2-0.8,0.4-1.1,0.7c-0.3,0.3-0.5,0.6-0.7,1
		c-0.2,0.4-0.3,0.9-0.3,1.4c0,0.5,0.1,0.9,0.2,1.3c0.2,0.4,0.4,0.7,0.7,1c0.3,0.3,0.6,0.5,1,0.6c0.4,0.1,0.8,0.2,1.3,0.2
		c0.5,0,1-0.1,1.4-0.2c0.4-0.1,0.8-0.3,1.1-0.6c0.3-0.2,0.5-0.5,0.7-0.9c0.2-0.3,0.2-0.7,0.2-1.1V235.9z"/>
	<path class="st1" d="M62,234.1c-0.1,0-0.3,0-0.4-0.1c-0.1,0-0.2-0.1-0.3-0.2c-0.1-0.1-0.2-0.1-0.2-0.2c-0.1-0.1-0.1-0.2-0.1-0.3
		c0-0.2,0.1-0.4,0.3-0.5s0.4-0.2,0.7-0.2c0.1,0,0.3,0,0.4,0.1c0.1,0,0.2,0.1,0.3,0.1c0.1,0.1,0.2,0.1,0.2,0.2
		c0.1,0.1,0.1,0.2,0.1,0.3c0,0.1,0,0.2-0.1,0.3c-0.1,0.1-0.1,0.2-0.2,0.2c-0.1,0.1-0.2,0.1-0.3,0.2C62.2,234.1,62.1,234.1,62,234.1z
		 M62,240.7c-0.3,0-0.5-0.1-0.7-0.2S61,240.2,61,240c0-0.2,0.1-0.4,0.3-0.5c0.2-0.1,0.4-0.2,0.7-0.2c0.1,0,0.3,0,0.4,0.1
		c0.1,0,0.2,0.1,0.3,0.2c0.1,0.1,0.2,0.1,0.2,0.2c0.1,0.1,0.1,0.2,0.1,0.3c0,0.1,0,0.2-0.1,0.3c-0.1,0.1-0.1,0.2-0.2,0.2
		c-0.1,0.1-0.2,0.1-0.3,0.2C62.3,240.7,62.1,240.7,62,240.7z"/>
	<path class="st1" d="M66.5,234.1c-0.1,0-0.3,0-0.4-0.1c-0.1,0-0.2-0.1-0.3-0.2c-0.1-0.1-0.2-0.1-0.2-0.2c-0.1-0.1-0.1-0.2-0.1-0.3
		c0-0.2,0.1-0.4,0.3-0.5c0.2-0.1,0.4-0.2,0.7-0.2c0.1,0,0.3,0,0.4,0.1c0.1,0,0.2,0.1,0.3,0.1c0.1,0.1,0.2,0.1,0.2,0.2
		c0.1,0.1,0.1,0.2,0.1,0.3c0,0.1,0,0.2-0.1,0.3c-0.1,0.1-0.1,0.2-0.2,0.2c-0.1,0.1-0.2,0.1-0.3,0.2
		C66.8,234.1,66.7,234.1,66.5,234.1z M66.5,240.7c-0.3,0-0.5-0.1-0.7-0.2c-0.2-0.1-0.3-0.3-0.3-0.5c0-0.2,0.1-0.4,0.3-0.5
		c0.2-0.1,0.4-0.2,0.7-0.2c0.1,0,0.3,0,0.4,0.1c0.1,0,0.2,0.1,0.3,0.2c0.1,0.1,0.2,0.1,0.2,0.2c0.1,0.1,0.1,0.2,0.1,0.3
		c0,0.1,0,0.2-0.1,0.3c-0.1,0.1-0.1,0.2-0.2,0.2c-0.1,0.1-0.2,0.1-0.3,0.2C66.8,240.7,66.7,240.7,66.5,240.7z"/>
	<path class="st1" d="M77.4,240.2c-0.8,0.4-1.7,0.5-2.8,0.5c-0.7,0-1.4-0.1-2-0.3c-0.6-0.2-1.1-0.5-1.5-0.8c-0.4-0.4-0.7-0.8-1-1.2
		c-0.2-0.5-0.3-1-0.3-1.6c0-0.6,0.1-1.1,0.4-1.7c0.2-0.5,0.6-1,1-1.3s1-0.7,1.7-0.9c0.7-0.2,1.4-0.3,2.2-0.3c0.9,0,1.6,0.1,2.3,0.4
		v1c-0.8-0.4-1.6-0.6-2.4-0.6c-0.6,0-1.2,0.1-1.6,0.3s-0.9,0.4-1.2,0.7c-0.3,0.3-0.6,0.7-0.7,1.1s-0.3,0.8-0.3,1.3
		c0,0.4,0.1,0.8,0.2,1.2c0.1,0.4,0.4,0.7,0.7,1c0.3,0.3,0.7,0.5,1.1,0.7c0.5,0.2,1,0.3,1.6,0.3c1,0,1.8-0.2,2.6-0.7V240.2z"/>
	<path class="st1" d="M84.1,240.8c-0.8,0-1.5-0.1-2.1-0.3c-0.6-0.2-1.1-0.5-1.6-0.8c-0.4-0.4-0.8-0.8-1-1.3c-0.2-0.5-0.3-1-0.3-1.6
		c0-0.7,0.1-1.2,0.4-1.7c0.2-0.5,0.6-0.9,1-1.3c0.4-0.4,1-0.6,1.6-0.8c0.6-0.2,1.3-0.3,2.1-0.3c0.7,0,1.4,0.1,2,0.3
		c0.6,0.2,1.1,0.5,1.5,0.8c0.4,0.4,0.7,0.8,1,1.3c0.2,0.5,0.3,1.1,0.3,1.7c0,0.6-0.1,1.2-0.3,1.7c-0.2,0.5-0.6,0.9-1,1.3
		c-0.4,0.4-1,0.6-1.6,0.8C85.6,240.7,84.9,240.8,84.1,240.8z M84.2,233.4c-0.6,0-1.1,0.1-1.5,0.2c-0.5,0.1-0.9,0.4-1.2,0.6
		c-0.3,0.3-0.6,0.6-0.8,1c-0.2,0.4-0.3,0.9-0.3,1.4c0,0.5,0.1,0.9,0.3,1.3c0.2,0.4,0.4,0.7,0.7,1c0.3,0.3,0.7,0.5,1.2,0.6
		s1,0.2,1.5,0.2c0.6,0,1.1-0.1,1.5-0.2c0.4-0.1,0.8-0.4,1.1-0.6c0.3-0.3,0.5-0.6,0.7-1s0.2-0.9,0.2-1.4c0-1.1-0.3-1.9-0.9-2.4
		C86.3,233.7,85.4,233.4,84.2,233.4z"/>
	<path class="st1" d="M98.5,240.6v-1.3h0c-0.7,1-1.8,1.5-3.3,1.5c-2.5,0-3.7-1.1-3.7-3.4v-4.6h1.3v4.4c0,0.9,0.2,1.6,0.7,2.1
		c0.4,0.4,1.1,0.7,2,0.7c0.4,0,0.9-0.1,1.2-0.2c0.4-0.1,0.7-0.3,1-0.5c0.3-0.2,0.5-0.5,0.6-0.9c0.1-0.3,0.2-0.7,0.2-1.1v-4.5h1.3
		v7.8H98.5z"/>
	<path class="st1" d="M107.6,240.5c-0.4,0.2-0.9,0.3-1.5,0.3c-1.7,0-2.5-0.7-2.5-2.2v-4.9h-1.8v-0.9h1.8v-2l1.3-0.3v2.3h2.7v0.9H105
		v4.8c0,0.5,0.1,0.9,0.3,1.1c0.2,0.2,0.6,0.4,1.2,0.4c0.4,0,0.8-0.1,1.2-0.3V240.5z"/>
	<path class="st1" d="M116.4,236.2V236l8.6-3.6v0.9l-6.7,2.8v0l6.7,2.5v0.9L116.4,236.2z"/>
	<path class="st1" d="M130.2,236.2V236l8.6-3.6v0.9l-6.7,2.8v0l6.7,2.5v0.9L130.2,236.2z"/>
	<path class="st1" d="M150,233.1h-1.2v-3.4h1.2V233.1z M152.9,233.1h-1.2v-3.4h1.2V233.1z"/>
	<path class="st1" d="M165.8,240.6v-5.1h-7.9v5.1h-1.3v-10.9h1.3v4.9h7.9v-4.9h1.3v10.9H165.8z"/>
	<path class="st1" d="M171.3,236.9c0,0.5,0.1,0.9,0.3,1.3c0.2,0.4,0.4,0.7,0.7,1c0.3,0.3,0.7,0.5,1.1,0.6c0.4,0.1,0.9,0.2,1.5,0.2
		c1.2,0,2.3-0.3,3.3-0.9v1c-1,0.5-2.2,0.8-3.6,0.8c-0.7,0-1.3-0.1-1.9-0.3c-0.6-0.2-1-0.4-1.4-0.8c-0.4-0.3-0.7-0.8-0.9-1.3
		c-0.2-0.5-0.3-1.1-0.3-1.7c0-0.6,0.1-1.1,0.4-1.6s0.6-0.9,1-1.3c0.4-0.4,0.9-0.6,1.5-0.9c0.6-0.2,1.2-0.3,1.9-0.3
		c0.7,0,1.3,0.1,1.8,0.3c0.5,0.2,0.9,0.4,1.3,0.8c0.3,0.3,0.6,0.7,0.8,1.2c0.2,0.5,0.3,1,0.3,1.6v0.5H171.3z M177.4,236
		c0-0.8-0.3-1.4-0.8-1.9s-1.2-0.7-2.1-0.7c-0.4,0-0.8,0.1-1.2,0.2c-0.4,0.1-0.7,0.3-1,0.5c-0.3,0.2-0.5,0.5-0.7,0.8
		c-0.2,0.3-0.3,0.7-0.4,1.1H177.4z"/>
	<path class="st1" d="M181.3,240.6V229h1.3v11.6H181.3z"/>
	<path class="st1" d="M186,240.6V229h1.3v11.6H186z"/>
	<path class="st1" d="M194.8,240.8c-0.8,0-1.5-0.1-2.1-0.3c-0.6-0.2-1.1-0.5-1.6-0.8c-0.4-0.4-0.8-0.8-1-1.3c-0.2-0.5-0.3-1-0.3-1.6
		c0-0.7,0.1-1.2,0.4-1.7s0.6-0.9,1-1.3c0.4-0.4,1-0.6,1.6-0.8c0.6-0.2,1.3-0.3,2.1-0.3c0.7,0,1.4,0.1,2,0.3c0.6,0.2,1.1,0.5,1.5,0.8
		c0.4,0.4,0.7,0.8,1,1.3c0.2,0.5,0.3,1.1,0.3,1.7c0,0.6-0.1,1.2-0.3,1.7c-0.2,0.5-0.6,0.9-1,1.3c-0.4,0.4-1,0.6-1.6,0.8
		C196.3,240.7,195.6,240.8,194.8,240.8z M194.9,233.4c-0.6,0-1.1,0.1-1.5,0.2c-0.5,0.1-0.9,0.4-1.2,0.6c-0.3,0.3-0.6,0.6-0.8,1
		c-0.2,0.4-0.3,0.9-0.3,1.4c0,0.5,0.1,0.9,0.3,1.3c0.2,0.4,0.4,0.7,0.7,1c0.3,0.3,0.7,0.5,1.2,0.6c0.5,0.1,1,0.2,1.5,0.2
		c0.6,0,1.1-0.1,1.5-0.2c0.4-0.1,0.8-0.4,1.1-0.6c0.3-0.3,0.5-0.6,0.7-1s0.2-0.9,0.2-1.4c0-1.1-0.3-1.9-0.9-2.4
		C197,233.7,196.1,233.4,194.9,233.4z"/>
	<path class="st1" d="M202.2,242.5h-1l1.3-3.7h1.3L202.2,242.5z"/>
	<path class="st1" d="M213.9,233.1h-1.2v-3.4h1.2V233.1z M216.9,233.1h-1.2v-3.4h1.2V233.1z"/>
	<path class="st1" d="M226.9,236.2V236l8.6-3.6v0.9l-6.7,2.8v0l6.7,2.5v0.9L226.9,236.2z"/>
	<path class="st1" d="M240.7,236.2V236l8.6-3.6v0.9l-6.7,2.8v0l6.7,2.5v0.9L240.7,236.2z"/>
	<path class="st1" d="M266,240.6v-1.3h0c-0.7,1-1.8,1.5-3.3,1.5c-2.5,0-3.7-1.1-3.7-3.4v-4.6h1.3v4.4c0,0.9,0.2,1.6,0.7,2.1
		c0.4,0.4,1.1,0.7,2,0.7c0.4,0,0.9-0.1,1.2-0.2c0.4-0.1,0.7-0.3,1-0.5c0.3-0.2,0.5-0.5,0.6-0.9s0.2-0.7,0.2-1.1v-4.5h1.3v7.8H266z"
		/>
	<path class="st1" d="M270.1,239.2c0.2,0.1,0.4,0.2,0.6,0.3c0.2,0.1,0.5,0.2,0.7,0.2c0.2,0.1,0.5,0.1,0.7,0.1s0.5,0,0.7,0
		c1.5,0,2.3-0.4,2.3-1.3c0-0.2-0.1-0.4-0.2-0.5c-0.1-0.1-0.3-0.3-0.5-0.4c-0.2-0.1-0.4-0.2-0.7-0.3c-0.3-0.1-0.6-0.2-1-0.3
		c-0.5-0.1-0.9-0.3-1.2-0.4c-0.3-0.2-0.6-0.3-0.9-0.5c-0.2-0.2-0.4-0.4-0.5-0.6c-0.1-0.2-0.2-0.5-0.2-0.7c0-0.3,0.1-0.7,0.3-0.9
		c0.2-0.3,0.5-0.5,0.8-0.7c0.3-0.2,0.7-0.3,1.2-0.4c0.4-0.1,0.9-0.1,1.4-0.1c0.9,0,1.7,0.1,2.3,0.4v1c-0.8-0.4-1.6-0.6-2.5-0.6
		c-0.3,0-0.6,0-0.9,0.1c-0.3,0.1-0.5,0.1-0.7,0.3c-0.2,0.1-0.3,0.2-0.4,0.4c-0.1,0.2-0.2,0.3-0.2,0.5c0,0.2,0,0.4,0.1,0.5
		c0.1,0.1,0.2,0.3,0.4,0.4c0.2,0.1,0.4,0.2,0.7,0.3c0.3,0.1,0.6,0.2,1,0.3c0.5,0.2,0.9,0.3,1.3,0.5c0.4,0.1,0.7,0.3,0.9,0.5
		c0.2,0.2,0.4,0.4,0.5,0.6c0.1,0.2,0.2,0.5,0.2,0.8c0,0.4-0.1,0.7-0.3,0.9c-0.2,0.3-0.5,0.5-0.8,0.7c-0.3,0.2-0.7,0.3-1.2,0.4
		c-0.5,0.1-1,0.1-1.5,0.1c-1,0-1.9-0.2-2.6-0.5V239.2z"/>
	<path class="st1" d="M279.7,236.9c0,0.5,0.1,0.9,0.3,1.3c0.2,0.4,0.4,0.7,0.7,1c0.3,0.3,0.7,0.5,1.1,0.6c0.4,0.1,0.9,0.2,1.5,0.2
		c1.2,0,2.3-0.3,3.3-0.9v1c-1,0.5-2.2,0.8-3.6,0.8c-0.7,0-1.3-0.1-1.9-0.3c-0.6-0.2-1-0.4-1.4-0.8c-0.4-0.3-0.7-0.8-0.9-1.3
		c-0.2-0.5-0.3-1.1-0.3-1.7c0-0.6,0.1-1.1,0.4-1.6c0.2-0.5,0.6-0.9,1-1.3c0.4-0.4,0.9-0.6,1.5-0.9c0.6-0.2,1.2-0.3,1.9-0.3
		c0.7,0,1.3,0.1,1.8,0.3c0.5,0.2,0.9,0.4,1.3,0.8s0.6,0.7,0.8,1.2c0.2,0.5,0.3,1,0.3,1.6v0.5H279.7z M285.9,236
		c0-0.8-0.3-1.4-0.8-1.9c-0.5-0.4-1.2-0.7-2.1-0.7c-0.4,0-0.8,0.1-1.2,0.2c-0.4,0.1-0.7,0.3-1,0.5c-0.3,0.2-0.5,0.5-0.7,0.8
		c-0.2,0.3-0.3,0.7-0.4,1.1H285.9z"/>
	<path class="st1" d="M294.9,233.8c-0.3-0.2-0.7-0.3-1.2-0.3c-0.3,0-0.6,0-0.9,0.1c-0.3,0.1-0.5,0.2-0.7,0.4
		c-0.2,0.2-0.4,0.4-0.5,0.6s-0.2,0.5-0.3,0.7c-0.1,0.2-0.1,0.5-0.2,0.7s-0.1,0.5-0.1,0.7v3.8h-1.3v-7.8h1.3v1.7h0
		c0.1-0.3,0.3-0.5,0.5-0.8s0.4-0.4,0.6-0.6c0.2-0.2,0.5-0.3,0.8-0.4c0.3-0.1,0.6-0.1,0.9-0.1c0.2,0,0.4,0,0.6,0s0.3,0.1,0.5,0.1
		V233.8z"/>
	<path class="st1" d="M295.1,242.7v-0.8h8.6v0.8H295.1z"/>
	<path class="st1" d="M312.4,240.6v-4.5c0-1.8-0.9-2.6-2.6-2.6c-0.5,0-0.9,0.1-1.3,0.2c-0.4,0.1-0.7,0.3-1,0.6
		c-0.3,0.2-0.5,0.5-0.7,0.8c-0.2,0.3-0.2,0.7-0.2,1.1v4.5h-1.3v-7.8h1.3v1.4h0c0.8-1,1.9-1.5,3.5-1.5c1.1,0,2,0.3,2.6,0.8
		c0.6,0.6,0.9,1.4,0.9,2.4v4.8H312.4z"/>
	<path class="st1" d="M322.7,240.6v-1.4h0c-0.3,0.5-0.8,0.9-1.4,1.2c-0.6,0.3-1.2,0.4-2,0.4c-0.5,0-1-0.1-1.4-0.2
		c-0.4-0.1-0.7-0.3-1-0.5c-0.3-0.2-0.5-0.4-0.6-0.7c-0.2-0.3-0.2-0.6-0.2-0.9c0-0.7,0.3-1.3,0.9-1.7c0.6-0.4,1.5-0.7,2.6-0.8
		l3.1-0.3c0-1.5-0.8-2.2-2.3-2.2c-1.2,0-2.3,0.3-3.4,1v-1.1c0.2-0.1,0.5-0.2,0.7-0.3c0.3-0.1,0.6-0.2,0.9-0.2s0.6-0.1,0.9-0.2
		c0.3,0,0.6-0.1,0.9-0.1c1.2,0,2,0.2,2.6,0.7s0.9,1.2,0.9,2.2v5.1H322.7z M320.1,236.8c-0.5,0.1-0.9,0.1-1.2,0.2
		c-0.3,0.1-0.6,0.2-0.8,0.3s-0.4,0.3-0.5,0.5c-0.1,0.2-0.2,0.4-0.2,0.7c0,0.2,0,0.4,0.1,0.6c0.1,0.2,0.2,0.3,0.4,0.5
		c0.2,0.1,0.4,0.2,0.7,0.3c0.3,0.1,0.6,0.1,0.9,0.1c0.5,0,0.9-0.1,1.3-0.2c0.4-0.1,0.7-0.3,1-0.5c0.3-0.2,0.5-0.5,0.7-0.8
		c0.2-0.3,0.2-0.7,0.2-1.1v-0.8L320.1,236.8z"/>
	<path class="st1" d="M340.2,240.6V236c0-0.5,0-0.9-0.1-1.2c-0.1-0.3-0.2-0.6-0.4-0.8c-0.2-0.2-0.5-0.4-0.8-0.4
		c-0.3-0.1-0.7-0.1-1.1-0.1c-0.4,0-0.7,0.1-1.1,0.2c-0.3,0.1-0.6,0.3-0.9,0.6c-0.3,0.2-0.5,0.5-0.6,0.8c-0.1,0.3-0.2,0.7-0.2,1v4.5
		h-1.3v-4.7c0-1.6-0.8-2.5-2.5-2.5c-0.4,0-0.7,0.1-1.1,0.2c-0.3,0.1-0.6,0.3-0.9,0.5c-0.2,0.2-0.4,0.5-0.6,0.8
		c-0.1,0.3-0.2,0.7-0.2,1.1v4.5h-1.3v-7.8h1.3v1.3h0c0.7-1,1.8-1.4,3.2-1.4c0.4,0,0.7,0,1,0.1c0.3,0.1,0.6,0.2,0.9,0.4
		s0.5,0.3,0.7,0.5s0.3,0.4,0.4,0.7c0.4-0.6,0.8-1,1.4-1.3c0.6-0.3,1.2-0.4,2-0.4c2.3,0,3.4,1.1,3.4,3.2v4.8H340.2z"/>
	<path class="st1" d="M345.2,236.9c0,0.5,0.1,0.9,0.3,1.3c0.2,0.4,0.4,0.7,0.7,1c0.3,0.3,0.7,0.5,1.1,0.6c0.4,0.1,0.9,0.2,1.5,0.2
		c1.2,0,2.3-0.3,3.3-0.9v1c-1,0.5-2.2,0.8-3.6,0.8c-0.7,0-1.3-0.1-1.9-0.3c-0.6-0.2-1-0.4-1.4-0.8c-0.4-0.3-0.7-0.8-0.9-1.3
		c-0.2-0.5-0.3-1.1-0.3-1.7c0-0.6,0.1-1.1,0.4-1.6c0.2-0.5,0.6-0.9,1-1.3c0.4-0.4,0.9-0.6,1.5-0.9c0.6-0.2,1.2-0.3,1.9-0.3
		c0.7,0,1.3,0.1,1.8,0.3c0.5,0.2,0.9,0.4,1.3,0.8s0.6,0.7,0.8,1.2c0.2,0.5,0.3,1,0.3,1.6v0.5H345.2z M351.4,236
		c0-0.8-0.3-1.4-0.8-1.9c-0.5-0.4-1.2-0.7-2.1-0.7c-0.4,0-0.8,0.1-1.2,0.2c-0.4,0.1-0.7,0.3-1,0.5c-0.3,0.2-0.5,0.5-0.7,0.8
		c-0.2,0.3-0.3,0.7-0.4,1.1H351.4z"/>
	<path class="st1" d="M24.4,262.3V262l8.6-3.6v0.9l-6.7,2.8v0l6.7,2.5v0.9L24.4,262.3z"/>
	<path class="st1" d="M38.2,262.3V262l8.6-3.6v0.9l-6.7,2.8v0l6.7,2.5v0.9L38.2,262.3z"/>
	<path class="st1" d="M57.9,259.1h-1.2v-3.4h1.2V259.1z M60.9,259.1h-1.2v-3.4h1.2V259.1z"/>
	<path class="st1" d="M65.5,266.7c-0.3,0-0.5-0.1-0.7-0.2c-0.2-0.1-0.3-0.3-0.3-0.5c0-0.2,0.1-0.4,0.3-0.5s0.4-0.2,0.7-0.2
		c0.1,0,0.2,0,0.4,0.1s0.2,0.1,0.3,0.2c0.1,0.1,0.2,0.1,0.2,0.2c0.1,0.1,0.1,0.2,0.1,0.3c0,0.1,0,0.2-0.1,0.3
		c-0.1,0.1-0.1,0.2-0.2,0.2s-0.2,0.1-0.3,0.2S65.7,266.7,65.5,266.7z M66.1,263.5h-1.1l-0.1-7.9h1.4L66.1,263.5z"/>
	<path class="st1" d="M71.4,259.1h-1.2v-3.4h1.2V259.1z M74.3,259.1h-1.2v-3.4h1.2V259.1z"/>
	<path class="st1" d="M84.3,262.3V262l8.6-3.6v0.9l-6.7,2.8v0l6.7,2.5v0.9L84.3,262.3z"/>
	<path class="st1" d="M98.1,262.3V262l8.6-3.6v0.9l-6.7,2.8v0l6.7,2.5v0.9L98.1,262.3z"/>
	<path class="st1" d="M116.1,265.2c0.2,0.1,0.4,0.2,0.6,0.3c0.2,0.1,0.5,0.2,0.7,0.2c0.2,0.1,0.5,0.1,0.7,0.1c0.2,0,0.5,0,0.7,0
		c1.5,0,2.3-0.4,2.3-1.3c0-0.2-0.1-0.4-0.2-0.5c-0.1-0.1-0.3-0.3-0.5-0.4c-0.2-0.1-0.4-0.2-0.7-0.3c-0.3-0.1-0.6-0.2-1-0.3
		c-0.5-0.1-0.9-0.3-1.2-0.4c-0.3-0.2-0.6-0.3-0.9-0.5c-0.2-0.2-0.4-0.4-0.5-0.6c-0.1-0.2-0.2-0.5-0.2-0.7c0-0.3,0.1-0.7,0.3-0.9
		c0.2-0.3,0.5-0.5,0.8-0.7s0.7-0.3,1.2-0.4c0.4-0.1,0.9-0.1,1.4-0.1c0.9,0,1.7,0.1,2.3,0.4v1c-0.8-0.4-1.6-0.6-2.5-0.6
		c-0.3,0-0.6,0-0.9,0.1c-0.3,0.1-0.5,0.1-0.7,0.3c-0.2,0.1-0.3,0.2-0.4,0.4c-0.1,0.2-0.2,0.3-0.2,0.5c0,0.2,0,0.4,0.1,0.5
		c0.1,0.1,0.2,0.3,0.4,0.4c0.2,0.1,0.4,0.2,0.7,0.3c0.3,0.1,0.6,0.2,1,0.3c0.5,0.2,0.9,0.3,1.3,0.5s0.7,0.3,0.9,0.5
		c0.2,0.2,0.4,0.4,0.5,0.6c0.1,0.2,0.2,0.5,0.2,0.8c0,0.4-0.1,0.7-0.3,0.9c-0.2,0.3-0.5,0.5-0.8,0.7c-0.3,0.2-0.7,0.3-1.2,0.4
		c-0.5,0.1-1,0.1-1.5,0.1c-1,0-1.9-0.2-2.6-0.5V265.2z"/>
	<path class="st1" d="M129.6,266.5c-0.4,0.2-0.9,0.3-1.5,0.3c-1.7,0-2.5-0.7-2.5-2.2v-4.9h-1.8v-0.9h1.8v-2l1.3-0.3v2.3h2.7v0.9
		h-2.7v4.8c0,0.5,0.1,0.9,0.3,1.1c0.2,0.2,0.6,0.4,1.2,0.4c0.4,0,0.8-0.1,1.2-0.3V266.5z"/>
	<path class="st1" d="M138.7,266.6v-1.4h0c-0.3,0.5-0.8,0.9-1.5,1.1c-0.6,0.3-1.4,0.4-2.2,0.4c-0.6,0-1.2-0.1-1.8-0.3
		c-0.5-0.2-1-0.4-1.4-0.8c-0.4-0.3-0.7-0.8-0.9-1.2c-0.2-0.5-0.3-1-0.3-1.6c0-0.6,0.1-1.2,0.3-1.7c0.2-0.5,0.5-1,1-1.3
		c0.4-0.4,0.9-0.7,1.5-0.9c0.6-0.2,1.2-0.3,1.9-0.3c1.5,0,2.6,0.4,3.2,1.3h0V255h1.3v11.6H138.7z M138.7,261.9c0-0.3-0.1-0.7-0.2-1
		c-0.2-0.3-0.4-0.6-0.6-0.8c-0.3-0.2-0.6-0.4-1-0.5c-0.4-0.1-0.8-0.2-1.3-0.2c-0.5,0-1,0.1-1.4,0.2c-0.4,0.2-0.8,0.4-1.1,0.7
		c-0.3,0.3-0.5,0.6-0.7,1c-0.2,0.4-0.3,0.9-0.3,1.4c0,0.5,0.1,0.9,0.2,1.3c0.2,0.4,0.4,0.7,0.7,1c0.3,0.3,0.6,0.5,1,0.6
		c0.4,0.1,0.8,0.2,1.3,0.2c0.5,0,1-0.1,1.4-0.2c0.4-0.1,0.8-0.3,1.1-0.6c0.3-0.2,0.5-0.5,0.7-0.9s0.2-0.7,0.2-1.1V261.9z"/>
	<path class="st1" d="M143.9,260.1c-0.1,0-0.3,0-0.4-0.1c-0.1,0-0.2-0.1-0.3-0.2c-0.1-0.1-0.2-0.1-0.2-0.2c-0.1-0.1-0.1-0.2-0.1-0.3
		c0-0.2,0.1-0.4,0.3-0.5c0.2-0.1,0.4-0.2,0.7-0.2c0.1,0,0.3,0,0.4,0.1c0.1,0,0.2,0.1,0.3,0.1c0.1,0.1,0.2,0.1,0.2,0.2
		c0.1,0.1,0.1,0.2,0.1,0.3c0,0.1,0,0.2-0.1,0.3c-0.1,0.1-0.1,0.2-0.2,0.2c-0.1,0.1-0.2,0.1-0.3,0.2
		C144.2,260.1,144.1,260.1,143.9,260.1z M143.9,266.8c-0.3,0-0.5-0.1-0.7-0.2c-0.2-0.1-0.3-0.3-0.3-0.5c0-0.2,0.1-0.4,0.3-0.5
		s0.4-0.2,0.7-0.2c0.1,0,0.3,0,0.4,0.1c0.1,0,0.2,0.1,0.3,0.2c0.1,0.1,0.2,0.1,0.2,0.2c0.1,0.1,0.1,0.2,0.1,0.3c0,0.1,0,0.2-0.1,0.3
		c-0.1,0.1-0.1,0.2-0.2,0.2c-0.1,0.1-0.2,0.1-0.3,0.2C144.2,266.7,144.1,266.8,143.9,266.8z"/>
	<path class="st1" d="M148.5,260.1c-0.1,0-0.3,0-0.4-0.1c-0.1,0-0.2-0.1-0.3-0.2c-0.1-0.1-0.2-0.1-0.2-0.2c-0.1-0.1-0.1-0.2-0.1-0.3
		c0-0.2,0.1-0.4,0.3-0.5s0.4-0.2,0.7-0.2c0.1,0,0.3,0,0.4,0.1c0.1,0,0.2,0.1,0.3,0.1c0.1,0.1,0.2,0.1,0.2,0.2
		c0.1,0.1,0.1,0.2,0.1,0.3c0,0.1,0,0.2-0.1,0.3c-0.1,0.1-0.1,0.2-0.2,0.2c-0.1,0.1-0.2,0.1-0.3,0.2
		C148.7,260.1,148.6,260.1,148.5,260.1z M148.5,266.8c-0.3,0-0.5-0.1-0.7-0.2c-0.2-0.1-0.3-0.3-0.3-0.5c0-0.2,0.1-0.4,0.3-0.5
		s0.4-0.2,0.7-0.2c0.1,0,0.3,0,0.4,0.1c0.1,0,0.2,0.1,0.3,0.2s0.2,0.1,0.2,0.2c0.1,0.1,0.1,0.2,0.1,0.3c0,0.1,0,0.2-0.1,0.3
		c-0.1,0.1-0.1,0.2-0.2,0.2c-0.1,0.1-0.2,0.1-0.3,0.2C148.7,266.7,148.6,266.8,148.5,266.8z"/>
	<path class="st1" d="M153,262.9c0,0.5,0.1,0.9,0.3,1.3c0.2,0.4,0.4,0.7,0.7,1c0.3,0.3,0.7,0.5,1.1,0.6s0.9,0.2,1.5,0.2
		c1.2,0,2.3-0.3,3.3-0.9v1c-1,0.5-2.2,0.8-3.6,0.8c-0.7,0-1.3-0.1-1.9-0.3c-0.6-0.2-1-0.4-1.4-0.8c-0.4-0.3-0.7-0.8-0.9-1.3
		s-0.3-1.1-0.3-1.7c0-0.6,0.1-1.1,0.4-1.6s0.6-0.9,1-1.3s0.9-0.6,1.5-0.9c0.6-0.2,1.2-0.3,1.9-0.3c0.7,0,1.3,0.1,1.8,0.3
		c0.5,0.2,0.9,0.4,1.3,0.8c0.3,0.3,0.6,0.7,0.8,1.2s0.3,1,0.3,1.6v0.5H153z M159.2,262c0-0.8-0.3-1.4-0.8-1.9
		c-0.5-0.4-1.2-0.7-2.1-0.7c-0.4,0-0.8,0.1-1.2,0.2c-0.4,0.1-0.7,0.3-1,0.5c-0.3,0.2-0.5,0.5-0.7,0.8s-0.3,0.7-0.4,1.1H159.2z"/>
	<path class="st1" d="M170.1,266.6v-4.5c0-1.8-0.9-2.6-2.6-2.6c-0.5,0-0.9,0.1-1.3,0.2c-0.4,0.1-0.7,0.3-1,0.6
		c-0.3,0.2-0.5,0.5-0.7,0.8c-0.2,0.3-0.2,0.7-0.2,1.1v4.5h-1.3v-7.8h1.3v1.4h0c0.8-1,1.9-1.5,3.5-1.5c1.1,0,2,0.3,2.6,0.8
		c0.6,0.6,0.9,1.4,0.9,2.4v4.8H170.1z"/>
	<path class="st1" d="M181.8,266.6v-1.4h0c-0.3,0.5-0.8,0.9-1.5,1.1c-0.6,0.3-1.4,0.4-2.2,0.4c-0.6,0-1.2-0.1-1.8-0.3
		c-0.5-0.2-1-0.4-1.4-0.8c-0.4-0.3-0.7-0.8-0.9-1.2c-0.2-0.5-0.3-1-0.3-1.6c0-0.6,0.1-1.2,0.3-1.7c0.2-0.5,0.5-1,1-1.3
		c0.4-0.4,0.9-0.7,1.5-0.9c0.6-0.2,1.2-0.3,1.9-0.3c1.5,0,2.6,0.4,3.2,1.3h0V255h1.3v11.6H181.8z M181.8,261.9c0-0.3-0.1-0.7-0.2-1
		c-0.2-0.3-0.4-0.6-0.6-0.8c-0.3-0.2-0.6-0.4-1-0.5c-0.4-0.1-0.8-0.2-1.3-0.2c-0.5,0-1,0.1-1.4,0.2c-0.4,0.2-0.8,0.4-1.1,0.7
		c-0.3,0.3-0.5,0.6-0.7,1c-0.2,0.4-0.3,0.9-0.3,1.4c0,0.5,0.1,0.9,0.2,1.3c0.2,0.4,0.4,0.7,0.7,1c0.3,0.3,0.6,0.5,1,0.6
		c0.4,0.1,0.8,0.2,1.3,0.2c0.5,0,1-0.1,1.4-0.2c0.4-0.1,0.8-0.3,1.1-0.6c0.3-0.2,0.5-0.5,0.7-0.9s0.2-0.7,0.2-1.1V261.9z"/>
	<path class="st1" d="M186.4,266.6V255h1.3v11.6H186.4z"/>
	<path class="st1" d="M190.8,268.6h-1l1.3-3.7h1.3L190.8,268.6z M191.7,260.1c-0.3,0-0.5-0.1-0.7-0.2c-0.2-0.1-0.3-0.3-0.3-0.5
		c0-0.2,0.1-0.4,0.3-0.5c0.2-0.1,0.4-0.2,0.7-0.2c0.3,0,0.5,0.1,0.7,0.2c0.2,0.1,0.3,0.3,0.3,0.5c0,0.1,0,0.2-0.1,0.3
		c-0.1,0.1-0.1,0.2-0.2,0.2c-0.1,0.1-0.2,0.1-0.3,0.2C191.9,260.1,191.8,260.1,191.7,260.1z"/>
	<path class="st1" d="M41.5,318.6v-1.3h0c-0.7,1-1.8,1.5-3.3,1.5c-2.5,0-3.7-1.1-3.7-3.4v-4.6h1.3v4.4c0,0.9,0.2,1.6,0.7,2.1
		c0.4,0.4,1.1,0.7,2,0.7c0.4,0,0.9-0.1,1.2-0.2c0.4-0.1,0.7-0.3,1-0.5c0.3-0.2,0.5-0.5,0.6-0.9c0.1-0.3,0.2-0.7,0.2-1.1v-4.5h1.3
		v7.8H41.5z"/>
	<path class="st1" d="M45.6,317.2c0.2,0.1,0.4,0.2,0.6,0.3c0.2,0.1,0.5,0.2,0.7,0.2c0.2,0.1,0.5,0.1,0.7,0.1c0.2,0,0.5,0.1,0.7,0.1
		c1.5,0,2.3-0.4,2.3-1.3c0-0.2-0.1-0.4-0.2-0.5c-0.1-0.1-0.3-0.3-0.5-0.4c-0.2-0.1-0.4-0.2-0.7-0.3c-0.3-0.1-0.6-0.2-1-0.3
		c-0.5-0.1-0.9-0.3-1.2-0.4c-0.3-0.2-0.6-0.3-0.9-0.5c-0.2-0.2-0.4-0.4-0.5-0.6c-0.1-0.2-0.2-0.5-0.2-0.7c0-0.3,0.1-0.7,0.3-0.9
		c0.2-0.3,0.5-0.5,0.8-0.7c0.3-0.2,0.7-0.3,1.2-0.4s0.9-0.1,1.4-0.1c0.9,0,1.7,0.1,2.3,0.4v1c-0.8-0.4-1.6-0.6-2.5-0.6
		c-0.3,0-0.6,0-0.9,0.1c-0.3,0.1-0.5,0.1-0.7,0.3c-0.2,0.1-0.3,0.2-0.4,0.4c-0.1,0.2-0.2,0.3-0.2,0.5c0,0.2,0,0.4,0.1,0.5
		c0.1,0.1,0.2,0.3,0.4,0.4c0.2,0.1,0.4,0.2,0.7,0.3c0.3,0.1,0.6,0.2,1,0.3c0.5,0.2,0.9,0.3,1.3,0.5s0.7,0.3,0.9,0.5
		c0.2,0.2,0.4,0.4,0.5,0.6c0.1,0.2,0.2,0.5,0.2,0.8c0,0.4-0.1,0.7-0.3,0.9c-0.2,0.3-0.5,0.5-0.8,0.7c-0.3,0.2-0.7,0.3-1.2,0.4
		c-0.5,0.1-1,0.1-1.5,0.1c-1,0-1.9-0.2-2.6-0.5V317.2z"/>
	<path class="st1" d="M55.2,314.9c0,0.5,0.1,0.9,0.3,1.3c0.2,0.4,0.4,0.7,0.7,1c0.3,0.3,0.7,0.5,1.1,0.6s0.9,0.2,1.5,0.2
		c1.2,0,2.3-0.3,3.3-0.9v1c-1,0.5-2.2,0.8-3.6,0.8c-0.7,0-1.3-0.1-1.9-0.3c-0.6-0.2-1-0.4-1.4-0.8c-0.4-0.3-0.7-0.8-0.9-1.3
		c-0.2-0.5-0.3-1.1-0.3-1.7c0-0.6,0.1-1.1,0.4-1.6c0.2-0.5,0.6-0.9,1-1.3c0.4-0.4,0.9-0.6,1.5-0.9c0.6-0.2,1.2-0.3,1.9-0.3
		c0.7,0,1.3,0.1,1.8,0.3c0.5,0.2,0.9,0.4,1.3,0.8c0.3,0.3,0.6,0.7,0.8,1.2s0.3,1,0.3,1.6v0.5H55.2z M61.4,314.1
		c0-0.8-0.3-1.4-0.8-1.9c-0.5-0.4-1.2-0.7-2.1-0.7c-0.4,0-0.8,0.1-1.2,0.2c-0.4,0.1-0.7,0.3-1,0.5c-0.3,0.2-0.5,0.5-0.7,0.8
		c-0.2,0.3-0.3,0.7-0.4,1.1H61.4z"/>
	<path class="st1" d="M70.4,311.8c-0.3-0.2-0.7-0.3-1.2-0.3c-0.3,0-0.6,0-0.9,0.1c-0.3,0.1-0.5,0.2-0.7,0.4s-0.4,0.4-0.5,0.6
		c-0.1,0.2-0.2,0.5-0.3,0.7c-0.1,0.2-0.1,0.5-0.2,0.7c0,0.2-0.1,0.5-0.1,0.7v3.8h-1.3v-7.8h1.3v1.7h0c0.1-0.3,0.3-0.5,0.5-0.8
		c0.2-0.2,0.4-0.4,0.6-0.6c0.2-0.2,0.5-0.3,0.8-0.4c0.3-0.1,0.6-0.1,0.9-0.1c0.2,0,0.4,0,0.6,0c0.2,0,0.3,0.1,0.5,0.1V311.8z"/>
	<path class="st1" d="M70.6,320.8V320h8.6v0.8H70.6z"/>
	<path class="st1" d="M87.9,318.6v-4.5c0-1.8-0.9-2.6-2.6-2.6c-0.5,0-0.9,0.1-1.3,0.2c-0.4,0.1-0.7,0.3-1,0.6
		c-0.3,0.2-0.5,0.5-0.7,0.9s-0.2,0.7-0.2,1.1v4.5h-1.3v-7.8h1.3v1.4h0c0.8-1,1.9-1.5,3.5-1.5c1.1,0,2,0.3,2.6,0.8s0.9,1.4,0.9,2.4
		v4.8H87.9z"/>
	<path class="st1" d="M98.2,318.6v-1.4h0c-0.3,0.5-0.8,0.9-1.4,1.2c-0.6,0.3-1.2,0.4-2,0.4c-0.5,0-1-0.1-1.4-0.2
		c-0.4-0.1-0.7-0.3-1-0.5c-0.3-0.2-0.5-0.4-0.6-0.7c-0.2-0.3-0.2-0.6-0.2-0.9c0-0.7,0.3-1.3,0.9-1.7c0.6-0.4,1.5-0.7,2.6-0.8
		l3.1-0.3c0-1.5-0.8-2.2-2.3-2.2c-1.2,0-2.3,0.3-3.4,1v-1.1c0.2-0.1,0.5-0.2,0.7-0.3c0.3-0.1,0.6-0.2,0.9-0.2
		c0.3-0.1,0.6-0.1,0.9-0.2c0.3,0,0.6-0.1,0.9-0.1c1.2,0,2,0.2,2.6,0.7c0.6,0.5,0.9,1.2,0.9,2.2v5.1H98.2z M95.6,314.9
		c-0.5,0.1-0.9,0.1-1.2,0.2c-0.3,0.1-0.6,0.2-0.8,0.3c-0.2,0.1-0.4,0.3-0.5,0.5c-0.1,0.2-0.2,0.4-0.2,0.7c0,0.2,0,0.4,0.1,0.6
		c0.1,0.2,0.2,0.3,0.4,0.5c0.2,0.1,0.4,0.2,0.7,0.3c0.3,0.1,0.6,0.1,0.9,0.1c0.5,0,0.9-0.1,1.3-0.2c0.4-0.1,0.7-0.3,1-0.5
		c0.3-0.2,0.5-0.5,0.7-0.8c0.2-0.3,0.2-0.7,0.2-1.1v-0.8L95.6,314.9z"/>
	<path class="st1" d="M115.7,318.6v-4.6c0-0.5,0-0.9-0.1-1.2c-0.1-0.3-0.2-0.6-0.4-0.8c-0.2-0.2-0.5-0.4-0.8-0.4
		c-0.3-0.1-0.7-0.1-1.1-0.1c-0.4,0-0.7,0.1-1.1,0.2c-0.3,0.1-0.6,0.3-0.9,0.6c-0.3,0.2-0.5,0.5-0.6,0.8c-0.1,0.3-0.2,0.7-0.2,1v4.5
		h-1.3V314c0-1.6-0.8-2.5-2.5-2.5c-0.4,0-0.7,0.1-1.1,0.2c-0.3,0.1-0.6,0.3-0.9,0.5s-0.4,0.5-0.6,0.8s-0.2,0.7-0.2,1.1v4.5h-1.3
		v-7.8h1.3v1.3h0c0.7-1,1.8-1.4,3.2-1.4c0.4,0,0.7,0,1,0.1s0.6,0.2,0.9,0.4s0.5,0.3,0.7,0.5c0.2,0.2,0.3,0.4,0.4,0.7
		c0.4-0.6,0.8-1,1.4-1.3s1.2-0.4,2-0.4c2.3,0,3.4,1.1,3.4,3.2v4.8H115.7z"/>
	<path class="st1" d="M120.7,314.9c0,0.5,0.1,0.9,0.3,1.3c0.2,0.4,0.4,0.7,0.7,1c0.3,0.3,0.7,0.5,1.1,0.6c0.4,0.1,0.9,0.2,1.5,0.2
		c1.2,0,2.3-0.3,3.3-0.9v1c-1,0.5-2.2,0.8-3.6,0.8c-0.7,0-1.3-0.1-1.9-0.3c-0.6-0.2-1-0.4-1.4-0.8c-0.4-0.3-0.7-0.8-0.9-1.3
		c-0.2-0.5-0.3-1.1-0.3-1.7c0-0.6,0.1-1.1,0.4-1.6c0.2-0.5,0.6-0.9,1-1.3c0.4-0.4,0.9-0.6,1.5-0.9s1.2-0.3,1.9-0.3
		c0.7,0,1.3,0.1,1.8,0.3c0.5,0.2,0.9,0.4,1.3,0.8c0.3,0.3,0.6,0.7,0.8,1.2s0.3,1,0.3,1.6v0.5H120.7z M126.9,314.1
		c0-0.8-0.3-1.4-0.8-1.9c-0.5-0.4-1.2-0.7-2.1-0.7c-0.4,0-0.8,0.1-1.2,0.2c-0.4,0.1-0.7,0.3-1,0.5c-0.3,0.2-0.5,0.5-0.7,0.8
		c-0.2,0.3-0.3,0.7-0.4,1.1H126.9z"/>
	<path class="st1" d="M137,313v-0.8h9.4v0.8H137z M137,316.1v-0.8h9.4v0.8H137z"/>
	<path class="st1" d="M157.2,311.1H156v-3.4h1.2V311.1z M160.1,311.1h-1.2v-3.4h1.2V311.1z"/>
	<path class="st1" d="M167.8,308.6v10h-1.3v-10h-4.2v-0.9h9.7v0.9H167.8z"/>
	<path class="st1" d="M181.2,318.6v-4.6c0-0.9-0.2-1.5-0.6-1.9c-0.4-0.4-1.1-0.6-2-0.6c-0.4,0-0.8,0.1-1.2,0.2
		c-0.4,0.1-0.7,0.3-1,0.5c-0.3,0.2-0.5,0.5-0.7,0.9c-0.2,0.3-0.3,0.7-0.3,1.2v4.4h-1.3v-11.6h1.3v5.1h0c0.8-1,2-1.5,3.5-1.5
		c1.2,0,2,0.3,2.6,0.8c0.6,0.5,0.9,1.3,0.9,2.4v4.8H181.2z"/>
	<path class="st1" d="M186.2,314.9c0,0.5,0.1,0.9,0.3,1.3c0.2,0.4,0.4,0.7,0.7,1c0.3,0.3,0.7,0.5,1.1,0.6c0.4,0.1,0.9,0.2,1.5,0.2
		c1.2,0,2.3-0.3,3.3-0.9v1c-1,0.5-2.2,0.8-3.6,0.8c-0.7,0-1.3-0.1-1.9-0.3c-0.6-0.2-1-0.4-1.4-0.8c-0.4-0.3-0.7-0.8-0.9-1.3
		c-0.2-0.5-0.3-1.1-0.3-1.7c0-0.6,0.1-1.1,0.4-1.6c0.2-0.5,0.6-0.9,1-1.3c0.4-0.4,0.9-0.6,1.5-0.9c0.6-0.2,1.2-0.3,1.9-0.3
		c0.7,0,1.3,0.1,1.8,0.3c0.5,0.2,0.9,0.4,1.3,0.8c0.3,0.3,0.6,0.7,0.8,1.2s0.3,1,0.3,1.6v0.5H186.2z M192.4,314.1
		c0-0.8-0.3-1.4-0.8-1.9c-0.5-0.4-1.2-0.7-2.1-0.7c-0.4,0-0.8,0.1-1.2,0.2c-0.4,0.1-0.7,0.3-1,0.5c-0.3,0.2-0.5,0.5-0.7,0.8
		c-0.2,0.3-0.3,0.7-0.4,1.1H192.4z"/>
	<path class="st1" d="M212.8,317.9c-1.5,0.6-3.1,0.9-4.7,0.9c-1.1,0-2-0.1-2.8-0.4c-0.8-0.3-1.5-0.7-2.1-1.1c-0.6-0.5-1-1.1-1.4-1.7
		c-0.3-0.7-0.5-1.4-0.5-2.2c0-0.5,0.1-1,0.2-1.5c0.2-0.5,0.4-1,0.7-1.4s0.7-0.8,1.1-1.2c0.4-0.4,0.9-0.7,1.5-0.9s1.2-0.4,1.8-0.6
		c0.7-0.1,1.4-0.2,2.1-0.2c1.4,0,2.7,0.2,3.8,0.6v1.1c-1.2-0.5-2.6-0.8-4-0.8c-0.9,0-1.7,0.1-2.4,0.4c-0.7,0.2-1.3,0.6-1.8,1
		c-0.5,0.4-0.9,0.9-1.2,1.5c-0.3,0.6-0.4,1.2-0.4,1.9c0,0.7,0.1,1.3,0.3,1.9s0.6,1.1,1.1,1.5c0.5,0.4,1.1,0.7,1.8,1s1.5,0.4,2.4,0.4
		c1.2,0,2.3-0.2,3.2-0.6V314h-3.3v-0.9h4.6V317.9z"/>
	<path class="st1" d="M221.1,311.8c-0.3-0.2-0.7-0.3-1.2-0.3c-0.3,0-0.6,0-0.9,0.1c-0.3,0.1-0.5,0.2-0.7,0.4s-0.4,0.4-0.5,0.6
		c-0.1,0.2-0.2,0.5-0.3,0.7c-0.1,0.2-0.1,0.5-0.2,0.7c0,0.2-0.1,0.5-0.1,0.7v3.8H216v-7.8h1.3v1.7h0c0.1-0.3,0.3-0.5,0.5-0.8
		c0.2-0.2,0.4-0.4,0.6-0.6c0.2-0.2,0.5-0.3,0.8-0.4c0.3-0.1,0.6-0.1,0.9-0.1c0.2,0,0.4,0,0.6,0c0.2,0,0.3,0.1,0.5,0.1V311.8z"/>
	<path class="st1" d="M223.3,314.9c0,0.5,0.1,0.9,0.3,1.3c0.2,0.4,0.4,0.7,0.7,1c0.3,0.3,0.7,0.5,1.1,0.6s0.9,0.2,1.5,0.2
		c1.2,0,2.3-0.3,3.3-0.9v1c-1,0.5-2.2,0.8-3.6,0.8c-0.7,0-1.3-0.1-1.9-0.3c-0.6-0.2-1-0.4-1.4-0.8c-0.4-0.3-0.7-0.8-0.9-1.3
		c-0.2-0.5-0.3-1.1-0.3-1.7c0-0.6,0.1-1.1,0.4-1.6c0.2-0.5,0.6-0.9,1-1.3c0.4-0.4,0.9-0.6,1.5-0.9s1.2-0.3,1.9-0.3
		c0.7,0,1.3,0.1,1.8,0.3c0.5,0.2,0.9,0.4,1.3,0.8c0.3,0.3,0.6,0.7,0.8,1.2s0.3,1,0.3,1.6v0.5H223.3z M229.5,314.1
		c0-0.8-0.3-1.4-0.8-1.9c-0.5-0.4-1.2-0.7-2.1-0.7c-0.4,0-0.8,0.1-1.2,0.2c-0.4,0.1-0.7,0.3-1,0.5c-0.3,0.2-0.5,0.5-0.7,0.8
		c-0.2,0.3-0.3,0.7-0.4,1.1H229.5z"/>
	<path class="st1" d="M239.3,318.6v-1.4h0c-0.3,0.5-0.8,0.9-1.4,1.2c-0.6,0.3-1.2,0.4-2,0.4c-0.5,0-1-0.1-1.4-0.2
		c-0.4-0.1-0.7-0.3-1-0.5s-0.5-0.4-0.6-0.7c-0.2-0.3-0.2-0.6-0.2-0.9c0-0.7,0.3-1.3,0.9-1.7s1.5-0.7,2.6-0.8l3.1-0.3
		c0-1.5-0.8-2.2-2.3-2.2c-1.2,0-2.3,0.3-3.4,1v-1.1c0.2-0.1,0.5-0.2,0.7-0.3c0.3-0.1,0.6-0.2,0.9-0.2c0.3-0.1,0.6-0.1,0.9-0.2
		c0.3,0,0.6-0.1,0.9-0.1c1.2,0,2,0.2,2.6,0.7s0.9,1.2,0.9,2.2v5.1H239.3z M236.7,314.9c-0.5,0.1-0.9,0.1-1.2,0.2
		c-0.3,0.1-0.6,0.2-0.8,0.3s-0.4,0.3-0.5,0.5c-0.1,0.2-0.2,0.4-0.2,0.7c0,0.2,0,0.4,0.1,0.6s0.2,0.3,0.4,0.5
		c0.2,0.1,0.4,0.2,0.7,0.3c0.3,0.1,0.6,0.1,0.9,0.1c0.5,0,0.9-0.1,1.3-0.2c0.4-0.1,0.7-0.3,1-0.5c0.3-0.2,0.5-0.5,0.7-0.8
		c0.2-0.3,0.2-0.7,0.2-1.1v-0.8L236.7,314.9z"/>
	<path class="st1" d="M248.2,318.6c-0.4,0.2-0.9,0.3-1.5,0.3c-1.7,0-2.5-0.7-2.5-2.2v-4.9h-1.8v-0.9h1.8v-2l1.3-0.3v2.3h2.7v0.9
		h-2.7v4.8c0,0.5,0.1,0.9,0.3,1.1c0.2,0.2,0.6,0.4,1.2,0.4c0.4,0,0.8-0.1,1.2-0.3V318.6z"/>
	<path class="st1" d="M268.7,318.6h-1.4l-3.1-8.1c-0.1-0.2-0.1-0.4-0.2-0.6c0-0.2-0.1-0.4-0.1-0.5h0c0,0.3-0.1,0.6-0.3,1.1l-3.2,8.1
		H259l-4.3-10.9h1.5l3.2,8.6c0.1,0.2,0.1,0.4,0.2,0.5c0,0.2,0.1,0.3,0.1,0.5h0c0-0.2,0.2-0.6,0.3-1l3.4-8.6h1.1l3.2,8.6
		c0.1,0.2,0.1,0.3,0.2,0.5c0,0.2,0.1,0.3,0.1,0.5h0c0-0.1,0-0.2,0.1-0.3c0-0.1,0.1-0.3,0.1-0.4l3.2-8.8h1.5L268.7,318.6z"/>
	<path class="st1" d="M282,318.6v-4.6c0-0.9-0.2-1.5-0.6-1.9c-0.4-0.4-1.1-0.6-2-0.6c-0.4,0-0.8,0.1-1.2,0.2c-0.4,0.1-0.7,0.3-1,0.5
		c-0.3,0.2-0.5,0.5-0.7,0.9c-0.2,0.3-0.3,0.7-0.3,1.2v4.4H275v-11.6h1.3v5.1h0c0.8-1,2-1.5,3.5-1.5c1.2,0,2,0.3,2.6,0.8
		c0.6,0.5,0.9,1.3,0.9,2.4v4.8H282z"/>
	<path class="st1" d="M292.4,318.6v-1.4h0c-0.3,0.5-0.8,0.9-1.4,1.2c-0.6,0.3-1.2,0.4-2,0.4c-0.5,0-1-0.1-1.4-0.2
		c-0.4-0.1-0.7-0.3-1-0.5s-0.5-0.4-0.6-0.7c-0.2-0.3-0.2-0.6-0.2-0.9c0-0.7,0.3-1.3,0.9-1.7s1.5-0.7,2.6-0.8l3.1-0.3
		c0-1.5-0.8-2.2-2.3-2.2c-1.2,0-2.3,0.3-3.4,1v-1.1c0.2-0.1,0.5-0.2,0.7-0.3c0.3-0.1,0.6-0.2,0.9-0.2c0.3-0.1,0.6-0.1,0.9-0.2
		c0.3,0,0.6-0.1,0.9-0.1c1.2,0,2,0.2,2.6,0.7s0.9,1.2,0.9,2.2v5.1H292.4z M289.7,314.9c-0.5,0.1-0.9,0.1-1.2,0.2
		c-0.3,0.1-0.6,0.2-0.8,0.3s-0.4,0.3-0.5,0.5c-0.1,0.2-0.2,0.4-0.2,0.7c0,0.2,0,0.4,0.1,0.6s0.2,0.3,0.4,0.5s0.4,0.2,0.7,0.3
		c0.3,0.1,0.6,0.1,0.9,0.1c0.5,0,0.9-0.1,1.3-0.2c0.4-0.1,0.7-0.3,1-0.5c0.3-0.2,0.5-0.5,0.7-0.8c0.2-0.3,0.2-0.7,0.2-1.1v-0.8
		L289.7,314.9z"/>
	<path class="st1" d="M296.8,318.6v-11.6h1.3v11.6H296.8z"/>
	<path class="st1" d="M302,314.9c0,0.5,0.1,0.9,0.3,1.3c0.2,0.4,0.4,0.7,0.7,1c0.3,0.3,0.7,0.5,1.1,0.6s0.9,0.2,1.5,0.2
		c1.2,0,2.3-0.3,3.3-0.9v1c-1,0.5-2.2,0.8-3.6,0.8c-0.7,0-1.3-0.1-1.9-0.3c-0.6-0.2-1-0.4-1.4-0.8c-0.4-0.3-0.7-0.8-0.9-1.3
		c-0.2-0.5-0.3-1.1-0.3-1.7c0-0.6,0.1-1.1,0.4-1.6c0.2-0.5,0.6-0.9,1-1.3c0.4-0.4,0.9-0.6,1.5-0.9s1.2-0.3,1.9-0.3
		c0.7,0,1.3,0.1,1.8,0.3c0.5,0.2,0.9,0.4,1.3,0.8c0.3,0.3,0.6,0.7,0.8,1.2c0.2,0.5,0.3,1,0.3,1.6v0.5H302z M308.2,314.1
		c0-0.8-0.3-1.4-0.8-1.9c-0.5-0.4-1.2-0.7-2.1-0.7c-0.4,0-0.8,0.1-1.2,0.2c-0.4,0.1-0.7,0.3-1,0.5c-0.3,0.2-0.5,0.5-0.7,0.8
		c-0.2,0.3-0.3,0.7-0.4,1.1H308.2z"/>
	<path class="st1" d="M312.2,311.1h-1.2v-3.4h1.2V311.1z M315.2,311.1H314v-3.4h1.2V311.1z"/>
	<path class="st1" d="M318.3,320.6h-1l1.3-3.7h1.3L318.3,320.6z M319.2,312.2c-0.3,0-0.5-0.1-0.7-0.2c-0.2-0.1-0.3-0.3-0.3-0.5
		s0.1-0.4,0.3-0.5c0.2-0.1,0.4-0.2,0.7-0.2c0.3,0,0.5,0.1,0.7,0.2s0.3,0.3,0.3,0.5c0,0.1,0,0.2-0.1,0.3c-0.1,0.1-0.1,0.2-0.2,0.2
		s-0.2,0.1-0.3,0.2C319.5,312.1,319.3,312.2,319.2,312.2z"/>
	<path class="st1" d="M328,320.5h-1.2l7-12.7h1.3L328,320.5z"/>
	<path class="st1" d="M335.9,320.5h-1.2l7-12.7h1.3L335.9,320.5z"/>
	<path class="st1" d="M33.6,344.7v-8.2c0-0.2,0-0.5,0-0.7c0-0.2,0-0.4,0-0.5h-0.1c-0.1,0.1-0.1,0.2-0.2,0.4s-0.2,0.2-0.3,0.3
		l-8.1,8.8h-1.4v-10.9H25v8.1c0,0.3,0,0.5,0,0.7c0,0.2,0,0.4,0,0.5h0c0.1-0.1,0.2-0.2,0.3-0.3c0.1-0.1,0.2-0.3,0.3-0.4l7.9-8.7h1.5
		v10.9H33.6z"/>
	<path class="st1" d="M45.3,342.5c0,0.3-0.1,0.6-0.3,0.9c-0.2,0.3-0.4,0.5-0.8,0.7c-0.4,0.2-0.8,0.4-1.4,0.5
		c-0.5,0.1-1.2,0.2-1.9,0.2c-0.3,0-0.6,0-0.9,0c-0.3,0-0.6-0.1-0.9-0.1c-0.3,0-0.5-0.1-0.8-0.1s-0.5-0.1-0.6-0.2v-1
		c0.5,0.2,1,0.3,1.5,0.4c0.6,0.1,1.1,0.1,1.7,0.1c0.6,0,1,0,1.4-0.1c0.4-0.1,0.7-0.2,1-0.3c0.2-0.1,0.4-0.3,0.5-0.5
		c0.1-0.2,0.2-0.4,0.2-0.6c0-0.5-0.3-0.9-0.8-1.1c-0.6-0.2-1.3-0.3-2.4-0.3h-1.2v-0.8h1.1c1,0,1.7-0.1,2.1-0.3
		c0.5-0.2,0.7-0.6,0.7-1.1c0-0.4-0.2-0.7-0.6-0.9c-0.4-0.2-1-0.4-1.9-0.4c-0.5,0-1.1,0.1-1.6,0.2s-1,0.2-1.5,0.4v-0.9
		c0.5-0.1,1-0.3,1.6-0.4c0.6-0.1,1.1-0.1,1.7-0.1c0.6,0,1.2,0.1,1.7,0.2c0.5,0.1,0.8,0.2,1.1,0.4c0.3,0.2,0.5,0.4,0.7,0.6
		c0.1,0.3,0.2,0.5,0.2,0.8c0,0.5-0.2,0.9-0.6,1.2c-0.4,0.3-0.9,0.5-1.6,0.6v0c0.4,0,0.8,0.1,1.1,0.2c0.3,0.1,0.6,0.2,0.8,0.4
		c0.2,0.2,0.4,0.4,0.5,0.6S45.3,342.2,45.3,342.5z"/>
	<path class="st1" d="M57.1,344.7v-6.6c0,0-0.1,0.1-0.1,0.2c0,0.1-0.1,0.2-0.2,0.4c-0.1,0.1-0.1,0.3-0.2,0.4s-0.1,0.3-0.2,0.4
		l-2.7,5.2h-1.1l-2.9-5.2c0-0.1-0.1-0.2-0.2-0.3c-0.1-0.1-0.1-0.3-0.2-0.4c-0.1-0.1-0.1-0.3-0.2-0.4c-0.1-0.1-0.1-0.2-0.2-0.3v6.6
		h-1.2v-7.8h1.6l2.9,5.3c0.1,0.1,0.1,0.2,0.2,0.4s0.1,0.3,0.2,0.4s0.1,0.3,0.2,0.4c0.1,0.1,0.1,0.2,0.1,0.3c0-0.1,0.1-0.1,0.1-0.3
		c0.1-0.1,0.1-0.2,0.2-0.4c0.1-0.1,0.1-0.3,0.2-0.4c0.1-0.1,0.1-0.3,0.2-0.4l2.8-5.3h1.7v7.8H57.1z"/>
	<path class="st1" d="M62.3,340.9c0,0.5,0.1,0.9,0.3,1.3s0.4,0.7,0.7,1c0.3,0.3,0.7,0.5,1.1,0.6c0.4,0.1,0.9,0.2,1.5,0.2
		c1.2,0,2.3-0.3,3.3-0.9v1c-1,0.5-2.2,0.8-3.6,0.8c-0.7,0-1.3-0.1-1.9-0.3c-0.6-0.2-1-0.4-1.4-0.8c-0.4-0.3-0.7-0.8-0.9-1.3
		c-0.2-0.5-0.3-1.1-0.3-1.7c0-0.6,0.1-1.1,0.4-1.6c0.2-0.5,0.6-0.9,1-1.3c0.4-0.4,0.9-0.6,1.5-0.9c0.6-0.2,1.2-0.3,1.9-0.3
		c0.7,0,1.3,0.1,1.8,0.3c0.5,0.2,0.9,0.4,1.3,0.8c0.3,0.3,0.6,0.7,0.8,1.2s0.3,1,0.3,1.6v0.5H62.3z M68.5,340.1
		c0-0.8-0.3-1.4-0.8-1.9c-0.5-0.4-1.2-0.7-2.1-0.7c-0.4,0-0.8,0.1-1.2,0.2c-0.4,0.1-0.7,0.3-1,0.5c-0.3,0.2-0.5,0.5-0.7,0.8
		c-0.2,0.3-0.3,0.7-0.4,1.1H68.5z"/>
	<path class="st1" d="M79.4,344.7V341h-5.7v3.6h-1.3v-7.8h1.3v3.3h5.7v-3.3h1.3v7.8H79.4z"/>
	<path class="st1" d="M91.2,344.7v-6.4c0,0.1-0.1,0.1-0.1,0.2c0,0.1-0.1,0.1-0.1,0.2l-5.7,6H84v-7.8h1.2v6.3c0-0.1,0.1-0.2,0.1-0.2
		c0.1-0.1,0.1-0.2,0.2-0.3l5.5-5.8h1.2v7.8H91.2z"/>
	<path class="st1" d="M98.8,337.7v7h-1.3v-7h-3.1v-0.9h7.5v0.9H98.8z"/>
	<path class="st1" d="M111.3,342.3c0,0.4-0.1,0.7-0.3,1c-0.2,0.3-0.4,0.5-0.7,0.7c-0.3,0.2-0.6,0.4-1,0.5s-0.8,0.2-1.2,0.2h-4.3
		v-7.8h1.3v3.1h2.9c0.5,0,1,0.1,1.4,0.2s0.8,0.3,1.1,0.5c0.3,0.2,0.5,0.4,0.7,0.7C111.2,341.6,111.3,341.9,111.3,342.3z M110,342.3
		c0-0.4-0.2-0.8-0.6-1.1s-0.9-0.4-1.7-0.4h-2.6v3h2.6c0.4,0,0.7,0,1-0.1c0.3-0.1,0.5-0.2,0.7-0.3c0.2-0.1,0.3-0.3,0.4-0.5
		C109.9,342.7,110,342.5,110,342.3z"/>
	<path class="st1" d="M126.3,342.5c0,0.3-0.1,0.6-0.3,0.9c-0.2,0.3-0.4,0.5-0.8,0.7c-0.4,0.2-0.8,0.4-1.4,0.5
		c-0.5,0.1-1.2,0.2-1.9,0.2c-0.3,0-0.6,0-0.9,0c-0.3,0-0.6-0.1-0.9-0.1c-0.3,0-0.5-0.1-0.8-0.1s-0.5-0.1-0.6-0.2v-1
		c0.5,0.2,1,0.3,1.5,0.4c0.6,0.1,1.1,0.1,1.7,0.1c0.6,0,1,0,1.4-0.1c0.4-0.1,0.7-0.2,1-0.3c0.2-0.1,0.4-0.3,0.5-0.5
		c0.1-0.2,0.2-0.4,0.2-0.6c0-0.5-0.3-0.9-0.8-1.1c-0.6-0.2-1.3-0.3-2.4-0.3h-1.2v-0.8h1.1c1,0,1.7-0.1,2.1-0.3
		c0.5-0.2,0.7-0.6,0.7-1.1c0-0.4-0.2-0.7-0.6-0.9c-0.4-0.2-1-0.4-1.9-0.4c-0.5,0-1.1,0.1-1.6,0.2s-1,0.2-1.5,0.4v-0.9
		c0.5-0.1,1-0.3,1.6-0.4c0.6-0.1,1.1-0.1,1.7-0.1c0.6,0,1.2,0.1,1.7,0.2c0.5,0.1,0.8,0.2,1.1,0.4c0.3,0.2,0.5,0.4,0.7,0.6
		c0.1,0.3,0.2,0.5,0.2,0.8c0,0.5-0.2,0.9-0.6,1.2c-0.4,0.3-0.9,0.5-1.6,0.6v0c0.4,0,0.8,0.1,1.1,0.2s0.6,0.2,0.8,0.4
		c0.2,0.2,0.4,0.4,0.5,0.6S126.3,342.2,126.3,342.5z"/>
	<path class="st1" d="M135.9,344.7V341h-5.7v3.6h-1.3v-7.8h1.3v3.3h5.7v-3.3h1.3v7.8H135.9z"/>
	<path class="st1" d="M146.5,344.7v-1.4h0c-0.3,0.5-0.8,0.9-1.4,1.2c-0.6,0.3-1.2,0.4-2,0.4c-0.5,0-1-0.1-1.4-0.2
		c-0.4-0.1-0.7-0.3-1-0.5c-0.3-0.2-0.5-0.4-0.6-0.7c-0.2-0.3-0.2-0.6-0.2-0.9c0-0.7,0.3-1.3,0.9-1.7s1.5-0.7,2.6-0.8l3.1-0.3
		c0-1.5-0.8-2.2-2.3-2.2c-1.2,0-2.3,0.3-3.4,1v-1.1c0.2-0.1,0.5-0.2,0.7-0.3c0.3-0.1,0.6-0.2,0.9-0.2c0.3-0.1,0.6-0.1,0.9-0.2
		c0.3,0,0.6-0.1,0.9-0.1c1.2,0,2,0.2,2.6,0.7s0.9,1.2,0.9,2.2v5.1H146.5z M143.8,340.9c-0.5,0.1-0.9,0.1-1.2,0.2
		c-0.3,0.1-0.6,0.2-0.8,0.3c-0.2,0.1-0.4,0.3-0.5,0.5c-0.1,0.2-0.2,0.4-0.2,0.7c0,0.2,0,0.4,0.1,0.6c0.1,0.2,0.2,0.3,0.4,0.5
		s0.4,0.2,0.7,0.3c0.3,0.1,0.6,0.1,0.9,0.1c0.5,0,0.9-0.1,1.3-0.2c0.4-0.1,0.7-0.3,1-0.5s0.5-0.5,0.7-0.8c0.2-0.3,0.2-0.7,0.2-1.1
		v-0.8L143.8,340.9z"/>
	<path class="st1" d="M157.3,344.7v-3.3c-0.6,0.3-1.2,0.5-1.8,0.6c-0.6,0.1-1.1,0.2-1.7,0.2c-0.5,0-1-0.1-1.4-0.2
		c-0.4-0.1-0.8-0.3-1-0.5c-0.3-0.2-0.5-0.5-0.7-0.9c-0.2-0.3-0.2-0.8-0.2-1.2v-2.6h1.3v2.5c0,0.3,0,0.6,0.1,0.8
		c0.1,0.2,0.2,0.4,0.4,0.6c0.2,0.2,0.4,0.3,0.7,0.4c0.3,0.1,0.6,0.1,1,0.1c0.6,0,1.2-0.1,1.7-0.2c0.6-0.1,1.1-0.3,1.7-0.5v-3.7h1.3
		v7.8H157.3z"/>
	<path class="st1" d="M162.5,340.9c0,0.5,0.1,0.9,0.3,1.3s0.4,0.7,0.7,1c0.3,0.3,0.7,0.5,1.1,0.6s0.9,0.2,1.5,0.2
		c1.2,0,2.3-0.3,3.3-0.9v1c-1,0.5-2.2,0.8-3.6,0.8c-0.7,0-1.3-0.1-1.9-0.3c-0.6-0.2-1-0.4-1.4-0.8c-0.4-0.3-0.7-0.8-0.9-1.3
		c-0.2-0.5-0.3-1.1-0.3-1.7c0-0.6,0.1-1.1,0.4-1.6c0.2-0.5,0.6-0.9,1-1.3c0.4-0.4,0.9-0.6,1.5-0.9c0.6-0.2,1.2-0.3,1.9-0.3
		c0.7,0,1.3,0.1,1.8,0.3c0.5,0.2,0.9,0.4,1.3,0.8c0.3,0.3,0.6,0.7,0.8,1.2s0.3,1,0.3,1.6v0.5H162.5z M168.7,340.1
		c0-0.8-0.3-1.4-0.8-1.9c-0.5-0.4-1.2-0.7-2.1-0.7c-0.4,0-0.8,0.1-1.2,0.2c-0.4,0.1-0.7,0.3-1,0.5c-0.3,0.2-0.5,0.5-0.7,0.8
		s-0.3,0.7-0.4,1.1H168.7z"/>
	<path class="st1" d="M179.5,344.7V341h-5.7v3.6h-1.3v-7.8h1.3v3.3h5.7v-3.3h1.3v7.8H179.5z"/>
	<path class="st1" d="M191.4,344.7v-6.4c0,0.1-0.1,0.1-0.1,0.2c0,0.1-0.1,0.1-0.1,0.2l-5.7,6h-1.2v-7.8h1.2v6.3
		c0-0.1,0.1-0.2,0.1-0.2c0.1-0.1,0.1-0.2,0.2-0.3l5.5-5.8h1.2v7.8H191.4z"/>
	<path class="st1" d="M196.5,340.9c0,0.5,0.1,0.9,0.3,1.3s0.4,0.7,0.7,1c0.3,0.3,0.7,0.5,1.1,0.6c0.4,0.1,0.9,0.2,1.5,0.2
		c1.2,0,2.3-0.3,3.3-0.9v1c-1,0.5-2.2,0.8-3.6,0.8c-0.7,0-1.3-0.1-1.9-0.3c-0.6-0.2-1-0.4-1.4-0.8c-0.4-0.3-0.7-0.8-0.9-1.3
		c-0.2-0.5-0.3-1.1-0.3-1.7c0-0.6,0.1-1.1,0.4-1.6c0.2-0.5,0.6-0.9,1-1.3c0.4-0.4,0.9-0.6,1.5-0.9c0.6-0.2,1.2-0.3,1.9-0.3
		c0.7,0,1.3,0.1,1.8,0.3c0.5,0.2,0.9,0.4,1.3,0.8c0.3,0.3,0.6,0.7,0.8,1.2s0.3,1,0.3,1.6v0.5H196.5z M202.7,340.1
		c0-0.8-0.3-1.4-0.8-1.9c-0.5-0.4-1.2-0.7-2.1-0.7c-0.4,0-0.8,0.1-1.2,0.2c-0.4,0.1-0.7,0.3-1,0.5c-0.3,0.2-0.5,0.5-0.7,0.8
		s-0.3,0.7-0.4,1.1H202.7z"/>
	<path class="st1" d="M219.2,344.7v-7h-5.7v7h-1.3v-7.8h8.3v7.8H219.2z"/>
	<path class="st1" d="M224.5,340.9c0,0.5,0.1,0.9,0.3,1.3c0.2,0.4,0.4,0.7,0.7,1c0.3,0.3,0.7,0.5,1.1,0.6c0.4,0.1,0.9,0.2,1.5,0.2
		c1.2,0,2.3-0.3,3.3-0.9v1c-1,0.5-2.2,0.8-3.6,0.8c-0.7,0-1.3-0.1-1.9-0.3c-0.6-0.2-1-0.4-1.4-0.8c-0.4-0.3-0.7-0.8-0.9-1.3
		c-0.2-0.5-0.3-1.1-0.3-1.7c0-0.6,0.1-1.1,0.4-1.6c0.2-0.5,0.6-0.9,1-1.3c0.4-0.4,0.9-0.6,1.5-0.9c0.6-0.2,1.2-0.3,1.9-0.3
		c0.7,0,1.3,0.1,1.8,0.3c0.5,0.2,0.9,0.4,1.3,0.8c0.3,0.3,0.6,0.7,0.8,1.2s0.3,1,0.3,1.6v0.5H224.5z M230.6,340.1
		c0-0.8-0.3-1.4-0.8-1.9c-0.5-0.4-1.2-0.7-2.1-0.7c-0.4,0-0.8,0.1-1.2,0.2c-0.4,0.1-0.7,0.3-1,0.5c-0.3,0.2-0.5,0.5-0.7,0.8
		c-0.2,0.3-0.3,0.7-0.4,1.1H230.6z"/>
	<path class="st1" d="M235.8,343.4v4.8h-1.3v-11.4h1.3v1.5h0c0.4-0.5,0.9-1,1.5-1.2c0.6-0.3,1.4-0.4,2.2-0.4c0.7,0,1.3,0.1,1.8,0.3
		c0.5,0.2,1,0.4,1.3,0.8c0.4,0.3,0.6,0.7,0.8,1.2c0.2,0.5,0.3,1,0.3,1.6c0,0.6-0.1,1.2-0.3,1.8c-0.2,0.5-0.5,1-0.9,1.4
		c-0.4,0.4-0.9,0.7-1.5,0.9c-0.6,0.2-1.2,0.3-1.9,0.3C237.7,344.8,236.6,344.4,235.8,343.4L235.8,343.4z M235.8,341.4
		c0,0.4,0.1,0.7,0.2,1c0.2,0.3,0.4,0.6,0.7,0.8c0.3,0.2,0.6,0.4,1,0.6c0.4,0.1,0.8,0.2,1.3,0.2c0.5,0,1-0.1,1.4-0.2
		c0.4-0.2,0.8-0.4,1.1-0.7c0.3-0.3,0.5-0.7,0.7-1.1c0.2-0.4,0.2-0.9,0.2-1.4c0-0.5-0.1-0.9-0.2-1.2c-0.1-0.4-0.4-0.7-0.6-0.9
		c-0.3-0.3-0.6-0.5-1-0.6c-0.4-0.1-0.8-0.2-1.3-0.2c-0.5,0-1,0.1-1.5,0.2c-0.4,0.1-0.8,0.4-1.1,0.6c-0.3,0.3-0.5,0.6-0.7,0.9
		c-0.2,0.3-0.2,0.7-0.2,1.1V341.4z"/>
	<path class="st1" d="M247,340.9c0,0.5,0.1,0.9,0.3,1.3s0.4,0.7,0.7,1c0.3,0.3,0.7,0.5,1.1,0.6s0.9,0.2,1.5,0.2
		c1.2,0,2.3-0.3,3.3-0.9v1c-1,0.5-2.2,0.8-3.6,0.8c-0.7,0-1.3-0.1-1.9-0.3c-0.6-0.2-1-0.4-1.4-0.8s-0.7-0.8-0.9-1.3
		c-0.2-0.5-0.3-1.1-0.3-1.7c0-0.6,0.1-1.1,0.4-1.6c0.2-0.5,0.6-0.9,1-1.3c0.4-0.4,0.9-0.6,1.5-0.9c0.6-0.2,1.2-0.3,1.9-0.3
		c0.7,0,1.3,0.1,1.8,0.3c0.5,0.2,0.9,0.4,1.3,0.8c0.3,0.3,0.6,0.7,0.8,1.2s0.3,1,0.3,1.6v0.5H247z M253.2,340.1
		c0-0.8-0.3-1.4-0.8-1.9c-0.5-0.4-1.2-0.7-2.1-0.7c-0.4,0-0.8,0.1-1.2,0.2c-0.4,0.1-0.7,0.3-1,0.5c-0.3,0.2-0.5,0.5-0.7,0.8
		s-0.3,0.7-0.4,1.1H253.2z"/>
	<path class="st1" d="M266.3,344.7v-6.6c0,0-0.1,0.1-0.1,0.2c0,0.1-0.1,0.2-0.2,0.4c-0.1,0.1-0.1,0.3-0.2,0.4
		c-0.1,0.1-0.1,0.3-0.2,0.4l-2.7,5.2h-1.1l-2.9-5.2c0-0.1-0.1-0.2-0.2-0.3c-0.1-0.1-0.1-0.3-0.2-0.4c-0.1-0.1-0.1-0.3-0.2-0.4
		c-0.1-0.1-0.1-0.2-0.2-0.3v6.6h-1.2v-7.8h1.6l2.9,5.3c0.1,0.1,0.1,0.2,0.2,0.4c0.1,0.1,0.1,0.3,0.2,0.4s0.1,0.3,0.2,0.4
		c0.1,0.1,0.1,0.2,0.1,0.3c0-0.1,0.1-0.1,0.1-0.3c0.1-0.1,0.1-0.2,0.2-0.4c0.1-0.1,0.1-0.3,0.2-0.4c0.1-0.1,0.1-0.3,0.2-0.4l2.8-5.3
		h1.7v7.8H266.3z"/>
	<path class="st1" d="M271.5,340.9c0,0.5,0.1,0.9,0.3,1.3c0.2,0.4,0.4,0.7,0.7,1c0.3,0.3,0.7,0.5,1.1,0.6c0.4,0.1,0.9,0.2,1.5,0.2
		c1.2,0,2.3-0.3,3.3-0.9v1c-1,0.5-2.2,0.8-3.6,0.8c-0.7,0-1.3-0.1-1.9-0.3c-0.6-0.2-1-0.4-1.4-0.8s-0.7-0.8-0.9-1.3
		c-0.2-0.5-0.3-1.1-0.3-1.7c0-0.6,0.1-1.1,0.4-1.6c0.2-0.5,0.6-0.9,1-1.3c0.4-0.4,0.9-0.6,1.5-0.9c0.6-0.2,1.2-0.3,1.9-0.3
		c0.7,0,1.3,0.1,1.8,0.3c0.5,0.2,0.9,0.4,1.3,0.8c0.3,0.3,0.6,0.7,0.8,1.2c0.2,0.5,0.3,1,0.3,1.6v0.5H271.5z M277.7,340.1
		c0-0.8-0.3-1.4-0.8-1.9c-0.5-0.4-1.2-0.7-2.1-0.7c-0.4,0-0.8,0.1-1.2,0.2c-0.4,0.1-0.7,0.3-1,0.5c-0.3,0.2-0.5,0.5-0.7,0.8
		s-0.3,0.7-0.4,1.1H277.7z"/>
	<path class="st1" d="M288.6,344.7V341h-5.7v3.6h-1.3v-7.8h1.3v3.3h5.7v-3.3h1.3v7.8H288.6z"/>
	<path class="st1" d="M300.2,344.7V341h-5.7v3.6h-1.3v-7.8h1.3v3.3h5.7v-3.3h1.3v7.8H300.2z"/>
	<path class="st1" d="M309.1,344.8c-0.8,0-1.5-0.1-2.1-0.3c-0.6-0.2-1.1-0.5-1.6-0.8c-0.4-0.4-0.8-0.8-1-1.3c-0.2-0.5-0.3-1-0.3-1.6
		c0-0.6,0.1-1.2,0.4-1.7c0.2-0.5,0.6-0.9,1-1.3s1-0.6,1.6-0.8c0.6-0.2,1.3-0.3,2.1-0.3c0.7,0,1.4,0.1,2,0.3c0.6,0.2,1.1,0.5,1.5,0.8
		c0.4,0.4,0.7,0.8,1,1.3c0.2,0.5,0.3,1.1,0.3,1.7c0,0.6-0.1,1.2-0.3,1.7c-0.2,0.5-0.6,0.9-1,1.3s-1,0.6-1.6,0.8
		C310.6,344.8,309.9,344.8,309.1,344.8z M309.2,337.5c-0.6,0-1.1,0.1-1.5,0.2c-0.5,0.1-0.9,0.4-1.2,0.6c-0.3,0.3-0.6,0.6-0.8,1
		c-0.2,0.4-0.3,0.9-0.3,1.4c0,0.5,0.1,0.9,0.3,1.3c0.2,0.4,0.4,0.7,0.7,1c0.3,0.3,0.7,0.5,1.2,0.6s1,0.2,1.5,0.2
		c0.6,0,1.1-0.1,1.5-0.2c0.4-0.1,0.8-0.4,1.1-0.6s0.5-0.6,0.7-1c0.2-0.4,0.2-0.9,0.2-1.4c0-1.1-0.3-1.9-0.9-2.4
		C311.2,337.8,310.3,337.5,309.2,337.5z"/>
	<path class="st1" d="M323.9,344.7v-6.4c0,0.1-0.1,0.1-0.1,0.2c0,0.1-0.1,0.1-0.1,0.2l-5.7,6h-1.2v-7.8h1.2v6.3
		c0-0.1,0.1-0.2,0.1-0.2c0.1-0.1,0.1-0.2,0.2-0.3l5.5-5.8h1.2v7.8H323.9z M320.9,334.8c0.3,0,0.6,0,0.9-0.1c0.3-0.1,0.5-0.2,0.7-0.3
		c0.2-0.1,0.4-0.3,0.5-0.5c0.1-0.2,0.2-0.4,0.2-0.6h1.3c-0.1,0.3-0.2,0.6-0.4,0.9c-0.2,0.3-0.4,0.5-0.8,0.7
		c-0.3,0.2-0.7,0.4-1.1,0.5c-0.4,0.1-0.9,0.2-1.4,0.2s-1-0.1-1.4-0.2c-0.4-0.1-0.8-0.3-1.1-0.5c-0.3-0.2-0.5-0.4-0.7-0.7
		c-0.2-0.3-0.3-0.6-0.3-0.9h1.3c0,0.2,0.1,0.4,0.2,0.6c0.1,0.2,0.2,0.3,0.4,0.5c0.2,0.1,0.4,0.2,0.7,0.3
		C320.3,334.7,320.6,334.8,320.9,334.8z"/>
	<path class="st1" d="M329,344.8c-0.3,0-0.5-0.1-0.7-0.2s-0.3-0.3-0.3-0.5c0-0.2,0.1-0.4,0.3-0.5s0.4-0.2,0.7-0.2
		c0.1,0,0.3,0,0.4,0.1c0.1,0,0.2,0.1,0.3,0.2c0.1,0.1,0.2,0.1,0.2,0.2s0.1,0.2,0.1,0.3c0,0.1,0,0.2-0.1,0.3
		c-0.1,0.1-0.1,0.2-0.2,0.2c-0.1,0.1-0.2,0.1-0.3,0.2C329.3,344.8,329.2,344.8,329,344.8z"/>
	<path class="st1" d="M34.2,369.3c0.2,0.1,0.4,0.2,0.6,0.3c0.2,0.1,0.5,0.2,0.7,0.2c0.2,0.1,0.5,0.1,0.7,0.1c0.2,0,0.5,0,0.7,0
		c1.5,0,2.3-0.4,2.3-1.3c0-0.2-0.1-0.4-0.2-0.5c-0.1-0.1-0.3-0.3-0.5-0.4c-0.2-0.1-0.4-0.2-0.7-0.3c-0.3-0.1-0.6-0.2-1-0.3
		c-0.5-0.1-0.9-0.3-1.2-0.4s-0.6-0.3-0.9-0.5c-0.2-0.2-0.4-0.4-0.5-0.6c-0.1-0.2-0.2-0.5-0.2-0.7c0-0.3,0.1-0.7,0.3-0.9
		c0.2-0.3,0.5-0.5,0.8-0.7s0.7-0.3,1.2-0.4c0.4-0.1,0.9-0.1,1.4-0.1c0.9,0,1.7,0.1,2.3,0.4v1c-0.8-0.4-1.6-0.6-2.5-0.6
		c-0.3,0-0.6,0-0.9,0.1c-0.3,0.1-0.5,0.1-0.7,0.3s-0.3,0.2-0.4,0.4c-0.1,0.2-0.2,0.3-0.2,0.5c0,0.2,0,0.4,0.1,0.5
		c0.1,0.1,0.2,0.3,0.4,0.4c0.2,0.1,0.4,0.2,0.7,0.3c0.3,0.1,0.6,0.2,1,0.3c0.5,0.2,0.9,0.3,1.3,0.5s0.7,0.3,0.9,0.5
		c0.2,0.2,0.4,0.4,0.5,0.6c0.1,0.2,0.2,0.5,0.2,0.8c0,0.4-0.1,0.7-0.3,0.9c-0.2,0.3-0.5,0.5-0.8,0.7c-0.3,0.2-0.7,0.3-1.2,0.4
		c-0.5,0.1-1,0.1-1.5,0.1c-1,0-1.9-0.2-2.6-0.5V369.3z"/>
	<path class="st1" d="M47.6,370.6c-0.4,0.2-0.9,0.3-1.5,0.3c-1.7,0-2.5-0.7-2.5-2.2v-4.9h-1.8v-0.9h1.8v-2l1.3-0.3v2.3h2.7v0.9H45
		v4.8c0,0.5,0.1,0.9,0.3,1.1s0.6,0.4,1.2,0.4c0.4,0,0.8-0.1,1.2-0.3V370.6z"/>
	<path class="st1" d="M56.8,370.7v-1.4h0c-0.3,0.5-0.8,0.9-1.5,1.1s-1.4,0.4-2.2,0.4c-0.6,0-1.2-0.1-1.8-0.3c-0.5-0.2-1-0.4-1.4-0.8
		c-0.4-0.3-0.7-0.8-0.9-1.2c-0.2-0.5-0.3-1-0.3-1.6c0-0.6,0.1-1.2,0.3-1.7c0.2-0.5,0.5-1,1-1.3c0.4-0.4,0.9-0.7,1.5-0.9
		s1.2-0.3,1.9-0.3c1.5,0,2.6,0.4,3.2,1.3h0v-4.9h1.3v11.6H56.8z M56.8,366c0-0.3-0.1-0.7-0.2-1c-0.2-0.3-0.4-0.6-0.6-0.8
		s-0.6-0.4-1-0.5c-0.4-0.1-0.8-0.2-1.3-0.2c-0.5,0-1,0.1-1.4,0.2c-0.4,0.2-0.8,0.4-1.1,0.7c-0.3,0.3-0.5,0.6-0.7,1
		c-0.2,0.4-0.3,0.9-0.3,1.4c0,0.5,0.1,0.9,0.2,1.3c0.2,0.4,0.4,0.7,0.7,1c0.3,0.3,0.6,0.5,1,0.6c0.4,0.1,0.8,0.2,1.3,0.2
		c0.5,0,1-0.1,1.4-0.2c0.4-0.1,0.8-0.3,1.1-0.6c0.3-0.2,0.5-0.5,0.7-0.9c0.2-0.3,0.2-0.7,0.2-1.1V366z"/>
	<path class="st1" d="M62,364.2c-0.1,0-0.3,0-0.4-0.1c-0.1,0-0.2-0.1-0.3-0.2c-0.1-0.1-0.2-0.1-0.2-0.2c-0.1-0.1-0.1-0.2-0.1-0.3
		c0-0.2,0.1-0.4,0.3-0.5s0.4-0.2,0.7-0.2c0.1,0,0.3,0,0.4,0.1c0.1,0,0.2,0.1,0.3,0.1c0.1,0.1,0.2,0.1,0.2,0.2
		c0.1,0.1,0.1,0.2,0.1,0.3c0,0.1,0,0.2-0.1,0.3c-0.1,0.1-0.1,0.2-0.2,0.2c-0.1,0.1-0.2,0.1-0.3,0.2C62.2,364.2,62.1,364.2,62,364.2z
		 M62,370.8c-0.3,0-0.5-0.1-0.7-0.2c-0.2-0.1-0.3-0.3-0.3-0.5c0-0.2,0.1-0.4,0.3-0.5c0.2-0.1,0.4-0.2,0.7-0.2c0.1,0,0.3,0,0.4,0.1
		c0.1,0,0.2,0.1,0.3,0.2c0.1,0.1,0.2,0.1,0.2,0.2c0.1,0.1,0.1,0.2,0.1,0.3c0,0.1,0,0.2-0.1,0.3c-0.1,0.1-0.1,0.2-0.2,0.2
		c-0.1,0.1-0.2,0.1-0.3,0.2C62.3,370.8,62.1,370.8,62,370.8z"/>
	<path class="st1" d="M66.5,364.2c-0.1,0-0.3,0-0.4-0.1c-0.1,0-0.2-0.1-0.3-0.2c-0.1-0.1-0.2-0.1-0.2-0.2c-0.1-0.1-0.1-0.2-0.1-0.3
		c0-0.2,0.1-0.4,0.3-0.5c0.2-0.1,0.4-0.2,0.7-0.2c0.1,0,0.3,0,0.4,0.1c0.1,0,0.2,0.1,0.3,0.1c0.1,0.1,0.2,0.1,0.2,0.2
		c0.1,0.1,0.1,0.2,0.1,0.3c0,0.1,0,0.2-0.1,0.3c-0.1,0.1-0.1,0.2-0.2,0.2c-0.1,0.1-0.2,0.1-0.3,0.2
		C66.8,364.2,66.7,364.2,66.5,364.2z M66.5,370.8c-0.3,0-0.5-0.1-0.7-0.2c-0.2-0.1-0.3-0.3-0.3-0.5c0-0.2,0.1-0.4,0.3-0.5
		c0.2-0.1,0.4-0.2,0.7-0.2c0.1,0,0.3,0,0.4,0.1c0.1,0,0.2,0.1,0.3,0.2c0.1,0.1,0.2,0.1,0.2,0.2c0.1,0.1,0.1,0.2,0.1,0.3
		c0,0.1,0,0.2-0.1,0.3c-0.1,0.1-0.1,0.2-0.2,0.2c-0.1,0.1-0.2,0.1-0.3,0.2C66.8,370.8,66.7,370.8,66.5,370.8z"/>
	<path class="st1" d="M77.4,370.3c-0.8,0.4-1.7,0.5-2.8,0.5c-0.7,0-1.4-0.1-2-0.3c-0.6-0.2-1.1-0.5-1.5-0.8c-0.4-0.4-0.7-0.8-1-1.2
		c-0.2-0.5-0.3-1-0.3-1.6c0-0.6,0.1-1.1,0.4-1.7c0.2-0.5,0.6-1,1-1.3s1-0.7,1.7-0.9c0.7-0.2,1.4-0.3,2.2-0.3c0.9,0,1.6,0.1,2.3,0.4
		v1c-0.8-0.4-1.6-0.6-2.4-0.6c-0.6,0-1.2,0.1-1.6,0.3s-0.9,0.4-1.2,0.7c-0.3,0.3-0.6,0.7-0.7,1.1s-0.3,0.8-0.3,1.3
		c0,0.4,0.1,0.8,0.2,1.2s0.4,0.7,0.7,1c0.3,0.3,0.7,0.5,1.1,0.7c0.5,0.2,1,0.3,1.6,0.3c1,0,1.8-0.2,2.6-0.7V370.3z"/>
	<path class="st1" d="M84.1,370.9c-0.8,0-1.5-0.1-2.1-0.3c-0.6-0.2-1.1-0.5-1.6-0.8c-0.4-0.4-0.8-0.8-1-1.3c-0.2-0.5-0.3-1-0.3-1.6
		c0-0.7,0.1-1.2,0.4-1.7c0.2-0.5,0.6-0.9,1-1.3c0.4-0.4,1-0.6,1.6-0.8c0.6-0.2,1.3-0.3,2.1-0.3c0.7,0,1.4,0.1,2,0.3
		c0.6,0.2,1.1,0.5,1.5,0.8c0.4,0.4,0.7,0.8,1,1.3c0.2,0.5,0.3,1.1,0.3,1.7c0,0.6-0.1,1.2-0.3,1.7c-0.2,0.5-0.6,0.9-1,1.3
		c-0.4,0.4-1,0.6-1.6,0.8C85.6,370.8,84.9,370.9,84.1,370.9z M84.2,363.5c-0.6,0-1.1,0.1-1.5,0.2c-0.5,0.1-0.9,0.4-1.2,0.6
		c-0.3,0.3-0.6,0.6-0.8,1c-0.2,0.4-0.3,0.9-0.3,1.4c0,0.5,0.1,0.9,0.3,1.3c0.2,0.4,0.4,0.7,0.7,1c0.3,0.3,0.7,0.5,1.2,0.6
		c0.5,0.1,1,0.2,1.5,0.2c0.6,0,1.1-0.1,1.5-0.2s0.8-0.4,1.1-0.6c0.3-0.3,0.5-0.6,0.7-1c0.2-0.4,0.2-0.9,0.2-1.4
		c0-1.1-0.3-1.9-0.9-2.4C86.3,363.8,85.4,363.5,84.2,363.5z"/>
	<path class="st1" d="M98.5,370.7v-1.3h0c-0.7,1-1.8,1.5-3.3,1.5c-2.5,0-3.7-1.1-3.7-3.4v-4.6h1.3v4.4c0,0.9,0.2,1.6,0.7,2.1
		c0.4,0.4,1.1,0.7,2,0.7c0.4,0,0.9-0.1,1.2-0.2c0.4-0.1,0.7-0.3,1-0.5c0.3-0.2,0.5-0.5,0.6-0.9c0.1-0.3,0.2-0.7,0.2-1.1v-4.5h1.3
		v7.8H98.5z"/>
	<path class="st1" d="M107.6,370.6c-0.4,0.2-0.9,0.3-1.5,0.3c-1.7,0-2.5-0.7-2.5-2.2v-4.9h-1.8v-0.9h1.8v-2l1.3-0.3v2.3h2.7v0.9H105
		v4.8c0,0.5,0.1,0.9,0.3,1.1c0.2,0.2,0.6,0.4,1.2,0.4c0.4,0,0.8-0.1,1.2-0.3V370.6z"/>
	<path class="st1" d="M116.4,366.3v-0.3l8.6-3.6v0.9l-6.7,2.8v0l6.7,2.5v0.9L116.4,366.3z"/>
	<path class="st1" d="M130.2,366.3v-0.3l8.6-3.6v0.9l-6.7,2.8v0l6.7,2.5v0.9L130.2,366.3z"/>
	<path class="st1" d="M150,363.2h-1.2v-3.4h1.2V363.2z M152.9,363.2h-1.2v-3.4h1.2V363.2z"/>
	<path class="st1" d="M157.9,370.7h-1.3v-10.9h1.3V370.7z"/>
	<path class="st1" d="M173.1,370.7v-1.4h0c-0.3,0.5-0.8,0.9-1.4,1.2c-0.6,0.3-1.2,0.4-2,0.4c-0.5,0-1-0.1-1.4-0.2
		c-0.4-0.1-0.7-0.3-1-0.5s-0.5-0.4-0.6-0.7s-0.2-0.6-0.2-0.9c0-0.7,0.3-1.3,0.9-1.7c0.6-0.4,1.5-0.7,2.6-0.8l3.1-0.3
		c0-1.5-0.8-2.2-2.3-2.2c-1.2,0-2.3,0.3-3.4,1v-1.1c0.2-0.1,0.5-0.2,0.7-0.3c0.3-0.1,0.6-0.2,0.9-0.2s0.6-0.1,0.9-0.2
		c0.3,0,0.6-0.1,0.9-0.1c1.2,0,2,0.2,2.6,0.7c0.6,0.5,0.9,1.2,0.9,2.2v5.1H173.1z M170.4,366.9c-0.5,0.1-0.9,0.1-1.2,0.2
		s-0.6,0.2-0.8,0.3c-0.2,0.1-0.4,0.3-0.5,0.5c-0.1,0.2-0.2,0.4-0.2,0.7c0,0.2,0,0.4,0.1,0.6c0.1,0.2,0.2,0.3,0.4,0.5
		c0.2,0.1,0.4,0.2,0.7,0.3c0.3,0.1,0.6,0.1,0.9,0.1c0.5,0,0.9-0.1,1.3-0.2c0.4-0.1,0.7-0.3,1-0.5s0.5-0.5,0.7-0.8
		c0.2-0.3,0.2-0.7,0.2-1.1v-0.8L170.4,366.9z"/>
	<path class="st1" d="M190.5,370.7v-4.6c0-0.5,0-0.9-0.1-1.2c-0.1-0.3-0.2-0.6-0.4-0.8c-0.2-0.2-0.5-0.4-0.8-0.4
		c-0.3-0.1-0.7-0.1-1.1-0.1c-0.4,0-0.7,0.1-1.1,0.2c-0.3,0.1-0.6,0.3-0.9,0.6c-0.3,0.2-0.5,0.5-0.6,0.8c-0.1,0.3-0.2,0.7-0.2,1v4.5
		H184V366c0-1.6-0.8-2.5-2.5-2.5c-0.4,0-0.7,0.1-1.1,0.2c-0.3,0.1-0.6,0.3-0.9,0.5c-0.2,0.2-0.4,0.5-0.6,0.8
		c-0.1,0.3-0.2,0.7-0.2,1.1v4.5h-1.3v-7.8h1.3v1.3h0c0.7-1,1.8-1.4,3.2-1.4c0.4,0,0.7,0,1,0.1c0.3,0.1,0.6,0.2,0.9,0.4
		c0.3,0.1,0.5,0.3,0.7,0.5s0.3,0.4,0.4,0.7c0.4-0.6,0.8-1,1.4-1.3c0.6-0.3,1.2-0.4,2-0.4c2.3,0,3.4,1.1,3.4,3.2v4.8H190.5z"/>
	<path class="st1" d="M201.8,363.2h-1.2v-3.4h1.2V363.2z M204.8,363.2h-1.2v-3.4h1.2V363.2z"/>
	<path class="st1" d="M214.8,366.3v-0.3l8.6-3.6v0.9l-6.7,2.8v0l6.7,2.5v0.9L214.8,366.3z"/>
	<path class="st1" d="M228.6,366.3v-0.3l8.6-3.6v0.9l-6.7,2.8v0l6.7,2.5v0.9L228.6,366.3z"/>
	<path class="st1" d="M253.9,370.7v-1.3h0c-0.7,1-1.8,1.5-3.3,1.5c-2.5,0-3.7-1.1-3.7-3.4v-4.6h1.3v4.4c0,0.9,0.2,1.6,0.7,2.1
		c0.4,0.4,1.1,0.7,2,0.7c0.4,0,0.9-0.1,1.2-0.2c0.4-0.1,0.7-0.3,1-0.5c0.3-0.2,0.5-0.5,0.6-0.9c0.1-0.3,0.2-0.7,0.2-1.1v-4.5h1.3
		v7.8H253.9z"/>
	<path class="st1" d="M258,369.3c0.2,0.1,0.4,0.2,0.6,0.3c0.2,0.1,0.5,0.2,0.7,0.2c0.2,0.1,0.5,0.1,0.7,0.1c0.2,0,0.5,0,0.7,0
		c1.5,0,2.3-0.4,2.3-1.3c0-0.2-0.1-0.4-0.2-0.5c-0.1-0.1-0.3-0.3-0.5-0.4c-0.2-0.1-0.4-0.2-0.7-0.3c-0.3-0.1-0.6-0.2-1-0.3
		c-0.5-0.1-0.9-0.3-1.2-0.4s-0.6-0.3-0.9-0.5c-0.2-0.2-0.4-0.4-0.5-0.6c-0.1-0.2-0.2-0.5-0.2-0.7c0-0.3,0.1-0.7,0.3-0.9
		s0.5-0.5,0.8-0.7c0.3-0.2,0.7-0.3,1.2-0.4c0.4-0.1,0.9-0.1,1.4-0.1c0.9,0,1.7,0.1,2.3,0.4v1c-0.8-0.4-1.6-0.6-2.5-0.6
		c-0.3,0-0.6,0-0.9,0.1c-0.3,0.1-0.5,0.1-0.7,0.3c-0.2,0.1-0.3,0.2-0.4,0.4c-0.1,0.2-0.2,0.3-0.2,0.5c0,0.2,0,0.4,0.1,0.5
		c0.1,0.1,0.2,0.3,0.4,0.4c0.2,0.1,0.4,0.2,0.7,0.3c0.3,0.1,0.6,0.2,1,0.3c0.5,0.2,0.9,0.3,1.3,0.5s0.7,0.3,0.9,0.5
		c0.2,0.2,0.4,0.4,0.5,0.6c0.1,0.2,0.2,0.5,0.2,0.8c0,0.4-0.1,0.7-0.3,0.9c-0.2,0.3-0.5,0.5-0.8,0.7s-0.7,0.3-1.2,0.4
		c-0.5,0.1-1,0.1-1.5,0.1c-1,0-1.9-0.2-2.6-0.5V369.3z"/>
	<path class="st1" d="M267.6,367c0,0.5,0.1,0.9,0.3,1.3c0.2,0.4,0.4,0.7,0.7,1s0.7,0.5,1.1,0.6s0.9,0.2,1.5,0.2
		c1.2,0,2.3-0.3,3.3-0.9v1c-1,0.5-2.2,0.8-3.6,0.8c-0.7,0-1.3-0.1-1.9-0.3c-0.6-0.2-1-0.4-1.4-0.8c-0.4-0.3-0.7-0.8-0.9-1.3
		s-0.3-1.1-0.3-1.7c0-0.6,0.1-1.1,0.4-1.6c0.2-0.5,0.6-0.9,1-1.3c0.4-0.4,0.9-0.6,1.5-0.9s1.2-0.3,1.9-0.3c0.7,0,1.3,0.1,1.8,0.3
		c0.5,0.2,0.9,0.4,1.3,0.8c0.3,0.3,0.6,0.7,0.8,1.2c0.2,0.5,0.3,1,0.3,1.6v0.5H267.6z M273.8,366.1c0-0.8-0.3-1.4-0.8-1.9
		c-0.5-0.4-1.2-0.7-2.1-0.7c-0.4,0-0.8,0.1-1.2,0.2c-0.4,0.1-0.7,0.3-1,0.5c-0.3,0.2-0.5,0.5-0.7,0.8c-0.2,0.3-0.3,0.7-0.4,1.1
		H273.8z"/>
	<path class="st1" d="M282.8,363.9c-0.3-0.2-0.7-0.3-1.2-0.3c-0.3,0-0.6,0-0.9,0.1c-0.3,0.1-0.5,0.2-0.7,0.4
		c-0.2,0.2-0.4,0.4-0.5,0.6s-0.2,0.5-0.3,0.7c-0.1,0.2-0.1,0.5-0.2,0.7s-0.1,0.5-0.1,0.7v3.8h-1.3v-7.8h1.3v1.7h0
		c0.1-0.3,0.3-0.5,0.5-0.8c0.2-0.2,0.4-0.4,0.6-0.6c0.2-0.2,0.5-0.3,0.8-0.4c0.3-0.1,0.6-0.1,0.9-0.1c0.2,0,0.4,0,0.6,0
		c0.2,0,0.3,0.1,0.5,0.1V363.9z"/>
	<path class="st1" d="M283,372.8V372h8.6v0.8H283z"/>
	<path class="st1" d="M300.3,370.7v-4.5c0-1.8-0.9-2.6-2.6-2.6c-0.5,0-0.9,0.1-1.3,0.2c-0.4,0.1-0.7,0.3-1,0.6
		c-0.3,0.2-0.5,0.5-0.7,0.8c-0.2,0.3-0.2,0.7-0.2,1.1v4.5h-1.3v-7.8h1.3v1.4h0c0.8-1,1.9-1.5,3.5-1.5c1.1,0,2,0.3,2.6,0.8
		c0.6,0.6,0.9,1.4,0.9,2.4v4.8H300.3z"/>
	<path class="st1" d="M310.7,370.7v-1.4h0c-0.3,0.5-0.8,0.9-1.4,1.2c-0.6,0.3-1.2,0.4-2,0.4c-0.5,0-1-0.1-1.4-0.2
		c-0.4-0.1-0.7-0.3-1-0.5s-0.5-0.4-0.6-0.7c-0.2-0.3-0.2-0.6-0.2-0.9c0-0.7,0.3-1.3,0.9-1.7c0.6-0.4,1.5-0.7,2.6-0.8l3.1-0.3
		c0-1.5-0.8-2.2-2.3-2.2c-1.2,0-2.3,0.3-3.4,1v-1.1c0.2-0.1,0.5-0.2,0.7-0.3s0.6-0.2,0.9-0.2c0.3-0.1,0.6-0.1,0.9-0.2
		c0.3,0,0.6-0.1,0.9-0.1c1.2,0,2,0.2,2.6,0.7s0.9,1.2,0.9,2.2v5.1H310.7z M308,366.9c-0.5,0.1-0.9,0.1-1.2,0.2s-0.6,0.2-0.8,0.3
		s-0.4,0.3-0.5,0.5c-0.1,0.2-0.2,0.4-0.2,0.7c0,0.2,0,0.4,0.1,0.6c0.1,0.2,0.2,0.3,0.4,0.5c0.2,0.1,0.4,0.2,0.7,0.3
		c0.3,0.1,0.6,0.1,0.9,0.1c0.5,0,0.9-0.1,1.3-0.2c0.4-0.1,0.7-0.3,1-0.5s0.5-0.5,0.7-0.8c0.2-0.3,0.2-0.7,0.2-1.1v-0.8L308,366.9z"
		/>
	<path class="st1" d="M328.1,370.7v-4.6c0-0.5,0-0.9-0.1-1.2c-0.1-0.3-0.2-0.6-0.4-0.8c-0.2-0.2-0.5-0.4-0.8-0.4
		c-0.3-0.1-0.7-0.1-1.1-0.1c-0.4,0-0.7,0.1-1.1,0.2c-0.3,0.1-0.6,0.3-0.9,0.6c-0.3,0.2-0.5,0.5-0.6,0.8c-0.1,0.3-0.2,0.7-0.2,1v4.5
		h-1.3V366c0-1.6-0.8-2.5-2.5-2.5c-0.4,0-0.7,0.1-1.1,0.2c-0.3,0.1-0.6,0.3-0.9,0.5c-0.2,0.2-0.4,0.5-0.6,0.8
		c-0.1,0.3-0.2,0.7-0.2,1.1v4.5h-1.3v-7.8h1.3v1.3h0c0.7-1,1.8-1.4,3.2-1.4c0.4,0,0.7,0,1,0.1c0.3,0.1,0.6,0.2,0.9,0.4
		c0.3,0.1,0.5,0.3,0.7,0.5s0.3,0.4,0.4,0.7c0.4-0.6,0.8-1,1.4-1.3c0.6-0.3,1.2-0.4,2-0.4c2.3,0,3.4,1.1,3.4,3.2v4.8H328.1z"/>
	<path class="st1" d="M333.1,367c0,0.5,0.1,0.9,0.3,1.3c0.2,0.4,0.4,0.7,0.7,1c0.3,0.3,0.7,0.5,1.1,0.6s0.9,0.2,1.5,0.2
		c1.2,0,2.3-0.3,3.3-0.9v1c-1,0.5-2.2,0.8-3.6,0.8c-0.7,0-1.3-0.1-1.9-0.3c-0.6-0.2-1-0.4-1.4-0.8c-0.4-0.3-0.7-0.8-0.9-1.3
		s-0.3-1.1-0.3-1.7c0-0.6,0.1-1.1,0.4-1.6c0.2-0.5,0.6-0.9,1-1.3c0.4-0.4,0.9-0.6,1.5-0.9s1.2-0.3,1.9-0.3c0.7,0,1.3,0.1,1.8,0.3
		c0.5,0.2,0.9,0.4,1.3,0.8c0.3,0.3,0.6,0.7,0.8,1.2c0.2,0.5,0.3,1,0.3,1.6v0.5H333.1z M339.3,366.1c0-0.8-0.3-1.4-0.8-1.9
		c-0.5-0.4-1.2-0.7-2.1-0.7c-0.4,0-0.8,0.1-1.2,0.2c-0.4,0.1-0.7,0.3-1,0.5c-0.3,0.2-0.5,0.5-0.7,0.8c-0.2,0.3-0.3,0.7-0.4,1.1
		H339.3z"/>
	<path class="st1" d="M342.6,369.7h-1.2l1.6-2.6h1.6L342.6,369.7z M343.6,363.8c-0.3,0-0.6,0-0.8-0.1c-0.2-0.1-0.3-0.2-0.3-0.4
		c0-0.1,0.1-0.3,0.3-0.4c0.2-0.1,0.5-0.1,0.8-0.1c0.3,0,0.6,0,0.8,0.1c0.2,0.1,0.3,0.2,0.3,0.4c0,0.1,0,0.1-0.1,0.2
		c-0.1,0.1-0.2,0.1-0.3,0.2c-0.1,0-0.2,0.1-0.4,0.1C343.9,363.7,343.8,363.8,343.6,363.8z"/>
</g>
<g>
	<path class="st2" d="M130.8,234.4c-7.2,3.7-16.1,5.5-26.7,5.5c-13.8,0-24.9-4.3-33.2-13c-8.3-8.7-12.5-20-12.5-34.1
		c0-15.1,4.7-27.4,14-36.7c9.4-9.3,21.2-14,35.5-14c9.2,0,16.8,1.3,22.9,3.9v15.6c-6.4-3.8-13.5-5.7-21.2-5.7
		c-10.3,0-18.7,3.3-25.1,9.8c-6.4,6.6-9.6,15.3-9.6,26.3c0,10.4,3,18.7,9,24.9c6,6.2,13.8,9.3,23.6,9.3c9,0,16.8-2.1,23.4-6.3V234.4
		z"/>
	<path class="st2" d="M216.1,204.7h-26.2v26.1h-10.9v-26.1h-26.2v-10.9h26.2v-26.1h10.9v26.1h26.2V204.7z"/>
	<path class="st2" d="M310.4,204.7h-26.2v26.1h-10.9v-26.1h-26.2v-10.9h26.2v-26.1h10.9v26.1h26.2V204.7z"/>
</g>
</svg>
